<svg height="512" viewBox="0 0 64 64" width="512" xmlns="http://www.w3.org/2000/svg"><g id="Location_pin" data-name="Location pin"><path d="m32 51a75.924 75.924 0 0 0 5.87-6c5.25-5.93 12.13-15.35 12.13-24a18 18 0 0 0 -36 0c0 8.65 6.88 18.07 12.13 24a75.924 75.924 0 0 0 5.87 6zm-12-30a12 12 0 1 1 12 12 12 12 0 0 1 -12-12z" fill="#9bc9ff"/><path d="m36 27v-4-4-4h-4-4v4 4 4h4z" fill="#9bc9ff"/><g fill="#57a4ff"><path d="m37 15a1 1 0 0 0 -1-1h-8a1 1 0 0 0 -1 1v11h-2v2h14v-2h-2zm-4 5h2v2h-2zm-2 2h-2v-2h2zm4-4h-2v-2h2zm-4-2v2h-2v-2zm-2 8h2v2h-2zm4 2v-2h2v2z"/><path d="m2 60h60v2h-60z"/><path d="m40.078 44c5.091-6.051 10.922-14.773 10.922-23a19 19 0 0 0 -38 0c0 8.227 5.831 16.949 10.922 23h-21.922v2h23.659a78.15 78.15 0 0 0 5.676 5.748 1 1 0 0 0 1.33 0 78.15 78.15 0 0 0 5.676-5.748h23.659v-2zm-8.078 5.638c-3.218-3.038-17-16.745-17-28.638a17 17 0 0 1 34 0c0 11.883-13.783 25.6-17 28.638z"/><path d="m8 52h4v2h-4z"/><path d="m16 52h4v2h-4z"/><path d="m24 52h4v2h-4z"/><path d="m36 52h4v2h-4z"/><path d="m44 52h4v2h-4z"/><path d="m52 52h4v2h-4z"/><path d="m32 8a13 13 0 1 0 13 13 13.015 13.015 0 0 0 -13-13zm0 24a11 11 0 1 1 11-11 11.013 11.013 0 0 1 -11 11z"/></g></g></svg>