<svg height="512" viewBox="0 0 64 64" width="512" xmlns="http://www.w3.org/2000/svg" xmlns:xlink="http://www.w3.org/1999/xlink"><linearGradient id="New_Gradient_Swatch_1" gradientUnits="userSpaceOnUse" x1="32" x2="32" y1="2.535" y2="61.985"><stop offset="0" stop-color="#fff33b"/><stop offset=".014" stop-color="#fee72e"/><stop offset=".042" stop-color="#fed51b"/><stop offset=".07" stop-color="#fdca10"/><stop offset=".1" stop-color="#fdc70c"/><stop offset=".4" stop-color="#f3903f"/><stop offset=".8" stop-color="#ed683c"/><stop offset="1" stop-color="#e93e3a"/></linearGradient><linearGradient id="New_Gradient_Swatch_1-2" x1="7" x2="7" xlink:href="#New_Gradient_Swatch_1" y1="2.535" y2="61.985"/><linearGradient id="New_Gradient_Swatch_1-3" x1="50" x2="50" xlink:href="#New_Gradient_Swatch_1" y1="2.535" y2="61.985"/><linearGradient id="New_Gradient_Swatch_1-4" x1="44" x2="44" xlink:href="#New_Gradient_Swatch_1" y1="2.535" y2="61.985"/><linearGradient id="New_Gradient_Swatch_1-5" x1="15" x2="15" xlink:href="#New_Gradient_Swatch_1" y1="2.535" y2="61.985"/><linearGradient id="New_Gradient_Swatch_1-6" x1="49" x2="49" xlink:href="#New_Gradient_Swatch_1" y1="2.535" y2="61.985"/><path d="m57 18h-18a1 1 0 0 0 -1 1v15h-2v-31a1 1 0 0 0 -1-1h-32a1 1 0 0 0 -1 1v52a1 1 0 0 0 1 1h5.08a6.991 6.991 0 0 0 13.84 0h20.16a6.991 6.991 0 0 0 13.84 0h1.08a5.006 5.006 0 0 0 5-5v-28a5.006 5.006 0 0 0 -5-5zm-53 2h14v14h-14zm30-2h-14v-10h14zm-16 0h-14v-10h14zm2 2h14v14h-14zm14-14h-14v-2h14zm-16-2v2h-14v-2zm-3 56a5 5 0 1 1 5-5 5.006 5.006 0 0 1 -5 5zm34 0a5 5 0 1 1 5-5 5.006 5.006 0 0 1 -5 5zm11-9a3 3 0 0 1 -3 3h-1.08a6.991 6.991 0 0 0 -13.84 0h-20.16a6.991 6.991 0 0 0 -13.84 0h-4.08v-18h34v2h-28v2h29a1 1 0 0 0 1-1v-19h17a3 3 0 0 1 3 3z" fill="url(#New_Gradient_Swatch_1)"/><path d="m6 38h2v2h-2z" fill="url(#New_Gradient_Swatch_1-2)"/><path d="m57 22h-14a1 1 0 0 0 -1 1v16a1 1 0 0 0 1 1h14a1 1 0 0 0 1-1v-16a1 1 0 0 0 -1-1zm-1 16h-12v-14h12z" fill="url(#New_Gradient_Swatch_1-3)"/><path d="m42 42h4v2h-4z" fill="url(#New_Gradient_Swatch_1-4)"/><path d="m15 52a3 3 0 1 0 3 3 3 3 0 0 0 -3-3zm0 4a1 1 0 1 1 1-1 1 1 0 0 1 -1 1z" fill="url(#New_Gradient_Swatch_1-5)"/><path d="m49 52a3 3 0 1 0 3 3 3 3 0 0 0 -3-3zm0 4a1 1 0 1 1 1-1 1 1 0 0 1 -1 1z" fill="url(#New_Gradient_Swatch_1-6)"/></svg>