<?xml version="1.0" encoding="iso-8859-1"?>
<!-- Generator: Adobe Illustrator 21.0.0, SVG Export Plug-In . SVG Version: 6.00 Build 0)  -->
<svg version="1.1" id="Capa_1" xmlns="http://www.w3.org/2000/svg" xmlns:xlink="http://www.w3.org/1999/xlink" x="0px" y="0px"
	 viewBox="0 0 992.903 992.903" style="enable-background:new 0 0 992.903 992.903;" xml:space="preserve">
<g>
	<g id="Tablet_Application-15">
		
			<linearGradient id="SVGID_1_" gradientUnits="userSpaceOnUse" x1="-2.7636" y1="130.3871" x2="999.5226" y2="130.3871" gradientTransform="matrix(1 0 0 -1 0 990.9032)">
			<stop  offset="0" style="stop-color:#FFF33B"/>
			<stop  offset="0.014" style="stop-color:#FEE72E"/>
			<stop  offset="0.042" style="stop-color:#FED51B"/>
			<stop  offset="0.07" style="stop-color:#FDCA10"/>
			<stop  offset="0.1" style="stop-color:#FDC70C"/>
			<stop  offset="0.4" style="stop-color:#F3903F"/>
			<stop  offset="0.8" style="stop-color:#ED683C"/>
			<stop  offset="1" style="stop-color:#E93E3A"/>
		</linearGradient>
		<path style="fill:url(#SVGID_1_);" d="M810.871,860.516H182.032V728.129h-33.097v182.032
			c0.055,45.674,37.068,82.687,82.742,82.742h529.548c45.674-0.055,82.687-37.068,82.742-82.742V794.323h-33.097V860.516z
			 M761.226,959.806H231.677c-27.418,0-49.645-22.227-49.645-49.645v-16.548h628.839v16.548
			C810.871,937.58,788.644,959.806,761.226,959.806z"/>
		
			<linearGradient id="SVGID_2_" gradientUnits="userSpaceOnUse" x1="-2.7636" y1="800.5968" x2="999.5226" y2="800.5968" gradientTransform="matrix(1 0 0 -1 0 990.9032)">
			<stop  offset="0" style="stop-color:#FFF33B"/>
			<stop  offset="0.014" style="stop-color:#FEE72E"/>
			<stop  offset="0.042" style="stop-color:#FED51B"/>
			<stop  offset="0.07" style="stop-color:#FDCA10"/>
			<stop  offset="0.1" style="stop-color:#FDC70C"/>
			<stop  offset="0.4" style="stop-color:#F3903F"/>
			<stop  offset="0.8" style="stop-color:#ED683C"/>
			<stop  offset="1" style="stop-color:#E93E3A"/>
		</linearGradient>
		<path style="fill:url(#SVGID_2_);" d="M182.032,132.387h628.839v248.226h33.097V82.742C843.913,37.068,806.9,0.055,761.226,0
			H231.677c-45.674,0.055-82.687,37.068-82.742,82.742v248.226h33.097V132.387z M231.677,33.097h529.548
			c27.418,0,49.645,22.227,49.645,49.645V99.29H182.032V82.742C182.032,55.324,204.259,33.097,231.677,33.097z"/>
		
			<linearGradient id="SVGID_3_" gradientUnits="userSpaceOnUse" x1="-2.7636" y1="808.871" x2="999.5226" y2="808.871" gradientTransform="matrix(1 0 0 -1 0 990.9032)">
			<stop  offset="0" style="stop-color:#FFF33B"/>
			<stop  offset="0.014" style="stop-color:#FEE72E"/>
			<stop  offset="0.042" style="stop-color:#FED51B"/>
			<stop  offset="0.07" style="stop-color:#FDCA10"/>
			<stop  offset="0.1" style="stop-color:#FDC70C"/>
			<stop  offset="0.4" style="stop-color:#F3903F"/>
			<stop  offset="0.8" style="stop-color:#ED683C"/>
			<stop  offset="1" style="stop-color:#E93E3A"/>
		</linearGradient>
		<rect x="744.677" y="165.484" style="fill:url(#SVGID_3_);" width="33.097" height="33.097"/>
		
			<linearGradient id="SVGID_4_" gradientUnits="userSpaceOnUse" x1="-2.7636" y1="808.871" x2="999.5226" y2="808.871" gradientTransform="matrix(1 0 0 -1 0 990.9032)">
			<stop  offset="0" style="stop-color:#FFF33B"/>
			<stop  offset="0.014" style="stop-color:#FEE72E"/>
			<stop  offset="0.042" style="stop-color:#FED51B"/>
			<stop  offset="0.07" style="stop-color:#FDCA10"/>
			<stop  offset="0.1" style="stop-color:#FDC70C"/>
			<stop  offset="0.4" style="stop-color:#F3903F"/>
			<stop  offset="0.8" style="stop-color:#ED683C"/>
			<stop  offset="1" style="stop-color:#E93E3A"/>
		</linearGradient>
		<rect x="678.484" y="165.484" style="fill:url(#SVGID_4_);" width="33.097" height="33.097"/>
		
			<linearGradient id="SVGID_5_" gradientUnits="userSpaceOnUse" x1="-2.7636" y1="808.871" x2="999.5226" y2="808.871" gradientTransform="matrix(1 0 0 -1 0 990.9032)">
			<stop  offset="0" style="stop-color:#FFF33B"/>
			<stop  offset="0.014" style="stop-color:#FEE72E"/>
			<stop  offset="0.042" style="stop-color:#FED51B"/>
			<stop  offset="0.07" style="stop-color:#FDCA10"/>
			<stop  offset="0.1" style="stop-color:#FDC70C"/>
			<stop  offset="0.4" style="stop-color:#F3903F"/>
			<stop  offset="0.8" style="stop-color:#ED683C"/>
			<stop  offset="1" style="stop-color:#E93E3A"/>
		</linearGradient>
		<rect x="612.29" y="165.484" style="fill:url(#SVGID_5_);" width="33.097" height="33.097"/>
		
			<linearGradient id="SVGID_6_" gradientUnits="userSpaceOnUse" x1="-2.7636" y1="808.871" x2="999.5226" y2="808.871" gradientTransform="matrix(1 0 0 -1 0 990.9032)">
			<stop  offset="0" style="stop-color:#FFF33B"/>
			<stop  offset="0.014" style="stop-color:#FEE72E"/>
			<stop  offset="0.042" style="stop-color:#FED51B"/>
			<stop  offset="0.07" style="stop-color:#FDCA10"/>
			<stop  offset="0.1" style="stop-color:#FDC70C"/>
			<stop  offset="0.4" style="stop-color:#F3903F"/>
			<stop  offset="0.8" style="stop-color:#ED683C"/>
			<stop  offset="1" style="stop-color:#E93E3A"/>
		</linearGradient>
		<rect x="215.129" y="165.484" style="fill:url(#SVGID_6_);" width="33.097" height="33.097"/>
		
			<linearGradient id="SVGID_7_" gradientUnits="userSpaceOnUse" x1="-2.7636" y1="64.1936" x2="999.5226" y2="64.1936" gradientTransform="matrix(1 0 0 -1 0 990.9032)">
			<stop  offset="0" style="stop-color:#FFF33B"/>
			<stop  offset="0.014" style="stop-color:#FEE72E"/>
			<stop  offset="0.042" style="stop-color:#FED51B"/>
			<stop  offset="0.07" style="stop-color:#FDCA10"/>
			<stop  offset="0.1" style="stop-color:#FDC70C"/>
			<stop  offset="0.4" style="stop-color:#F3903F"/>
			<stop  offset="0.8" style="stop-color:#ED683C"/>
			<stop  offset="1" style="stop-color:#E93E3A"/>
		</linearGradient>
		<path style="fill:url(#SVGID_7_);" d="M529.548,910.161h-66.194c-9.139,0-16.548,7.409-16.548,16.548
			c0,9.139,7.409,16.548,16.548,16.548h66.194c9.139,0,16.548-7.409,16.548-16.548C546.097,917.57,538.688,910.161,529.548,910.161z
			"/>
		
			<linearGradient id="SVGID_8_" gradientUnits="userSpaceOnUse" x1="-2.7636" y1="395.1468" x2="999.5226" y2="395.1468" gradientTransform="matrix(1 0 0 -1 0 990.9032)">
			<stop  offset="0" style="stop-color:#FFF33B"/>
			<stop  offset="0.014" style="stop-color:#FEE72E"/>
			<stop  offset="0.042" style="stop-color:#FED51B"/>
			<stop  offset="0.07" style="stop-color:#FDCA10"/>
			<stop  offset="0.1" style="stop-color:#FDC70C"/>
			<stop  offset="0.4" style="stop-color:#F3903F"/>
			<stop  offset="0.8" style="stop-color:#ED683C"/>
			<stop  offset="1" style="stop-color:#E93E3A"/>
		</linearGradient>
		<path style="fill:url(#SVGID_8_);" d="M959.806,598.787v-19.593c-0.055-45.674-37.068-82.687-82.742-82.742h-49.645v-16.548
			c0-27.418-22.227-49.645-49.645-49.645H513c-27.418,0-49.645,22.227-49.645,49.645v231.677c0,9.139,7.409,16.548,16.548,16.548
			h19.593c8.966,25.737,37.099,39.332,62.835,30.365c14.226-4.956,25.409-16.139,30.365-30.365h254.316
			c8.966,25.737,37.099,39.332,62.835,30.365c14.226-4.956,25.409-16.139,30.365-30.365h3.045c27.418,0,49.645-22.227,49.645-49.645
			v-33.097C992.816,624.424,979.571,605.774,959.806,598.787z M926.71,579.194v16.548h-33.097v-63.149
			C913.378,539.581,926.623,558.23,926.71,579.194z M860.516,529.548v66.194h-33.097v-66.194H860.516z M496.452,479.903
			c0-9.139,7.409-16.548,16.548-16.548h264.774c9.139,0,16.548,7.409,16.548,16.548v215.129H592.697
			c-8.966-25.737-37.099-39.332-62.835-30.365c-14.226,4.956-25.409,16.139-30.365,30.365h-3.045V479.903z M546.097,728.129
			c-9.139,0-16.548-7.409-16.548-16.548s7.409-16.548,16.548-16.548c9.139,0,16.548,7.409,16.548,16.548
			S555.236,728.129,546.097,728.129z M893.613,728.129c-9.139,0-16.548-7.409-16.548-16.548s7.409-16.548,16.548-16.548
			s16.548,7.409,16.548,16.548S902.752,728.129,893.613,728.129z M959.806,678.484c0,9.139-7.409,16.548-16.548,16.548h-3.045
			c-8.966-25.737-37.099-39.332-62.835-30.365c-14.226,4.956-25.409,16.139-30.365,30.365h-19.593v-66.194h115.839
			c9.139,0,16.548,7.409,16.548,16.548V678.484z"/>
		
			<linearGradient id="SVGID_9_" gradientUnits="userSpaceOnUse" x1="-2.7636" y1="593.7419" x2="999.5226" y2="593.7419" gradientTransform="matrix(1 0 0 -1 0 990.9032)">
			<stop  offset="0" style="stop-color:#FFF33B"/>
			<stop  offset="0.014" style="stop-color:#FEE72E"/>
			<stop  offset="0.042" style="stop-color:#FED51B"/>
			<stop  offset="0.07" style="stop-color:#FDCA10"/>
			<stop  offset="0.1" style="stop-color:#FDC70C"/>
			<stop  offset="0.4" style="stop-color:#F3903F"/>
			<stop  offset="0.8" style="stop-color:#ED683C"/>
			<stop  offset="1" style="stop-color:#E93E3A"/>
		</linearGradient>
		<rect y="380.613" style="fill:url(#SVGID_9_);" width="66.194" height="33.097"/>
		
			<linearGradient id="SVGID_10_" gradientUnits="userSpaceOnUse" x1="-2.7636" y1="593.7419" x2="999.5226" y2="593.7419" gradientTransform="matrix(1 0 0 -1 0 990.9032)">
			<stop  offset="0" style="stop-color:#FFF33B"/>
			<stop  offset="0.014" style="stop-color:#FEE72E"/>
			<stop  offset="0.042" style="stop-color:#FED51B"/>
			<stop  offset="0.07" style="stop-color:#FDCA10"/>
			<stop  offset="0.1" style="stop-color:#FDC70C"/>
			<stop  offset="0.4" style="stop-color:#F3903F"/>
			<stop  offset="0.8" style="stop-color:#ED683C"/>
			<stop  offset="1" style="stop-color:#E93E3A"/>
		</linearGradient>
		<rect x="99.29" y="380.613" style="fill:url(#SVGID_10_);" width="264.774" height="33.097"/>
		
			<linearGradient id="SVGID_11_" gradientUnits="userSpaceOnUse" x1="-2.7636" y1="527.5484" x2="999.5226" y2="527.5484" gradientTransform="matrix(1 0 0 -1 0 990.9032)">
			<stop  offset="0" style="stop-color:#FFF33B"/>
			<stop  offset="0.014" style="stop-color:#FEE72E"/>
			<stop  offset="0.042" style="stop-color:#FED51B"/>
			<stop  offset="0.07" style="stop-color:#FDCA10"/>
			<stop  offset="0.1" style="stop-color:#FDC70C"/>
			<stop  offset="0.4" style="stop-color:#F3903F"/>
			<stop  offset="0.8" style="stop-color:#ED683C"/>
			<stop  offset="1" style="stop-color:#E93E3A"/>
		</linearGradient>
		<rect x="33.097" y="446.806" style="fill:url(#SVGID_11_);" width="66.194" height="33.097"/>
		
			<linearGradient id="SVGID_12_" gradientUnits="userSpaceOnUse" x1="-2.7636" y1="527.5484" x2="999.5226" y2="527.5484" gradientTransform="matrix(1 0 0 -1 0 990.9032)">
			<stop  offset="0" style="stop-color:#FFF33B"/>
			<stop  offset="0.014" style="stop-color:#FEE72E"/>
			<stop  offset="0.042" style="stop-color:#FED51B"/>
			<stop  offset="0.07" style="stop-color:#FDCA10"/>
			<stop  offset="0.1" style="stop-color:#FDC70C"/>
			<stop  offset="0.4" style="stop-color:#F3903F"/>
			<stop  offset="0.8" style="stop-color:#ED683C"/>
			<stop  offset="1" style="stop-color:#E93E3A"/>
		</linearGradient>
		<rect x="132.387" y="446.806" style="fill:url(#SVGID_12_);" width="264.774" height="33.097"/>
		
			<linearGradient id="SVGID_13_" gradientUnits="userSpaceOnUse" x1="-2.7636" y1="461.3548" x2="999.5226" y2="461.3548" gradientTransform="matrix(1 0 0 -1 0 990.9032)">
			<stop  offset="0" style="stop-color:#FFF33B"/>
			<stop  offset="0.014" style="stop-color:#FEE72E"/>
			<stop  offset="0.042" style="stop-color:#FED51B"/>
			<stop  offset="0.07" style="stop-color:#FDCA10"/>
			<stop  offset="0.1" style="stop-color:#FDC70C"/>
			<stop  offset="0.4" style="stop-color:#F3903F"/>
			<stop  offset="0.8" style="stop-color:#ED683C"/>
			<stop  offset="1" style="stop-color:#E93E3A"/>
		</linearGradient>
		<rect x="66.194" y="513" style="fill:url(#SVGID_13_);" width="66.194" height="33.097"/>
		
			<linearGradient id="SVGID_14_" gradientUnits="userSpaceOnUse" x1="-2.7636" y1="461.3548" x2="999.5226" y2="461.3548" gradientTransform="matrix(1 0 0 -1 0 990.9032)">
			<stop  offset="0" style="stop-color:#FFF33B"/>
			<stop  offset="0.014" style="stop-color:#FEE72E"/>
			<stop  offset="0.042" style="stop-color:#FED51B"/>
			<stop  offset="0.07" style="stop-color:#FDCA10"/>
			<stop  offset="0.1" style="stop-color:#FDC70C"/>
			<stop  offset="0.4" style="stop-color:#F3903F"/>
			<stop  offset="0.8" style="stop-color:#ED683C"/>
			<stop  offset="1" style="stop-color:#E93E3A"/>
		</linearGradient>
		<rect x="165.484" y="513" style="fill:url(#SVGID_14_);" width="264.774" height="33.097"/>
	</g>
</g>
<g>
</g>
<g>
</g>
<g>
</g>
<g>
</g>
<g>
</g>
<g>
</g>
<g>
</g>
<g>
</g>
<g>
</g>
<g>
</g>
<g>
</g>
<g>
</g>
<g>
</g>
<g>
</g>
<g>
</g>
</svg>
