<?xml version="1.0" encoding="iso-8859-1"?>
<!-- Generator: Adobe Illustrator 21.0.0, SVG Export Plug-In . SVG Version: 6.00 Build 0)  -->
<svg version="1.1" id="Capa_1" xmlns="http://www.w3.org/2000/svg" xmlns:xlink="http://www.w3.org/1999/xlink" x="0px" y="0px"
	 viewBox="0 0 512 512" style="enable-background:new 0 0 512 512;" xml:space="preserve">
<g>
	<polygon style="fill:#2C3E50;" points="162.133,473.582 153.6,362.649 68.267,362.649 59.733,473.582 	"/>
	<g>
		<path style="fill:#3F5C6C;" d="M8.533,260.249v-34.133c0-4.713,3.821-8.533,8.533-8.533H204.8c4.713,0,8.533,3.821,8.533,8.533
			v34.133l-2.313,8.533H10.761L8.533,260.249z"/>
		<path style="fill:#3F5C6C;" d="M110.933,465.049h59.733c4.713,0,8.533,3.821,8.533,8.533v25.6H42.667v-25.6
			c0-4.713,3.821-8.533,8.533-8.533H110.933z"/>
		<path style="fill:#3F5C6C;" d="M102.4,371.182H34.133c-4.713,0-8.533-3.82-8.533-8.533v-42.667h170.667v42.667
			c0,4.713-3.821,8.533-8.533,8.533H102.4z"/>
	</g>
	<polygon style="fill:#67B9CC;" points="8.533,260.249 25.6,328.516 196.267,328.516 213.333,260.249 204.8,260.249 	"/>
	<polygon style="fill:#9FC9D3;" points="145.067,260.249 136.533,328.516 85.333,328.516 76.8,260.249 	"/>
	<polygon style="fill:#C03A2B;" points="503.467,157.422 402.398,244.787 356.002,191.718 364.715,187.545 479.317,133.273 	"/>
	<path style="fill:#E64C3C;" d="M431.104,266.052l-8.277,8.192c-2.351,2.34-5.846,3.106-8.96,1.963l-124.075-45.141
		c-2.352-0.809-4.484-2.153-6.229-3.925l-54.613-54.613l-57.344-57.344l-60.331-60.331c-6.514-6.518-9.022-16.033-6.568-24.915
		s9.493-15.759,18.429-18.008l6.827-1.707l17.835-4.437c0.502-0.154,1.016-0.268,1.536-0.341
		c17.004-3.679,34.712,1.527,47.019,13.824l35.584,35.584l12.117,12.032l12.032,12.117l12.032,12.032l12.117,12.032l12.032,12.117
		l12.117,12.032v0.085l12.032,12.032l12.117,12.032l12.032,12.117l24.149,24.064l48.213,48.299l18.176,18.091
		C434.432,257.288,434.432,262.698,431.104,266.052z"/>
	<path style="fill:#F0C419;" d="M228.932,181.034c-2.263,0-4.433-0.9-6.033-2.5l-15.078-15.087
		c-2.218-2.142-3.108-5.315-2.327-8.299c0.781-2.984,3.111-5.313,6.094-6.094c2.984-0.781,6.156,0.109,8.299,2.327l15.078,15.087
		c2.44,2.44,3.169,6.11,1.849,9.298C235.494,178.954,232.383,181.033,228.932,181.034z"/>
	<path style="fill:#C03A2B;" d="M182.758,104.029l-22.289,22.289c-1.749,1.749-2.653,4.171-2.478,6.638
		c0.175,2.467,1.412,4.737,3.391,6.222l26.743,20.062c7.833,5.875,18.795,5.097,25.719-1.826c6.926-6.923,7.708-17.884,1.835-25.719
		l-20.062-26.752c-1.484-1.979-3.754-3.216-6.222-3.391C186.929,101.376,184.507,102.28,182.758,104.029z"/>
	<g>
		<path style="fill:#B0D3F0;" d="M244.053,66.884l-18.176,18.091c-1.559,1.632-3.716,2.557-5.973,2.56
			c-3.447-0.021-6.546-2.104-7.867-5.287c-1.322-3.183-0.609-6.848,1.809-9.305l18.091-18.091L244.053,66.884z"/>
		<path style="fill:#B0D3F0;" d="M268.117,91.033l-18.091,18.091c-3.328,3.309-8.704,3.309-12.032,0
			c-3.309-3.328-3.309-8.704,0-12.032l18.091-18.091L268.117,91.033z"/>
		<path style="fill:#B0D3F0;" d="M292.267,115.182l-18.091,18.091c-3.328,3.309-8.704,3.309-12.032,0
			c-3.309-3.328-3.309-8.704,0-12.032l18.091-18.176L292.267,115.182z"/>
		<path style="fill:#B0D3F0;" d="M316.416,139.332l-18.091,18.091c-1.623,1.579-3.795,2.466-6.059,2.475
			c-3.451-0.014-6.554-2.106-7.862-5.3c-1.307-3.194-0.562-6.861,1.888-9.292l18.091-18.005L316.416,139.332z"/>
		<path style="fill:#B0D3F0;" d="M340.565,163.481l-18.091,18.091c-1.623,1.579-3.795,2.466-6.059,2.475
			c-2.261-0.025-4.427-0.91-6.059-2.475c-3.328-3.354-3.328-8.764,0-12.117l18.176-18.091L340.565,163.481z"/>
		<path style="fill:#B0D3F0;" d="M176.469,44.697c-3.365,3.3-8.752,3.3-12.117,0l-34.389-34.475l17.835-4.437
			c0.502-0.154,1.016-0.268,1.536-0.341l27.136,27.136C179.797,35.933,179.797,41.343,176.469,44.697z"/>
	</g>
	<path style="fill:#5E5F62;" d="M503.467,507.716H8.533c-4.713,0-8.533-3.821-8.533-8.533c0-4.713,3.821-8.533,8.533-8.533h494.933
		c4.713,0,8.533,3.821,8.533,8.533C512,503.895,508.18,507.716,503.467,507.716z"/>
</g>
<g>
</g>
<g>
</g>
<g>
</g>
<g>
</g>
<g>
</g>
<g>
</g>
<g>
</g>
<g>
</g>
<g>
</g>
<g>
</g>
<g>
</g>
<g>
</g>
<g>
</g>
<g>
</g>
<g>
</g>
</svg>
