<?xml version="1.0" encoding="iso-8859-1"?>
<!-- Generator: Adobe Illustrator 21.0.0, SVG Export Plug-In . SVG Version: 6.00 Build 0)  -->
<svg version="1.1" id="Capa_1" xmlns="http://www.w3.org/2000/svg" xmlns:xlink="http://www.w3.org/1999/xlink" x="0px" y="0px"
	 viewBox="0 0 915.404 915.404" style="enable-background:new 0 0 915.404 915.404;" xml:space="preserve">
<g>
	<g id="Airplane">
		
			<linearGradient id="SVGID_1_" gradientUnits="userSpaceOnUse" x1="457.7021" y1="913.2683" x2="457.7021" y2="-80.7292" gradientTransform="matrix(1 0 0 -1 0 922)">
			<stop  offset="0" style="stop-color:#FFF33B"/>
			<stop  offset="0.014" style="stop-color:#FEE72E"/>
			<stop  offset="0.042" style="stop-color:#FED51B"/>
			<stop  offset="0.07" style="stop-color:#FDCA10"/>
			<stop  offset="0.1" style="stop-color:#FDC70C"/>
			<stop  offset="0.4" style="stop-color:#F3903F"/>
			<stop  offset="0.8" style="stop-color:#ED683C"/>
			<stop  offset="1" style="stop-color:#E93E3A"/>
		</linearGradient>
		<path style="fill:url(#SVGID_1_);" d="M874.289,232.032c53.571-51.884,54.939-137.371,3.055-190.942
			c-51.883-53.571-137.371-54.939-190.942-3.055c-1.35,1.307-2.672,2.642-3.966,4.005L563.262,184.275l-19.28-3.871l1.425-1.5
			c17.465-17.621,17.465-46.025,0-63.646c-17.576-17.579-46.076-17.582-63.655-0.005c-0.002,0.002-0.004,0.004-0.005,0.005
			l-43.856,43.991l-239.64-48.012c-4.905-0.965-9.968,0.577-13.503,4.111l-21.29,21.2c-5.851,5.868-5.836,15.368,0.032,21.218
			c1.133,1.13,2.439,2.071,3.869,2.788l292.963,146.526L114.605,719.774l-73.698-24.561c-5.391-1.793-11.333-0.388-15.349,3.631
			l-21.14,21.215c-5.857,5.859-5.857,15.356,0,21.215l50.112,50.187l-29.872,35.664c-4.988,5.961-4.597,14.745,0.9,20.24
			l42.431,42.431c5.495,5.498,14.279,5.888,20.24,0.9l35.649-29.872l50.203,50.188c5.859,5.857,15.356,5.857,21.215,0l21.215-21.215
			c4.019-4.016,5.424-9.958,3.631-15.349l-24.561-73.698l416.489-348.927l153.323,306.766c2.156,4.314,6.253,7.328,11.013,8.102
			c0.794,0.125,1.597,0.19,2.401,0.195c3.979-0.001,7.795-1.582,10.608-4.396l21.215-21.215c3.534-3.535,5.076-8.599,4.111-13.503
			l-47.937-239.73l43.826-43.826c17.579-17.577,17.582-46.076,0.005-63.655c-0.002-0.002-0.004-0.004-0.005-0.005
			c-8.329-8.456-19.729-13.176-31.598-13.083c-12.004-0.107-23.549,4.606-32.048,13.083l-1.38,1.395l-7.202-36.009L874.289,232.032z
			 M502.962,136.549c5.856-5.863,15.356-5.868,21.219-0.012c0.004,0.004,0.008,0.008,0.012,0.012
			c2.859,2.856,4.416,6.763,4.306,10.803c0.033,3.911-1.521,7.668-4.306,10.413l-15.574,15.574l-35.364-7.082L502.962,136.549z
			 M199.466,143.045l0.825-0.825l341.08,68.252l-61.155,72.993L199.466,143.045z M36.166,730.666l4.051-4.051L93.885,744.5
			l-20,23.901L36.166,730.666z M79.436,858.873l-22.956-22.956L704.537,62.28c40.769-41.287,107.288-41.707,148.575-0.938
			c41.287,40.769,41.706,107.288,0.938,148.574L79.436,858.873z M188.679,875.137l-4.051,4.051l-37.674-37.719l23.886-20
			L188.679,875.137z M768.123,401.785c2.87-2.866,6.794-4.423,10.848-4.306c3.864,0.139,7.549,1.662,10.383,4.291
			c5.863,5.856,5.868,15.356,0.012,21.218c-0.004,0.004-0.008,0.008-0.012,0.012l-29.677,29.677l-7.022-35.364L768.123,401.785z
			 M783.682,725.73l-0.825,0.825L635.64,432.002l76.519-64.126L783.682,725.73z"/>
	</g>
</g>
<g>
</g>
<g>
</g>
<g>
</g>
<g>
</g>
<g>
</g>
<g>
</g>
<g>
</g>
<g>
</g>
<g>
</g>
<g>
</g>
<g>
</g>
<g>
</g>
<g>
</g>
<g>
</g>
<g>
</g>
</svg>
