<svg height="487pt" viewBox="0 -59 487.15889 487" width="487pt" xmlns="http://www.w3.org/2000/svg"><path d="m75.578125 8.078125v80h336v-80zm0 0" fill="#bddbff"/><path d="m163.578125 184.078125c-4.417969 0-8 3.582031-8 8v112c0 4.417969 3.582031 8 8 8h160c4.417969 0 8-3.582031 8-8v-112c0-4.417969-3.582031-8-8-8zm0 0" fill="#bddbff"/><g fill="#3d9ae2"><path d="m411.578125.078125h-336c-4.417969 0-8 3.582031-8 8v352c0 4.417969 3.582031 8 8 8h32c4.417969 0 8-3.582031 8-8v-264h256v264c0 4.417969 3.582031 8 8 8h32c4.417969 0 8-3.582031 8-8v-352c0-4.417969-3.582031-8-8-8zm-328 16h320v64h-320zm16 336h-16v-256h16zm304 0h-16v-256h16zm0 0"/><path d="m3.578125 216.078125h48v16h-48zm0 0"/><path d="m0 143.230469 7.15625-14.308594 47.996094 24-7.152344 14.308594zm0 0"/><path d="m.00390625 304.921875 47.99609375-24 7.15625 14.3125-48 23.996094zm0 0"/><path d="m435.578125 216.078125h48v16h-48zm0 0"/><path d="m432.003906 152.925781 47.996094-24 7.15625 14.308594-48 24zm0 0"/><path d="m432.003906 295.230469 7.15625-14.308594 48 24-7.15625 14.308594zm0 0"/><path d="m323.578125 176.078125h-40v-24c0-4.417969-3.582031-8-8-8h-64c-4.417969 0-8 3.582031-8 8v24h-40c-8.835937 0-16 7.164063-16 16v112c0 8.835937 7.164063 16 16 16h160c8.839844 0 16-7.164063 16-16v-112c0-8.835937-7.160156-16-16-16zm-104-16h48v16h-48zm-56 144v-112h160v112zm0 0"/><path d="m227.578125 40.078125h32v16h-32zm0 0"/><path d="m275.578125 40.078125h32v16h-32zm0 0"/><path d="m179.578125 40.078125h32v16h-32zm0 0"/></g></svg>