<svg height="483pt" viewBox="-1 0 483 483.5804" width="483pt" xmlns="http://www.w3.org/2000/svg"><path d="m8.289062 59.582031v80h464v-80zm0 0" fill="#bddbff"/><path d="m272.289062 267.582031h-64c-17.671874 0-32 14.324219-32 32v64h128v-64c0-17.675781-14.324218-32-32-32zm0 0" fill="#bddbff"/><path d="m200.289062 363.582031v112h80v-112zm0 0" fill="#bddbff"/><g fill="#3d9ae2"><path d="m472.289062 51.582031h-464c-4.417968 0-8 3.582031-8 8v416c0 4.417969 3.582032 8 8 8h32c4.417969 0 8-3.582031 8-8v-328h384v328c0 4.417969 3.582032 8 8 8h32c4.417969 0 8-3.582031 8-8v-416c0-4.417969-3.582031-8-8-8zm-456 16h448v64h-448zm16 400h-16v-320h16zm432 0h-16v-320h16zm0 0"/><path d="m232.289062 3.582031h16v32h-16zm0 0"/><path d="m289.136719 32 16-32 14.308593 7.15625-15.996093 32zm0 0"/><path d="m161.136719 7.15625 14.308593-7.15625 16 32-14.308593 7.15625zm0 0"/><path d="m224.289062 91.582031h32v16h-32zm0 0"/><path d="m272.289062 91.582031h32v16h-32zm0 0"/><path d="m176.289062 91.582031h32v16h-32zm0 0"/><path d="m272.289062 259.582031h-.207031c5.292969-6.882812 8.179688-15.316406 8.207031-24v-16c0-22.09375-17.90625-40-40-40-22.089843 0-40 17.90625-40 40v16c.03125 8.683594 2.914063 17.117188 8.210938 24h-.210938c-22.078124.023438-39.972656 17.917969-40 40v64c0 4.417969 3.582032 8 8 8h16v104c0 4.417969 3.582032 8 8 8h80c4.417969 0 8-3.582031 8-8v-104h16c4.417969 0 8-3.582031 8-8v-64c-.023437-22.082031-17.917968-39.976562-40-40zm-56-24v-16c0-13.257812 10.746094-24 24-24 13.257813 0 24 10.742188 24 24v16c0 13.253907-10.742187 24-24 24-13.253906 0-24-10.746093-24-24zm56 232h-24v-64h-16v64h-24v-96h64zm24-112h-8v-56h-16v56h-64v-56h-16v56h-8v-56c0-13.257812 10.746094-24 24-24h64c13.257813 0 24 10.742188 24 24zm0 0"/></g></svg>