<svg height="512" viewBox="0 0 58 58" width="512" xmlns="http://www.w3.org/2000/svg"><g id="034---Important-Question-Sign" fill="none"><path id="Shape" d="m45 46c1.2125666.0010665 2.305263.7319802 2.7691479 1.8523059.4638849 1.1203258.2077333 2.4097468-.6491479 3.2676941-.8535092.7498767-2.0004464 1.0733718-3.12.88 1.6568542 0 3 1.3431458 3 3s-1.3431458 3-3 3h-11c-5.6 0-8.26-1.47-9.35-2.35-.5465154-.4304491-1.2243947-.6599395-1.92-.65h-6.73v-17h5.22c1.1319841-.0008472 2.2108251-.480332 2.97-1.32l4.4-4.89c2.1136624-2.3503151 5.3106412-3.4109061 8.41-2.79v5h8.83c1.6154481-.0345822 2.9884525 1.173314 3.16 2.78.0611263.8312934-.2263603 1.6505429-.7935419 2.2613539-.5671817.6108111-1.3629205.958112-2.1964581.9586461h.83c1.2379981-.0583853 2.385384.6475263 2.8914053 1.7788929.5060214 1.1313666.2673679 2.457206-.6014053 3.3411071-.8535092.7498767-2.0004464 1.0733718-3.12.88z" fill="#fdd7ad"/><path id="Shape" d="m37 35h-4c-.5522847 0-1-.4477153-1-1s.4477153-1 1-1h4c.5522847 0 1 .4477153 1 1s-.4477153 1-1 1z" fill="#f9c795"/><path id="Shape" d="m46.82 54h-4.82c-.5522847 0-1-.4477153-1-1s.4477153-1 1-1h2c1.2713341-.0061167 2.40537.798164 2.82 2z" fill="#f9c795"/><path id="Shape" d="m48.82 42h-5.82c-.5522847 0-1-.4477153-1-1s.4477153-1 1-1h2.83c1.313864-.0141355 2.5014752.7802534 2.99 2z" fill="#f9c795"/><path id="Shape" d="m47.82 48h-4.82c-.5522847 0-1-.4477153-1-1s.4477153-1 1-1h2c1.2713341-.0061167 2.40537.798164 2.82 2z" fill="#f9c795"/><path id="Rectangle-path" d="m36 21h6v13h-6z" fill="#a56a43"/><rect id="Rectangle-path" fill="#f29c1f" height="24" rx="2" width="38" x="20"/><path id="Shape" d="m1 36h12c1.1045695 0 2 .8954305 2 2v17c0 1.1045695-.8954305 2-2 2h-12c-.55228475 0-1-.4477153-1-1v-19c0-.5522847.44771525-1 1-1z" fill="#894b9d"/><path id="Shape" d="m3 36h8c1.1045695 0 2 .8954305 2 2v17c0 1.1045695-.8954305 2-2 2h-8c-.55228475 0-1-.4477153-1-1v-19c0-.5522847.44771525-1 1-1z" fill="#955ba5"/><g fill="#fff"><path id="Shape" d="m28 15c-.5522847 0-1-.4477153-1-1v-2c0-.5522847.4477153-1 1-1 1.1045695 0 2-.8954305 2-2s-.8954305-2-2-2-2 .8954305-2 2c0 .55228475-.4477153 1-1 1-2.092 0-.814-5 3-5 2.0157976-.00199231 3.7181133 1.49630873 3.9720803 3.49604492.253967 1.99973618-1.0197784 3.87599778-2.9720803 4.37795508v1.126c0 .5522847-.4477153 1-1 1z"/><circle id="Oval" cx="28" cy="18" r="1"/><circle id="Oval" cx="35" cy="18" r="1"/><path id="Shape" d="m35 15c-.5522847 0-1-.4477153-1-1v-8c0-.55228475.4477153-1 1-1s1 .44771525 1 1v8c0 .5522847-.4477153 1-1 1z"/><path id="Shape" d="m53 7h-13c-.5522847 0-1-.44771525-1-1s.4477153-1 1-1h13c.5522847 0 1 .44771525 1 1s-.4477153 1-1 1z"/><path id="Shape" d="m53 11h-13c-.5522847 0-1-.4477153-1-1 0-.55228475.4477153-1 1-1h13c.5522847 0 1 .44771525 1 1 0 .5522847-.4477153 1-1 1z"/><path id="Shape" d="m53 15h-13c-.5522847 0-1-.4477153-1-1s.4477153-1 1-1h13c.5522847 0 1 .4477153 1 1s-.4477153 1-1 1z"/><path id="Shape" d="m44 19h-4c-.5522847 0-1-.4477153-1-1s.4477153-1 1-1h4c.5522847 0 1 .4477153 1 1s-.4477153 1-1 1z"/></g></g></svg>