<?xml version="1.0" encoding="iso-8859-1"?>
<!-- Generator: Adobe Illustrator 19.0.0, SVG Export Plug-In . SVG Version: 6.00 Build 0)  -->
<svg version="1.1" id="Layer_1" xmlns="http://www.w3.org/2000/svg" xmlns:xlink="http://www.w3.org/1999/xlink" x="0px" y="0px"
	 viewBox="0 0 512.005 512.005" style="enable-background:new 0 0 512.005 512.005;" xml:space="preserve">
<rect x="12.656" y="351.75" style="fill:#FFD578;" width="126.116" height="117.118"/>
<rect x="42.754" y="401.94" style="fill:#3E3B43;" width="66.458" height="66.613"/>
<rect y="327.774" style="fill:#F7B737;" width="151.425" height="23.975"/>
<g>
	<path style="fill:#174F79;" d="M44.617,125.85L65.6,29.065c0.653-3.011,4.53-3.884,6.409-1.442l18.513,24.041
		c6.626,8.605,9.122,19.693,6.82,30.306l0,0c-2.231,10.291,4.302,20.442,14.594,22.674l35.829,7.768l28.456,75.468L44.617,125.85z"
		/>
	<path style="fill:#174F79;" d="M197.463,305.759l-6.452-4.266l-0.117,0.044l-7.358,2.621c-1.347-3.781,0.403-6.315,2.094-8.766
		c0.747-1.082,1.815-2.624,3.098-4.47c2.557-3.683,5.969-8.586,9.383-13.488c6.823-9.798,13.648-19.588,13.648-19.588
		c2.467-3.539,7.336-4.408,10.875-1.939c3.538,2.467,4.407,7.336,1.939,10.875C214.19,281.671,198.401,304.338,197.463,305.759z"/>
</g>
<path style="fill:#73AFD6;" d="M218.166,262.312l-85.671-18.573c-15.875-3.442-29.818-12.855-38.945-26.293l-50.792-77.258
	l45.72,9.912l348.386,75.531c18.271,3.961,31.041,19.507,32.285,37.262c0.471,6.724,5.219,12.372,11.807,13.8l0,0
	c10.825,2.348,17.763,13.125,15.415,23.951l-0.284,1.313c-2.348,10.825-13.125,17.763-23.951,15.415l-52.686-11.422l-25.616-5.553
	l-99.965-21.673L218.166,262.312z"/>
<g>
	<path style="fill:#D3EFFD;" d="M116.876,156.258l-95.988-20.81c-6.086-1.32-9.986-7.378-8.666-13.465l0,0
		c1.32-6.086,7.378-9.986,13.465-8.666l95.988,20.81c6.086,1.32,9.986,7.378,8.666,13.465l0,0
		C129.021,153.677,122.962,157.577,116.876,156.258z"/>
	<path style="fill:#D3EFFD;" d="M330.134,238.416l-134.258-29.107c-6.086-1.32-9.986-7.378-8.666-13.465l0,0
		c1.32-6.086,7.378-9.986,13.465-8.666l134.258,29.107c6.086,1.32,9.986,7.378,8.666,13.465l0,0
		C342.278,235.835,336.22,239.736,330.134,238.416z"/>
</g>
<path style="fill:#174F79;" d="M288.384,304.027l-41.954-9.095c-19.344-4.194-31.739-23.452-27.545-42.796l0,0
	c4.194-19.344,23.452-31.739,42.796-27.545l41.954,9.095L288.384,304.027z"/>
<g style="opacity:0.63;">
	
		<rect x="269.703" y="230.057" transform="matrix(-0.9773 -0.2119 0.2119 -0.9773 503.2123 586.0194)" style="fill:#73AFD6;" width="26.607" height="71.979"/>
</g>
<path style="fill:#D3EFFD;" d="M480.749,276.016c-6.588-1.428-11.336-7.076-11.807-13.8c-1.245-17.756-14.013-33.301-32.286-37.262
	l-16.287-3.531l-8.593,39.641L480.749,276.016z"/>
<rect y="452.651" style="fill:#5D5D5D;" width="512.005" height="33.146"/>
<g>
	<circle style="fill:#174F79;" cx="190.888" cy="301.539" r="20.352"/>
	<circle style="fill:#174F79;" cx="418.384" cy="331.399" r="20.352"/>
</g>
<g>
</g>
<g>
</g>
<g>
</g>
<g>
</g>
<g>
</g>
<g>
</g>
<g>
</g>
<g>
</g>
<g>
</g>
<g>
</g>
<g>
</g>
<g>
</g>
<g>
</g>
<g>
</g>
<g>
</g>
</svg>
