<svg height="512" viewBox="0 0 58 58" width="512" xmlns="http://www.w3.org/2000/svg"><g id="024---Aerial-Fire-Fighting" fill="none"><path id="Shape" d="m3.45 0h-1.3c-.29135576-.00287156-.56947414.12147363-.76161448.34051362-.19214034.21903998-.27919146.51098802-.23838552.79948638l1.85 12.86 4 2 6-2-8.7-13.54c-.18550587-.28916279-.50646049-.46285588-.85-.46z" fill="#c03a2b"/><path id="Shape" d="m25.91 36.71c.9109032-.9861561 1.2663648-2.363497.9464501-3.6673003s-1.2725382-2.3601788-2.5364501-2.8126997c.2533045-.3749863.4394146-.7911963.55-1.23l-.87-5-10 .37c-.9534015 1.1010038-1.2330269 2.6331981-.73 4-1.7285469.8327434-2.6223261 2.7755591-2.13 4.63-1.88300726-.2221415-3.74735674.5430772-4.93132304 2.0240522-1.18396629 1.480975-1.51994194 3.468053-.88867696 5.2559478-.85787465.8503064-1.33418093 2.012205-1.32 3.22-.00490283.0899332-.00490283.1800668 0 .27-.00487601.0765891-.00487601.1534109 0 .23.14825676 1.4618916 1.00706001 2.756957 2.29603695 3.4623971 1.28897693.7054401 2.84271368.7307261 4.15396305.0676029.6421069 1.3056411 1.8807211 2.2159931 3.318516 2.4390306 1.437795.2230374 2.8939981-.269282 3.901484-1.3190306 1.3191699.6058841 2.8501408.5350291 4.1077095-.1901093s2.0858313-2.0146628 2.2222905-3.4598907c1.9240877-.1791288 3.5164871-1.5718042 3.9503438-3.4548786.4338567-1.8830743-.388614-3.8321311-2.0403438-4.8351214z" fill="#b0d3f0"/><g fill="#90bae1"><path id="Shape" d="m9 39.5c-1.77 0-1.12-3.5 1.57-3.5.5522847 0 1 .4477153 1 1s-.4477153 1-1 1c-.142933-.0138902-.2852469.0319476-.3932043.1266471s-.1719457.2298285-.1767957.3733529c0 .5522847-.44771525 1-1 1z"/><path id="Shape" d="m15 33.52c-1.63 0-1.2-3 1-3 .5522847 0 1 .4477153 1 1s-.4477153 1-1 1c0 .5522847-.4477153 1-1 1z"/><path id="Shape" d="m22 36.17c-.4218892.0008262-.798913-.2632114-.9423708-.659962-.1434579-.3967506-.0224853-.8408546.3023708-1.110038.1026355-.0997884.1605409-.2368505.1605409-.38s-.0579054-.2802116-.1605409-.38c-.1712242-.2028225-.2547874-.4653978-.2322787-.7298748s.1492423-.5091546.3522787-.6801252c1.37-1.14 3.13 2 1.15 3.7-.1758901.1505097-.3985508.2353329-.63.24z"/></g><path id="Shape" d="m55.08 25h-37c-2.0453341.001018-4.0660508-.4461338-5.92-1.31l-11.58-5.42c-.35445423-.1640391-.58096646-.519429-.58-.91v-2c0 .39.23-1.25.58-1.09l11.61 5.42c1.8539492.8638662 3.8746659 1.311018 5.92 1.31h37c1.27 0 2.36 1.19 2.76 0 .3224736.9118417.1855534 1.9232227-.3677582 2.7165011-.5533117.7932784-1.455137 1.2711381-2.4222418 1.2834989z" fill="#c03a2b"/><path id="Shape" d="m58 42.11v1.89c0 4.94-10.09 5.16-11.74 1.29-.33-.73-.26-1.25-.26-3.21-.0029913-.1930506.1054341-.3705723.2785498-.4560616.1731158-.0854892.3799825-.0636673.5314502.0560616.4658309.3723614 1.0436439.5767099 1.64.58 1.64 0 1.1-1.74.55-2.73-1.74-3.19 1.12-3.58 2.62-5.37.0908858-.1177688.2312394-.1867424.38-.1867424s.2891142.0689736.38.1867424c1.5 1.79 4.36 2.18 2.62 5.37-.55 1-1.09 2.73.55 2.73.5963561-.0032901 1.1741691-.2076386 1.64-.58.1557033-.1240199.3701402-.1438666.5459603-.05053.1758202.0933367.2795271.2820744.2640397.48053z" fill="#f0c419"/><path id="Shape" d="m35 48.13v1.92c-.041963 1.4978955-1.017412 2.8091548-2.44 3.28l-3-2.14c-.3605969-.2510875-.8394031-.2510875-1.2 0l-3 2.14c-1.3910643-.4977053-2.3301543-1.8028812-2.36-3.28v-1.92c-.0029913-.1930506.1054341-.3705723.2785498-.4560616.1731158-.0854892.3799825-.0636673.5314502.0560616.4658309.3723614 1.0436439.5767099 1.64.58 1.64 0 1.1-1.74.55-2.74-1.75-3.19 1.13-3.6 2.62-5.38.0908858-.1177688.2312394-.1867424.38-.1867424s.2891142.0689736.38.1867424c1.48 1.81 4.37 2.19 2.62 5.38-.55 1-1.09 2.74.55 2.74.5963561-.0032901 1.1741691-.2076386 1.64-.58.1514677-.1197289.3583344-.1415508.5314502-.0560616.1731157.0854893.2815411.263011.2785498.4560616z" fill="#f29c1f"/><path id="Shape" d="m57.84 21c-.3950941 1.1901583-1.5059854 1.995152-2.76 2h-37c-2.0453341.001018-4.0660508-.4461338-5.92-1.31l-11.58-5.42c-.35445423-.1640391-.58096646-.519429-.58-.91v-.36c0-.5522847.44771525-1 1-1h43v3c0 1.1045695.8954305 2 2 2h9c1.2755939-.0049174 2.4148083.7973462 2.84 2z" fill="#e64c3c"/><path id="Shape" d="m53.17 19h-7.17c-1.1045695 0-2-.8954305-2-2v-2z" fill="#e64c3c"/><path id="Shape" d="m37 26c0 1.6568542-1.3431458 3-3 3h-12c-.5522847 0-1-.4477153-1-1v-4c0-.5522847.4477153-1 1-1h12c1.6568542 0 3 1.3431458 3 3z" fill="#e64c3c"/><path id="Shape" d="m36.82 25c-.4227483 1.1957287-1.5517451 1.9964356-2.82 2h-12c-.5522847 0-1-.4477153-1-1v-2c0-.5522847.4477153-1 1-1h12c1.2682549.0035644 2.3972517.8042713 2.82 2z" fill="#c03a2b"/><path id="Shape" d="m34 23c-8.42-5.27-7.88-5-8.29-5h-4.83c-.1812328-.0010592-.34885.0960356-.4380968.2537742s-.086149.3514221.0080968.5062258l2.55 4.24z" fill="#802f34"/><path id="Shape" d="m55 19h-9c-1.1045695 0-2-.8954305-2-2v-3h3.94c2.4527051.0000807 4.6584113 1.4929914 5.57 3.77l.12.3c.2243028.5603591.7664179.9283642 1.37.93z" fill="#2c3e50"/><path id="Shape" d="m20.56 58h-20c-.21919.0171581-.42386905-.1108796-.5043327-.3154871-.08046365-.2046076-.01782907-.4377687.1543327-.5745129l6.79-5.11h8l6 4.53-.8.58c-.1938182.1287879-.2703216.3761308-.1830618.5918564.0872598.2157257.3142109.3403229.5430618.2981436z" fill="#4c8056"/><path id="Shape" d="m19.21 52h-16.42c-.2245392.0290055-.43971463-.0995996-.52051131-.3110968s-.00617467-.4508114.18051131-.5789032l8-5.92c.3471643-.247178.8128357-.247178 1.16 0l8 5.92c.2200989.124704.3090895.3964576.2053867.6271963-.1037027.2307386-.3660067.3446071-.6053867.2628037z" fill="#71c285"/><path id="Shape" d="m57.45 58h-20.9c-.21919.0171581-.423869-.1108796-.5043327-.3154871-.0804637-.2046076-.0178291-.4377687.1543327-.5745129l6.8-5.11h8l6.8 5.11c.1721618.1367442.2347964.3699053.1543327.5745129-.0804637.2046075-.2851427.3326452-.5043327.3154871z" fill="#4c8056"/><path id="Shape" d="m55.21 52h-16.42c-.2245392.0290055-.4397146-.0995996-.5205113-.3110968s-.0061747-.4508114.1805113-.5789032c8-5.82 7.71-5.74 7.81-5.79.74 1.68 2.83 2.52 5.08 2.68l4.21 3.13c.1660344.1342382.2260332.3605342.1483158.5593993s-.2752577.3245136-.4883158.3106007z" fill="#71c285"/><path id="Shape" d="m36.55 58h-16c-.2245392.0290055-.4397146-.0995996-.5205113-.3110968s-.0061747-.4508114.1805113-.5789032c3.62-2.56 7.44-5.4 8.18-5.92.3605969-.2510875.8394031-.2510875 1.2 0 3.74 2.65 2.08 1.5 7.38 5.34l-.78.58c-.1744876.1376666-.2371564.3739869-.1538147.5800262s.2926855.332332.5138147.3099738z" fill="#71c285"/><path id="Shape" d="m40 20h-6c-.5522847 0-1-.4477153-1-1s.4477153-1 1-1h6c.5522847 0 1 .4477153 1 1s-.4477153 1-1 1z" fill="#f0c419"/><path id="Shape" d="m16 20h-5c-.5522847 0-1-.4477153-1-1s.4477153-1 1-1h5c.5522847 0 1 .4477153 1 1s-.4477153 1-1 1z" fill="#f0c419"/></g></svg>