<?xml version="1.0" encoding="UTF-8"?>
<svg version="1.1" viewBox="0 0 400 400" xmlns="http://www.w3.org/2000/svg">
<g fill-rule="evenodd">
<path d="m309.27 55.132c-0.612 0.087-0.856 0.326-0.712 0.7 0.427 1.113-0.205 1.823-1.509 1.693-0.686-0.069-1.25 0.055-1.253 0.275-0.014 0.8-0.588 1.269-2.199 1.801-0.905 0.299-1.82 0.871-2.035 1.271-0.214 0.4-0.653 0.728-0.975 0.728s-0.586 0.18-0.586 0.4-0.281 0.4-0.624 0.4-0.512 0.18-0.376 0.4 0.01 0.4-0.28 0.4-0.752 0.36-1.027 0.8-0.768 0.8-1.096 0.8c-0.329 0-0.597 0.191-0.597 0.424s-0.153 0.329-0.34 0.213c-0.187-0.115-0.57 0.22-0.851 0.746s-0.946 1.065-1.477 1.198c-0.53 0.133-0.865 0.404-0.743 0.602 0.123 0.198-0.14 0.474-0.583 0.615s-0.806 0.424-0.806 0.629-0.135 0.328-0.3 0.273-0.385 0.08-0.489 0.3c-0.203 0.428-1.803 1.671-3.911 3.037-0.715 0.463-1.3 1.004-1.3 1.203 0 0.198-0.184 0.36-0.41 0.36-0.225 0-1.51 1.08-2.855 2.4-1.344 1.32-2.6 2.4-2.79 2.4-0.605 0-0.85 0.17-2.312 1.611-0.788 0.776-2.243 2.06-3.233 2.852-0.99 0.793-2.424 1.99-3.186 2.66-0.763 0.669-1.532 1.128-1.71 1.018s-0.274-0.027-0.214 0.186c0.113 0.396-0.922 1.412-2.519 2.473-0.496 0.33-1.551 1.232-2.342 2.005-0.792 0.773-2.067 1.845-2.834 2.381-0.767 0.537-1.683 1.296-2.036 1.688-0.352 0.391-0.757 0.595-0.9 0.452-0.142-0.143-0.259 0.029-0.259 0.38 0 0.352-0.334 0.746-0.742 0.876-0.408 0.129-1.263 0.766-1.9 1.415-0.637 0.65-1.34 1.186-1.562 1.192s-0.628 0.371-0.903 0.811-0.651 0.8-0.837 0.8c-0.185 0-1.489 1.076-2.897 2.392-1.407 1.315-2.708 2.395-2.89 2.4-0.183 4e-3 -1.023 0.728-1.869 1.608s-1.643 1.6-1.772 1.6c-0.2 0-1.443 1.017-3.184 2.605-0.244 0.223-2.243 1.843-4.442 3.6s-4.899 4.046-6 5.087-2.136 1.896-2.3 1.9-1.217 0.908-2.341 2.008c-1.123 1.1-2.196 2-2.383 2-0.188 0-0.76 0.405-1.272 0.9-0.87 0.842-1.504 1.365-4.729 3.9-0.7 0.55-1.693 1.405-2.206 1.9-0.514 0.495-1.045 0.9-1.179 0.9s-1.115 0.894-2.18 1.987c-1.064 1.093-2.162 2.038-2.439 2.1s-1.57 1.148-2.873 2.413-2.552 2.3-2.774 2.3c-0.223 0-0.882 0.496-1.466 1.101-0.583 0.606-1.78 1.634-2.66 2.286-0.88 0.651-1.802 1.38-2.049 1.619-0.248 0.24-1.218 1.056-2.156 1.815-0.938 0.758-2.268 1.919-2.956 2.579-0.687 0.66-1.927 1.707-2.754 2.327s-1.941 1.565-2.476 2.1-1.171 0.973-1.414 0.973-0.331 0.18-0.195 0.4 0.012 0.402-0.276 0.404c-0.288 3e-3 -1.352 0.768-2.364 1.7-1.012 0.933-2.336 2.056-2.943 2.496-0.608 0.44-1.799 1.43-2.648 2.2-2.25 2.041-2.769 2.457-2.769 2.219 0-0.116-0.495 0.296-1.1 0.917-0.605 0.622-1.817 1.61-2.693 2.197s-1.447 1.067-1.269 1.067-0.275 0.491-1.007 1.092-1.622 1.411-1.978 1.8-0.774 0.708-0.928 0.708c-0.514 0-1.392 1.1-1.106 1.386 0.155 0.154 0.078 0.221-0.17 0.147-0.247-0.073-0.967 0.323-1.6 0.881-0.632 0.558-1.297 1.04-1.478 1.072s-0.811 0.524-1.4 1.093c-2.622 2.536-4.226 3.821-4.77 3.821-0.326 0-0.495 0.238-0.381 0.536 0.113 0.295 0.026 0.79-0.195 1.1-0.305 0.43-0.344 0.374-0.162-0.236 0.221-0.74 0.199-0.748-0.302-0.106-0.297 0.381-0.645 0.589-0.773 0.46-0.129-0.128-0.14 0.19-0.026 0.706 0.151 0.686 0.102 0.791-0.183 0.389-0.434-0.614-1.435-0.226-1.045 0.405 0.138 0.224-0.078 0.344-0.49 0.273-0.457-0.079-0.888 0.215-1.135 0.773-0.219 0.495-0.581 0.907-0.804 0.916-0.223 8e-3 0.201 0.278 0.941 0.6 1.032 0.448 3.211 0.584 9.343 0.584 6.621 0 7.96 0.095 7.786 0.55-0.144 0.373 0.1 0.55 0.757 0.55 1.071 0 1.212-0.296 0.488-1.02-0.264-0.264-0.354-0.502-0.2-0.53 0.154-0.027 0.415-0.075 0.58-0.106s0.513-0.191 0.772-0.357c0.26-0.165 0.603-0.089 0.762 0.168 0.171 0.276 0.117 0.362-0.13 0.209-0.231-0.143-0.525 0.014-0.653 0.348-0.354 0.922 1.039 0.071 2.261-1.381 0.55-0.653 1.079-1.107 1.177-1.009s0.208-0.092 0.244-0.422c0.037-0.33 0.097-0.84 0.134-1.133 0.072-0.579 1.133-0.755 1.133-0.188 0 0.446 2.279-1.162 3.654-2.579 0.587-0.605 1.234-1.1 1.439-1.1 0.204 0 0.609-0.444 0.9-0.986 0.29-0.543 0.654-0.908 0.809-0.813 0.155 0.096 0.983-0.537 1.84-1.407 0.857-0.869 1.738-1.588 1.958-1.598s1.3-0.821 2.4-1.803 2.146-1.787 2.324-1.789 0.236-0.146 0.128-0.319c-0.107-0.173 0.334-0.549 0.979-0.835 0.645-0.285 1.072-0.684 0.948-0.885-0.125-0.201-0.062-0.365 0.139-0.365s0.841-0.441 1.424-0.981c0.582-0.539 1.058-0.901 1.058-0.804 0 0.217 1.084-0.675 3.538-2.911 1.024-0.932 1.99-1.697 2.147-1.7 0.156-2e-3 0.966-0.685 1.8-1.518 0.833-0.833 2.145-1.955 2.915-2.493 0.77-0.539 1.951-1.523 2.625-2.186 0.674-0.664 1.731-1.567 2.349-2.007s1.417-1.091 1.775-1.447 1.731-1.517 3.051-2.58c1.32-1.062 2.596-2.121 2.837-2.352 0.24-0.232 1.03-0.871 1.756-1.421s1.907-1.585 2.624-2.3 1.423-1.3 1.569-1.3 1.143-0.9 2.214-2 2.117-2 2.324-2c0.323 0 3.318-2.428 6.39-5.181 0.503-0.45 0.99-0.819 1.082-0.819s0.598-0.405 1.123-0.9c1.525-1.436 5.174-4.572 6.481-5.569 0.66-0.503 1.861-1.593 2.669-2.423 0.807-0.829 1.643-1.508 1.856-1.508 0.214 0 1.263-0.776 2.332-1.725s2.323-1.984 2.787-2.3c0.952-0.648 5.136-4.304 7.181-6.275 0.741-0.715 1.515-1.3 1.719-1.3s0.484-0.296 0.623-0.657c0.138-0.362 0.355-0.555 0.48-0.429 0.126 0.125 1.205-0.749 2.399-1.943s2.318-2.171 2.498-2.171c0.179 0 1.301-0.894 2.491-1.986 1.191-1.092 2.288-1.992 2.438-2 0.151-8e-3 1.198-0.914 2.327-2.014s2.206-2 2.392-2c0.187 0 0.954-0.585 1.705-1.3 2.041-1.942 3.869-3.5 4.107-3.5 0.115 0 0.811-0.585 1.546-1.3 1.893-1.843 3.85-3.52 3.85-3.3 0 0.102 0.836-0.615 1.858-1.594 1.023-0.98 2.04-1.669 2.262-1.532 0.229 0.142 0.28 0.05 0.118-0.212-0.157-0.254-0.126-0.462 0.068-0.462s1.06-0.715 1.924-1.588c0.863-0.873 2.063-1.794 2.665-2.046 0.602-0.253 0.996-0.618 0.876-0.812-0.12-0.195-0.053-0.354 0.149-0.354 0.203 0 1.002-0.585 1.777-1.3 1.823-1.682 3.065-2.7 3.295-2.7 0.195 0 1.816-1.438 5.05-4.48 1.098-1.034 2.124-1.912 2.278-1.951 0.938-0.238 1.28-0.526 1.28-1.078 0-0.344 0.11-0.514 0.245-0.38 0.134 0.135 1.033-0.555 1.997-1.533 0.965-0.978 1.889-1.778 2.056-1.778 0.166 0 1.644-1.265 3.285-2.811s3.216-2.722 3.5-2.612c0.47 0.18 0.563 0.013 0.493-0.877-0.013-0.165 0.379-0.395 0.871-0.511 1.132-0.267 1.426-1.068 0.475-1.294-0.666-0.158-0.66-0.197 0.078-0.504 0.44-0.183 0.935-0.526 1.1-0.762 0.202-0.289 0.442-0.234 0.738 0.171 0.366 0.502 0.399 0.48 0.201-0.13-0.294-0.906 0.88-2.249 1.329-1.521 0.333 0.538 1.632 0.187 1.632-0.441 0-0.244-0.226-0.218-0.568 0.065-0.444 0.369-0.641 0.339-0.907-0.135-0.32-0.573-14.957-1.145-18.056-0.706m49.462 0.35c-0.22 0.266-0.306 0.634-0.192 0.82 0.365 0.59-0.378 1.335-1.069 1.07-0.366-0.141-0.549-0.445-0.406-0.676 0.157-0.253 0.066-0.3-0.228-0.118-0.365 0.225-0.305 0.508 0.238 1.12 0.709 0.8 0.707 0.808-0.121 0.374-0.956-0.501-1.403-0.267-1.083 0.567 0.193 0.503-0.301 0.752-1.191 0.601-0.486-0.082-1.338 0.887-1.653 1.879-0.154 0.484-0.478 0.881-0.72 0.881-0.241 0-0.329 0.11-0.195 0.244 0.285 0.285-1.575 1.897-2.636 2.285-0.399 0.146-0.626 0.426-0.505 0.623 0.122 0.196-0.045 0.578-0.37 0.848s-0.494 0.648-0.375 0.841c0.119 0.192-0.02 0.259-0.31 0.148-0.311-0.12-0.839 0.379-1.292 1.221-0.422 0.783-1.597 2.303-2.612 3.379-1.016 1.075-2.095 2.421-2.4 2.991-0.359 0.67-0.655 0.873-0.839 0.575-0.184-0.297-0.381-0.158-0.555 0.392-0.149 0.469-0.439 0.853-0.644 0.853s-0.328 0.154-0.273 0.342-0.674 1.133-1.619 2.1c-1.868 1.91-1.884 1.928-4.493 5.158-0.977 1.21-1.959 2.332-2.183 2.494-0.223 0.162-0.284 0.297-0.136 0.3 0.147 3e-3 -0.438 0.719-1.3 1.59-0.863 0.872-1.569 1.777-1.569 2.011s-0.765 1.207-1.7 2.16c-1.888 1.926-4.983 5.503-5.886 6.802-0.322 0.464-0.997 1.291-1.5 1.839-0.502 0.548-0.914 1.133-0.914 1.3s-0.27 0.304-0.6 0.304-0.6 0.135-0.6 0.3c-1e-3 0.165-0.406 0.781-0.9 1.369-0.495 0.587-1.98 2.453-3.3 4.145-1.32 1.693-3.165 3.862-4.1 4.821s-1.7 1.845-1.7 1.968-0.635 0.893-1.412 1.71c-2.43 2.559-2.588 2.746-2.588 3.06 0 0.168-0.54 0.81-1.2 1.427s-1.2 1.279-1.2 1.472c0 0.192-0.315 0.634-0.7 0.981s-2.13 2.367-3.878 4.489c-1.747 2.122-3.322 3.858-3.5 3.858-0.177 0-0.322 0.252-0.322 0.559 0 0.308-0.9 1.479-2 2.602-1.1 1.124-2 2.222-2 2.441s-0.18 0.398-0.4 0.398-0.4 0.189-0.4 0.419c0 0.231-0.9 1.319-2 2.419s-2 2.172-2 2.381c0 0.21-0.18 0.381-0.4 0.381s-0.4 0.172-0.4 0.382-0.405 0.796-0.9 1.303c-0.495 0.506-1.44 1.626-2.1 2.487s-1.78 2.175-2.49 2.92c-0.709 0.746-1.695 1.93-2.191 2.632s-1.266 1.65-1.71 2.107c-0.445 0.457-1.259 1.431-1.809 2.165-0.55 0.735-1.765 2.138-2.7 3.12-0.935 0.981-1.7 1.94-1.7 2.131 0 0.19-0.36 0.571-0.8 0.846s-0.8 0.705-0.8 0.957-0.45 0.753-1 1.113c-0.55 0.361-1 0.877-1 1.147 0 0.271-0.9 1.446-2 2.612-1.1 1.165-2 2.273-2 2.462s-1.08 1.485-2.399 2.88c-1.32 1.395-2.4 2.749-2.4 3.009-1e-3 0.26-0.361 0.587-0.801 0.727s-0.8 0.429-0.8 0.644c0 0.214-0.354 0.769-0.786 1.233-0.433 0.464-0.689 1.001-0.57 1.193 0.118 0.193 0 0.3-0.264 0.24-0.264-0.061-0.571 0.14-0.682 0.446-0.117 0.322-0.024 0.445 0.222 0.293 0.234-0.144 0.531-0.09 0.661 0.119 0.135 0.22-0.193 0.304-0.773 0.199-0.554-0.1-1.008-0.035-1.008 0.144 0 0.18-0.609 0.945-1.353 1.699s-1.265 1.6-1.157 1.88c0.112 0.291-0.099 0.51-0.49 0.51-0.445 0-0.605 0.21-0.455 0.6 0.126 0.33 0.015 0.6-0.247 0.6-1.166 0-3.222 2.982-2.222 3.223 0.739 0.178 0.964 0.031 1.124-0.735l0.2-0.958 7.583 0.051c4.17 0.028 7.667 0.136 7.77 0.239s0.617-0.216 1.142-0.709l0.954-0.897-0.198 1.093c-0.109 0.601-0.022 1.093 0.193 1.093s0.362-0.225 0.326-0.5c-0.144-1.108 0.066-1.5 0.803-1.5 0.425 0 0.882-0.343 1.015-0.763s0.503-0.863 0.82-0.985c0.328-0.126 0.475-0.49 0.341-0.841-0.172-0.449-0.06-0.552 0.406-0.373 0.355 0.136 0.645 0.057 0.645-0.176s0.658-1.062 1.461-1.843c0.804-0.78 1.345-1.419 1.201-1.419-0.143 0 0.38-0.675 1.162-1.5s2.176-2.49 3.098-3.7c0.923-1.21 2.173-2.677 2.778-3.26 0.605-0.584 1.1-1.194 1.1-1.357s0.54-0.812 1.2-1.443 1.2-1.233 1.2-1.339c0-0.275 1.116-1.598 3.3-3.912 1.045-1.108 1.9-2.152 1.9-2.32 0-0.169 1.076-1.446 2.39-2.838 1.315-1.392 2.395-2.685 2.4-2.873 0.017-0.569 1.903-2.632 2.166-2.369 0.134 0.134 0.244-0.016 0.244-0.334s0.36-0.838 0.8-1.155 0.8-0.725 0.8-0.907 0.81-1.152 1.8-2.157c0.99-1.004 1.8-1.963 1.8-2.13 0-0.168 0.734-1.093 1.63-2.055 0.897-0.963 2.112-2.38 2.7-3.148 0.589-0.769 1.43-1.79 1.87-2.27 0.44-0.479 1.34-1.55 2-2.38 0.66-0.829 1.785-2.121 2.5-2.87 0.715-0.75 1.3-1.491 1.3-1.648 0-0.156 0.315-0.633 0.7-1.06 0.386-0.426 1.212-1.405 1.837-2.175s2.007-2.39 3.071-3.6c3.897-4.433 5.473-6.299 6.616-7.832 0.642-0.863 1.448-1.838 1.791-2.168 0.342-0.33 1.055-1.217 1.582-1.971 0.868-1.242 2.634-3.316 4.503-5.29 0.385-0.406 0.622-0.739 0.527-0.739s0.625-0.833 1.6-1.85c0.975-1.018 1.773-1.999 1.773-2.182 0-0.182 0.405-0.749 0.9-1.26 1.319-1.36 3.503-3.888 5.1-5.904 0.77-0.972 1.715-2.091 2.1-2.486s0.7-0.835 0.7-0.978 0.89-1.113 1.977-2.156c1.088-1.043 1.905-1.968 1.817-2.057-0.481-0.481 4.196-4.814 4.879-4.52 0.4 0.173 0.92 0.356 1.157 0.408 1.522 0.332 6.17 1.987 6.17 2.197 0 0.14 0.403 0.225 0.896 0.188 0.492-0.036 1.112 0.151 1.377 0.416s0.969 0.389 1.564 0.275c0.644-0.123 0.985-0.05 0.842 0.181-0.131 0.213 0.697 0.615 1.841 0.895 2.84 0.693 4.805 1.334 5.26 1.715 0.209 0.175 0.783 0.318 1.276 0.318s1.008 0.18 1.144 0.4 0.687 0.4 1.224 0.4 0.976 0.18 0.976 0.4 0.54 0.4 1.2 0.4 1.2 0.18 1.2 0.4 0.45 0.4 1 0.4 1 0.142 1 0.315 0.582 0.359 1.293 0.413c0.712 0.055 1.468 0.273 1.68 0.485 0.491 0.491 3.543 0.507 4.047 0.02 0.209-0.201 0.723-0.426 1.142-0.5 0.864-0.151 11.438-10.402 11.438-11.088 0-0.245 0.191-0.445 0.424-0.445s0.312-0.18 0.176-0.4-0.038-0.4 0.217-0.4c0.669 0 0.36-6.874-0.318-7.1-0.275-0.092-0.499-0.312-0.499-0.489 0-0.455-7.581-7.897-7.811-7.667-0.104 0.104-0.189-0.121-0.189-0.501s-0.18-0.579-0.4-0.443-0.4-0.033-0.4-0.376-0.174-0.624-0.387-0.624c-0.212 0-1.016-0.63-1.786-1.4s-1.58-1.4-1.8-1.4c-0.219 0-0.592-0.36-0.827-0.8s-0.31-0.8-0.165-0.8 0.041-0.268-0.231-0.596c-0.272-0.327-0.654-0.497-0.849-0.376s-0.369-0.106-0.387-0.504c-0.017-0.398-0.116-0.517-0.219-0.264-0.111 0.269-0.761-0.13-1.569-0.962-0.759-0.781-1.38-1.219-1.38-0.972s-0.27 0.345-0.6 0.219c-0.33-0.127-0.6-0.402-0.6-0.611 0-0.21 0.168-0.278 0.372-0.151 0.205 0.126 0.486 0.047 0.624-0.176 0.358-0.579-0.73-0.505-1.375 0.093-0.431 0.4-0.482 0.4-0.256 0 0.173-0.307 0.041-0.5-0.341-0.5-0.343 0-0.624-0.167-0.624-0.371 0-0.205-0.283-0.655-0.629-1-0.874-0.875-0.234-0.782 1.429 0.206l1.4 0.831-1.095-1.044-1.095-1.045-9.239-0.089c-6.817-0.065-9.344 0.038-9.64 0.394m-300.59 9.411c-0.108 0.176-0.354 0.223-0.545 0.105-0.192-0.118-0.809 0.282-1.373 0.889-0.563 0.608-1.024 0.917-1.024 0.688 0-0.633-9.726 9.087-10.749 10.742-0.851 1.377-1.246 7.083-0.49 7.083 0.131 0 0.225 0.724 0.208 1.608-0.018 0.921 0.206 1.805 0.525 2.07 0.337 0.28 0.515 1.051 0.449 1.952-0.059 0.82 0.11 1.752 0.375 2.072 0.266 0.319 0.462 1.012 0.436 1.539-0.026 0.528 0.088 1.679 0.252 2.559 0.165 0.88 0.321 2.05 0.347 2.6s0.164 1.09 0.308 1.2 0.312 0.92 0.374 1.8c0.063 0.88 0.25 1.786 0.417 2.013 0.166 0.228 0.346 1.263 0.4 2.3 0.054 1.038 0.224 1.887 0.379 1.887 0.31 0 0.655 1.786 1.024 5.3 0.133 1.265 0.4 2.3 0.593 2.3 0.194 0 0.352 0.774 0.352 1.72s0.166 1.891 0.368 2.1c0.203 0.209 0.419 1.19 0.481 2.18 0.061 0.99 0.245 1.894 0.408 2.009s0.341 1.06 0.395 2.1c0.053 1.04 0.244 1.891 0.423 1.891s0.325 0.799 0.325 1.776 0.18 1.888 0.4 2.024 0.4 1.036 0.4 2 0.18 1.864 0.4 2 0.4 1.047 0.4 2.024 0.18 1.776 0.4 1.776 0.4 0.799 0.4 1.776 0.18 1.888 0.4 2.024 0.4 1.036 0.4 2 0.18 1.864 0.4 2 0.4 1.137 0.4 2.224 0.18 1.976 0.4 1.976 0.4 0.799 0.4 1.776 0.18 1.888 0.4 2.024 0.4 1.036 0.4 2 0.18 1.864 0.4 2 0.4 1.032 0.4 1.99c0 0.959 0.161 1.803 0.357 1.877 0.196 0.073 0.471 1.428 0.612 3.01 0.141 1.583 0.5 3.689 0.798 4.679 0.298 0.991 0.46 1.884 0.359 1.985s0.102 1.024 0.451 2.051c0.348 1.027 0.534 2.029 0.412 2.226-0.122 0.198 0.023 0.769 0.322 1.271 0.3 0.501 0.514 1.541 0.477 2.311-0.038 0.77 0.08 1.592 0.26 1.827 0.18 0.234 0.372 0.999 0.425 1.7 0.054 0.7 0.284 1.273 0.512 1.273s0.441 0.45 0.473 1c0.031 0.55-0.114 1-0.324 1s-0.246-0.225-0.081-0.5c0.207-0.344 0.091-0.33-0.372 0.045-0.37 0.3-0.6 0.662-0.512 0.805 0.088 0.142-0.118 0.617-0.458 1.054-0.573 0.738-0.599 0.741-0.356 0.039 0.226-0.65 0.175-0.683-0.364-0.235-0.345 0.286-0.538 0.752-0.43 1.036 0.132 0.341-0.021 0.431-0.451 0.266-0.491-0.188-0.585-0.081-0.384 0.441 0.159 0.414 0.105 0.592-0.134 0.444-0.454-0.281-1.592 0.719-1.592 1.4 0 0.249-0.208 0.324-0.462 0.167-0.286-0.177-0.353-0.11-0.176 0.177 0.352 0.569 1.179 0.165 2.866-1.4 1.312-1.218 2.172-1.589 2.172-0.939 0 0.712 13.538 0.519 14.261-0.204 0.332-0.332 0.753-0.511 0.936-0.398 0.579 0.358 0.173-1.043-0.425-1.468-0.459-0.326-0.434-0.361 0.128-0.18 0.78 0.251 1.048-1.488 0.3-1.95-0.22-0.136-0.4-1.041-0.4-2.011 0-1.308-0.138-1.711-0.535-1.559-0.414 0.159-0.496-0.237-0.362-1.766 0.102-1.177-5e-3 -2.08-0.266-2.241-0.24-0.149-0.437-1.16-0.437-2.247s-0.18-1.976-0.4-1.976-0.4-0.9-0.4-2-0.155-2-0.344-2c-0.291 0-0.624-1.959-0.986-5.8-0.041-0.44-0.192-0.98-0.334-1.2s-0.389-1.3-0.548-2.4-0.387-2.166-0.505-2.369c-0.119-0.203-0.26-0.833-0.313-1.4-0.128-1.356-0.822-5.324-1.37-7.831-0.787-3.602-1.237-5.974-1.443-7.6-0.111-0.88-0.361-1.96-0.555-2.4s-0.444-1.43-0.555-2.2-0.406-2.3-0.654-3.4-0.545-2.81-0.661-3.8c-0.115-0.99-0.372-1.971-0.571-2.18-0.198-0.209-0.361-0.986-0.361-1.726 0-0.741-0.17-1.665-0.378-2.053-0.208-0.389-0.422-1.547-0.475-2.574s-0.243-1.867-0.422-1.867-0.325-0.709-0.325-1.576-0.18-1.688-0.4-1.824-0.4-1.137-0.4-2.224-0.162-1.976-0.36-1.976-0.462-0.765-0.587-1.7-0.334-2.51-0.463-3.5-0.396-2.16-0.593-2.6c-0.391-0.873-0.767-2.939-1.076-5.9-0.109-1.045-0.361-1.9-0.56-1.9-0.198 0-0.361-0.9-0.361-2s-0.18-2-0.4-2-0.4-0.81-0.4-1.8-0.18-1.8-0.4-1.8-0.396-0.675-0.391-1.5l9e-3 -1.5 0.679 1.4c0.373 0.77 0.82 1.46 0.993 1.534s0.196 0.326 0.051 0.561c-0.145 0.234 0.069 0.669 0.474 0.966 0.406 0.296 0.62 0.539 0.475 0.539-0.144 0 0.168 0.849 0.694 1.887 0.526 1.037 0.869 2.027 0.762 2.2-0.106 0.172 0.098 0.313 0.454 0.313s0.544 0.167 0.419 0.37c-0.22 0.355 0.51 2.415 1.002 2.83 0.39 0.33 4.379 8.775 4.379 9.273 0 0.253 0.117 0.343 0.261 0.2 0.299-0.3 1.339 1.543 1.339 2.373 0 0.305 0.18 0.554 0.4 0.554s0.4 0.36 0.4 0.8 0.18 0.8 0.4 0.8 0.4 0.36 0.4 0.8 0.18 0.8 0.4 0.8 0.4 0.234 0.4 0.52c0 0.736 0.941 2.673 1.3 2.677 0.165 2e-3 0.304 0.318 0.309 0.703s0.361 1.15 0.791 1.7 0.786 1.315 0.791 1.7 0.189 0.7 0.409 0.7 0.4 0.36 0.4 0.8 0.199 0.8 0.443 0.8c0.243 0 0.339 0.27 0.212 0.6-0.126 0.33-0.077 0.6 0.109 0.6 0.373 0 1.483 2.42 1.331 2.9-0.052 0.165 0.085 0.3 0.305 0.3s0.4 0.345 0.4 0.767c0 0.421 0.135 0.826 0.3 0.9 0.391 0.174 2.103 3.594 2.101 4.2-1e-3 0.256 0.134 0.526 0.299 0.6 0.165 0.073 1.643 2.833 3.284 6.133s3.126 6.06 3.3 6.133c0.174 0.074 0.316 0.479 0.316 0.9 0 0.422 0.18 0.767 0.4 0.767s0.4 0.36 0.4 0.8 0.18 0.8 0.4 0.8 0.4 0.36 0.4 0.8 0.18 0.8 0.4 0.8 0.4 0.239 0.4 0.532 0.449 1.418 0.998 2.5 0.999 2.178 1 2.435c1e-3 0.256 0.143 0.526 0.316 0.6 0.438 0.186 2.886 5.078 2.886 5.767 0 0.312 0.18 0.566 0.4 0.566s0.4 0.272 0.4 0.605c0 0.556 0.722 2.117 1.2 2.595 0.402 0.402 2.002 3.814 2.001 4.267-1e-3 0.256 0.143 0.526 0.319 0.6 0.176 0.073 0.928 1.438 1.671 3.033s1.499 2.9 1.68 2.9 0.329 0.234 0.329 0.52c0 0.736 0.941 2.673 1.3 2.677 0.165 2e-3 0.3 0.237 0.3 0.523 0 0.736 0.941 2.673 1.3 2.677 0.165 2e-3 0.3 0.273 0.3 0.603s0.191 0.6 0.424 0.6 0.338 0.138 0.233 0.308c-0.266 0.43 1.138 3.364 1.457 3.044 0.144-0.143 0.187 0.124 0.096 0.594-0.09 0.47 6e-3 0.854 0.213 0.854s0.377 0.349 0.377 0.776 0.191 0.895 0.425 1.039c0.233 0.145 0.589 0.695 0.79 1.224 0.491 1.292 1.024 1.217 0.989-0.139-0.032-1.232-0.509-2.206-0.949-1.934-0.159 0.098-0.317-0.196-0.352-0.653-0.047-0.627 0.051-0.719 0.397-0.373 0.931 0.931 14.3 0.613 14.3-0.34 0-0.879-0.382-1.015-1.12-0.4-0.349 0.291-0.371 0.269-0.08-0.08 0.22-0.264 0.4-0.804 0.4-1.2s-0.18-0.72-0.4-0.72-0.408-0.315-0.417-0.7c-0.01-0.385-0.458-1.42-0.996-2.3s-1.162-2.05-1.385-2.6c-0.224-0.55-0.672-1.47-0.994-2.044-0.323-0.574-0.472-1.159-0.331-1.3s0.046-0.256-0.21-0.256c-0.257 0-0.467-0.341-0.467-0.757 0-0.417-0.281-0.865-0.625-0.997s-0.501-0.442-0.349-0.688 0.118-0.562-0.075-0.703c-0.533-0.387-1.351-1.971-1.351-2.616 0-0.315-0.137-0.632-0.304-0.706-0.167-0.073-1.11-1.753-2.096-3.733s-1.929-3.66-2.096-3.733c-0.167-0.074-0.304-0.479-0.304-0.9 0-0.422-0.18-0.767-0.4-0.767s-0.4-0.36-0.4-0.8-0.18-0.8-0.4-0.8-0.4-0.36-0.4-0.8-0.18-0.8-0.4-0.8-0.4-0.36-0.4-0.8-0.18-0.8-0.4-0.8-0.4-0.36-0.4-0.8-0.18-0.8-0.4-0.8-0.4-0.36-0.4-0.8-0.18-0.8-0.4-0.8-0.4-0.253-0.4-0.562-0.81-2.136-1.8-4.06-1.8-3.741-1.8-4.038-0.18-0.54-0.4-0.54-0.4-0.36-0.4-0.8-0.18-0.8-0.4-0.8-0.4-0.36-0.4-0.8-0.135-0.801-0.3-0.803c-0.351-4e-3 -1.3-1.934-1.3-2.643 0-0.268-0.137-0.547-0.304-0.621-0.167-0.073-1.11-1.753-2.096-3.733s-1.929-3.66-2.096-3.733c-0.167-0.074-0.304-0.479-0.304-0.9 0-0.422-0.18-0.767-0.4-0.767s-0.4-0.36-0.4-0.8-0.18-0.8-0.4-0.8-0.4-0.36-0.4-0.8-0.18-0.8-0.4-0.8-0.4-0.36-0.4-0.8-0.18-0.8-0.4-0.8-0.4-0.36-0.4-0.8-0.18-0.8-0.4-0.8-0.4-0.36-0.4-0.8-0.18-0.8-0.4-0.8-0.4-0.36-0.4-0.8-0.159-0.8-0.353-0.8c-0.296 0-0.779-1.004-0.993-2.067-0.03-0.146-0.198-0.41-0.373-0.586-0.274-0.273-1.909-3.562-2.062-4.147-0.029-0.11-0.36-0.776-0.736-1.48s-0.683-1.559-0.683-1.9-0.158-0.62-0.351-0.62c-0.382 0-1.499-2.411-1.344-2.9 0.052-0.165-0.085-0.3-0.305-0.3s-0.4-0.36-0.4-0.8-0.161-0.8-0.358-0.8c-0.366 0-2.842-4.829-2.842-5.541 0-0.216-0.135-0.452-0.3-0.526-0.432-0.192-2.1-3.505-2.1-4.171 0-0.309-0.18-0.562-0.4-0.562s-0.4-0.36-0.4-0.8-0.135-0.801-0.3-0.803c-0.359-4e-3 -1.3-1.941-1.3-2.677 0-0.286-0.18-0.52-0.4-0.52s-0.4-0.36-0.4-0.8-0.18-0.8-0.4-0.8-0.4-0.371-0.4-0.824-0.18-0.712-0.4-0.576-0.4-0.123-0.4-0.576-0.135-0.825-0.3-0.827c-0.359-4e-3 -1.3-1.941-1.3-2.677 0-0.286-0.191-0.52-0.424-0.52s-0.325-0.16-0.204-0.355-0.019-0.552-0.31-0.794c-0.292-0.242-0.769-1.162-1.06-2.045-0.292-0.883-0.681-1.606-0.866-1.606s-0.336-0.36-0.336-0.8-0.191-0.8-0.424-0.8-0.339-0.136-0.236-0.302c0.172-0.28-0.361-1.508-1.804-4.155-1.133-2.078-3.337-4.636-4.397-5.106-1.286-0.569-4.317-0.796-4.597-0.344m309.86 0.212c0 0.168 0.385 0.483 0.855 0.7s0.785 0.502 0.7 0.633c-0.085 0.132 0.88 1.233 2.145 2.449 1.265 1.215 2.314 2.458 2.332 2.761 0.024 0.419 0.081 0.429 0.236 0.042 0.129-0.319 0.617 0.053 1.311 1 0.608 0.831 2.589 2.984 4.402 4.786 3.303 3.283 3.816 4.477 1.675 3.908-0.581-0.155-1.583-0.35-2.227-0.433-0.644-0.084-1.583-0.422-2.086-0.751-0.503-0.33-1.271-0.6-1.705-0.6-0.435 0-0.904-0.183-1.042-0.407-0.138-0.223-0.427-0.298-0.641-0.165-0.215 0.132-0.652 0.023-0.973-0.243-0.32-0.265-0.582-0.349-0.582-0.185s-0.27 0.074-0.6-0.2-0.6-0.381-0.6-0.239c0 0.143-0.531-0.015-1.18-0.351-0.649-0.335-1.639-0.61-2.2-0.61s-1.02-0.16-1.02-0.355-0.585-0.471-1.3-0.614c-3.124-0.625-3.5-0.741-3.5-1.076 0-0.195-0.585-0.361-1.3-0.368l-1.3-0.014 0.9-0.75c0.495-0.413 0.9-0.928 0.9-1.144 0-0.217 0.31-0.512 0.689-0.658 0.538-0.206 0.574-0.335 0.162-0.59-0.377-0.233-0.227-0.4 0.527-0.59 0.58-0.145 0.946-0.44 0.813-0.656-0.133-0.215 0.04-0.499 0.384-0.631s0.625-0.501 0.625-0.82c0-0.32 0.18-0.47 0.4-0.334s0.4-0.023 0.4-0.354c0-0.33 0.334-0.836 0.743-1.123 0.408-0.288 0.87-0.928 1.027-1.423 0.264-0.837 1.03-1.28 1.03-0.595m-288.76 125.05c-0.422 0.512-0.449 0.797-0.107 1.139 0.606 0.606 0.966 0.192 0.802-0.922-0.122-0.833-0.174-0.849-0.695-0.217m65.526 1.149c-1.165 1.01-1.11 1.9 0.117 1.9 0.596 0 0.761-0.199 0.619-0.743-0.107-0.409-0.029-1.039 0.173-1.4 0.488-0.872 0.328-0.829-0.909 0.243m116.01-0.248c-0.462 0.569-0.466 0.639-0.018 0.369 0.384-0.231 0.49-0.163 0.35 0.223-0.111 0.306-0.398 0.513-0.638 0.461-0.24-0.053-0.329 0.18-0.199 0.521 0.201 0.523 0.352 0.492 1.004-0.208 0.524-0.562 0.657-1.021 0.419-1.446-0.31-0.554-0.411-0.545-0.918 0.08m-181.97 1.392c-0.513 0.369-0.502 0.4 0.074 0.216 0.371-0.118 0.762 0 0.869 0.262 0.106 0.263 0.208 0.163 0.225-0.222 0.037-0.8-0.307-0.875-1.168-0.256m163.12 0.725c-0.521 0.608-0.547 0.811-0.128 0.972 0.304 0.117 0.621-0.144 0.743-0.609 0.134-0.514 0.392-0.702 0.701-0.51 0.312 0.193 0.386 0.135 0.203-0.16-0.402-0.65-0.761-0.578-1.519 0.307m-184.56 0.179c-0.317 0.35-0.299 0.61 0.064 0.949 0.385 0.36 0.557 0.318 0.749-0.182 0.324-0.845-0.251-1.387-0.813-0.767m106.41 0.419c-0.427 0.312-0.641 0.702-0.476 0.867 0.164 0.165 0.299 0.089 0.299-0.167 0-0.257 0.27-0.467 0.6-0.467s0.6-0.18 0.6-0.4c0-0.524-0.1-0.507-1.023 0.167m94.623 0.502c0 0.367-0.305 1.005-0.678 1.417s-0.738 1.143-0.812 1.624c-0.13 0.856-0.121 0.858 0.443 0.087 0.317-0.434 0.503-0.906 0.414-1.051-0.089-0.144 0.107-0.365 0.435-0.492 0.329-0.126 0.601-0.64 0.604-1.141 5e-3 -0.653 0.103-0.761 0.344-0.379 0.273 0.429 0.386 0.41 0.582-0.1 0.171-0.446 0.01-0.634-0.545-0.634-0.469 0-0.787 0.27-0.787 0.669m-144.73 0.086c-0.598 0.37 0.03 2.445 0.741 2.445 0.238 0 0.305 0.208 0.148 0.462-0.179 0.288-0.11 0.353 0.183 0.172 0.338-0.209 0.242-0.609-0.341-1.428-0.591-0.83-0.674-1.186-0.307-1.317 0.277-0.099 0.408-0.284 0.291-0.412-0.116-0.129-0.438-0.093-0.715 0.078m48.277-0.155c-0.027 0.11-0.081 0.425-0.118 0.7-0.038 0.275-0.299 0.451-0.58 0.39-0.281-0.06-0.407 0.059-0.279 0.266 0.127 0.207-0.399 0.766-1.171 1.242-1.54 0.953-2.062 2.384-0.579 1.59 0.452-0.242 0.921-0.698 1.042-1.012 0.12-0.314 0.384-0.469 0.587-0.344 0.202 0.125 0.318-0.011 0.258-0.302-0.061-0.292 0.115-0.485 0.39-0.43s0.455-0.125 0.4-0.4 0.125-0.455 0.4-0.4 0.5-0.26 0.5-0.7c0-0.684-0.705-1.181-0.85-0.6m77.911 1.24c-1.01 1.386-0.691 1.423 0.613 0.072 0.591-0.611 0.861-1.106 0.6-1.099-0.26 6e-3 -0.807 0.469-1.213 1.027m-185.81 1.097c-0.245 0.295-0.327 0.655-0.182 0.8s-0.026 0.263-0.38 0.263c-0.353 0-0.754 0.18-0.89 0.4s-0.066 0.4 0.156 0.4c0.451 0 2.444-1.75 2.444-2.146 0-0.443-0.685-0.274-1.148 0.283m84.148 0.182c-0.937 0.81-1.981 2.081-1.71 2.081 0.103 0 0.598-0.356 1.1-0.792 0.502-0.435 1.033-0.718 1.179-0.627 0.146 0.09 0.291-0.184 0.323-0.609 0.07-0.921 0.108-0.919-0.892-0.053m117.29 1.324c0.382 0.385 0.275 0.685-0.5 1.404-0.543 0.503-0.987 1.128-0.987 1.388 0 0.473 2.382-2.006 2.394-2.492 3e-3 -0.142-0.309-0.377-0.694-0.524-0.551-0.21-0.597-0.162-0.213 0.224m-205.42 2.201c-0.73 0.764-1.27 1.546-1.2 1.737 0.07 0.192 0.878-0.446 1.795-1.416 0.917-0.971 1.457-1.753 1.2-1.738-0.257 0.016-1.065 0.653-1.795 1.417m84.028-0.1c-0.495 0.245-0.9 0.704-0.9 1.021 0 0.402 0.3 0.293 1-0.365 0.85-0.799 1.266-1.331 0.9-1.151-0.055 0.027-0.505 0.25-1 0.495m101.3 0.258c-0.4 0.442-0.622 0.907-0.495 1.035 0.128 0.127 0.436-0.149 0.685-0.614s0.651-0.723 0.894-0.572c0.266 0.164 0.328 0.089 0.156-0.189-0.373-0.603-0.391-0.598-1.24 0.34m-82.398 2.592c-1.32 1.196-2.207 2.182-1.972 2.19 0.235 9e-3 0.795-0.389 1.243-0.884 0.884-0.976 1.776-1.731 3.318-2.809 0.601-0.42 0.758-0.687 0.4-0.681-0.324 5e-3 -1.669 0.988-2.989 2.184m-34.589 2.206c4e-3 0.33 0.378 1.05 0.833 1.6 0.454 0.55 0.709 0.774 0.566 0.499-1.191-2.305-1.404-2.625-1.399-2.099m2.523 5.468c0.147 0.147-0.048 0.642-0.433 1.1-0.7 0.831-0.7 0.831 0.199 0.07 0.983-0.832 1.165-1.438 0.433-1.438-0.256 0-0.346 0.12-0.199 0.268m-66.134 5.732c-0.488 0.685-0.778 1.356-0.644 1.49s0.244 0.067 0.244-0.148 0.378-0.797 0.84-1.293 0.752-0.99 0.644-1.098c-0.108-0.109-0.596 0.364-1.084 1.049" fill="#f07a3c"/>
<path d="m126.4 330.6c0 0.33-0.18 0.6-0.4 0.6s-0.4 0.208-0.4 0.462c0 0.262 0.346 0.149 0.8-0.262 0.864-0.782 1.041-1.4 0.4-1.4-0.22 0-0.4 0.27-0.4 0.6m175.32 4.467c0.51 0.141 0.604 0.341 0.322 0.681-0.287 0.346-0.181 0.481 0.379 0.481 0.428 0 0.778-0.136 0.778-0.302s0.315-0.204 0.7-0.084c0.536 0.166 0.512 0.096-0.1-0.298-0.44-0.284-1.25-0.553-1.8-0.597-0.585-0.048-0.7 2e-3 -0.279 0.119m5.111 0.233c-0.018 0.385-0.223 0.7-0.456 0.7s-0.298 0.203-0.144 0.451c0.356 0.576 1.111-0.669 0.828-1.366-0.11-0.272-0.211-0.177-0.228 0.215m-74.236 0.307c-0.138 0.223-0.464 0.284-0.724 0.135-0.259-0.148-0.333-0.118-0.164 0.069 0.52 0.572 1.835 0.506 1.61-0.081-0.244-0.636-0.39-0.661-0.722-0.123m-218.82 0.893c-0.154 0.495-0.482 1.032-0.727 1.194-0.7 0.461-12.336 0.375-12.049-0.089 0.139-0.225-0.017-0.295-0.363-0.163-0.583 0.224-0.697 13.455-0.133 15.358 0.098 0.33 0.271 0.87 0.384 1.2 0.491 1.43 1.115 4.499 1.121 5.506 5e-3 0.853 0.092 0.962 0.394 0.494 0.288-0.446 0.389-0.216 0.394 0.9 3e-3 0.825 0.186 1.5 0.406 1.5s0.4 0.36 0.4 0.8 0.18 0.8 0.4 0.8 0.4 0.349 0.4 0.776 0.18 0.888 0.4 1.024 0.4 0.697 0.4 1.247c0 0.565 0.174 0.893 0.4 0.753 0.22-0.136 0.4 0.123 0.4 0.576s0.135 0.825 0.3 0.827c0.365 4e-3 1.3 1.946 1.3 2.7 0 0.299 0.18 0.433 0.4 0.297s0.4 0.123 0.4 0.576 0.18 0.824 0.4 0.824 0.4 0.251 0.4 0.557c0 0.307 0.27 0.661 0.6 0.788 0.33 0.126 0.6 0.492 0.6 0.813s0.474 0.957 1.054 1.413 0.927 0.829 0.771 0.829c-0.155 0-0.044 0.254 0.246 0.564 0.291 0.311 1.148 1.311 1.904 2.223 1.938 2.336 5.207 5.613 5.599 5.613 0.181 0 1.071 0.72 1.978 1.6s1.829 1.6 2.048 1.6c0.22 0 0.727 0.315 1.126 0.7s1.434 1.052 2.3 1.483 2.052 1.106 2.636 1.5 1.349 0.717 1.7 0.717 0.638 0.18 0.638 0.4 0.36 0.4 0.8 0.4 0.8 0.18 0.8 0.4 0.36 0.4 0.8 0.4 0.8 0.18 0.8 0.4 0.439 0.4 0.976 0.4 1.088 0.18 1.224 0.4 0.597 0.4 1.024 0.4 0.776 0.16 0.776 0.356 0.585 0.458 1.3 0.581c3.251 0.562 4.119 0.804 4.385 1.218 0.435 0.677 27.189 0.623 27.415-0.055 0.095-0.284 0.829-0.5 1.7-0.5 0.843 0 1.593-0.163 1.667-0.362 0.073-0.199 0.583-0.424 1.133-0.5s1.1-0.272 1.222-0.436c0.123-0.164 0.695-0.337 1.272-0.385 0.576-0.048 0.961-0.229 0.854-0.402-0.108-0.173 0.265-0.315 0.828-0.315s1.024-0.18 1.024-0.4 0.36-0.4 0.8-0.4 0.8-0.18 0.8-0.4 0.373-0.4 0.828-0.4 1.613-0.54 2.572-1.2 2.027-1.2 2.372-1.2 0.628-0.18 0.628-0.4 0.244-0.4 0.542-0.4c0.297 0 1.027-0.45 1.62-1 0.594-0.55 1.258-1 1.477-1 0.218 0 0.814-0.405 1.324-0.9s1.324-1.17 1.811-1.5c0.911-0.619 6.505-6 6.237-6-0.2 0 1.28-1.799 2.849-3.463 0.693-0.735 1.148-1.337 1.011-1.337s0.151-0.28 0.64-0.623c0.489-0.342 0.889-0.845 0.889-1.116 0-0.272 0.72-1.156 1.6-1.965s1.604-1.612 1.609-1.784c5e-3 -0.171 0.59-0.974 1.3-1.784s1.651-1.914 2.091-2.453c0.44-0.54 0.963-0.884 1.162-0.766s0.242 0.021 0.096-0.215-0.032-0.669 0.253-0.962c0.285-0.292 1.028-1.207 1.651-2.032s1.392-1.5 1.709-1.5 0.465-0.18 0.329-0.4-0.046-0.4 0.2-0.4 0.346-0.164 0.222-0.365 0.491-0.933 1.367-1.626c0.876-0.694 1.578-1.385 1.559-1.536-0.085-0.677 0.578-2.042 0.897-1.845 0.195 0.121 0.355 7e-3 0.355-0.252 0-0.503 2.382-2.759 2.924-2.77 0.178-3e-3 0.216-0.18 0.084-0.393s0.263-0.914 0.876-1.558c2.376-2.494 3.248-3.59 3.029-3.809-0.125-0.125 0.068-0.341 0.43-0.479 0.361-0.139 0.657-0.593 0.657-1.01 0-0.416 0.18-0.757 0.4-0.757s0.76-0.36 1.2-0.8 0.665-0.8 0.5-0.8c-0.165-1e-3 0.195-0.427 0.8-0.947s1.1-1.15 1.1-1.4c0-0.249 0.202-0.453 0.449-0.453 0.293 0 0.258-0.236-0.1-0.677-0.364-0.448-0.382-0.576-0.054-0.379 0.348 0.208 0.417 0.092 0.232-0.389-0.192-0.502-0.121-0.599 0.267-0.359 0.366 0.226 0.435 0.174 0.223-0.169-0.221-0.358-0.429-0.375-0.742-0.062-0.991 0.991-15.398 0.498-14.796-0.507 0.151-0.252-0.065-0.188-0.479 0.142-0.439 0.35-0.628 0.391-0.453 0.1 0.165-0.275 0.129-0.5-0.081-0.5-0.545 0-0.904 1.129-0.449 1.411 0.211 0.13 0.608 0.109 0.883-0.046 0.379-0.214 0.389-0.162 0.043 0.213-0.347 0.377-0.66 0.387-1.3 0.045-1.026-0.549-1.079-0.318-0.143 0.626 0.651 0.657 0.652 0.688 0.013 0.446-0.378-0.143-0.789-0.096-0.913 0.105s-0.497 0.261-0.829 0.133c-0.38-0.145-0.56-0.027-0.487 0.318 0.064 0.302-0.122 0.5-0.414 0.439-0.291-0.06-0.415 0.076-0.274 0.303 0.14 0.227-0.026 0.52-0.368 0.652-0.343 0.131-0.533 0.386-0.422 0.565s-0.274 0.7-0.856 1.158-0.916 0.832-0.742 0.832-0.162 0.411-0.746 0.913-1.062 1.088-1.062 1.304c0 0.215-0.367 0.62-0.816 0.9-0.448 0.28-0.715 0.67-0.594 0.867 0.122 0.197-0.151 0.477-0.607 0.621-0.456 0.145-0.998 0.709-1.205 1.253-0.207 0.545-0.557 0.879-0.777 0.742-0.221-0.136-0.401 0.048-0.401 0.408s-0.735 1.361-1.633 2.223c-0.898 0.863-1.483 1.574-1.3 1.581s0.018 0.196-0.367 0.42-0.7 0.679-0.7 1.011c0 0.333-0.18 0.493-0.4 0.357s-0.4 0.012-0.4 0.328c0 0.317-0.743 1.227-1.652 2.024-0.909 0.796-1.529 1.448-1.379 1.448 0.149 0-0.203 0.441-0.785 0.979-0.628 0.583-0.936 1.175-0.758 1.462 0.192 0.312 0.129 0.378-0.18 0.187-0.455-0.28-2.246 1.538-2.246 2.28 0 0.18-0.585 0.838-1.3 1.462-0.715 0.625-1.3 1.337-1.3 1.583s-0.168 0.447-0.373 0.447-0.495 0.384-0.644 0.852c-0.296 0.934-4.271 5.076-5.031 5.244-0.261 0.057-0.942 0.575-1.513 1.15-0.572 0.575-1.444 1.172-1.939 1.327-0.495 0.154-0.9 0.427-0.9 0.605 0 0.179-0.585 0.562-1.3 0.851s-1.39 0.63-1.5 0.758-1.1 0.678-2.2 1.223c-1.1 0.544-2.06 1.125-2.133 1.29-0.074 0.165-0.659 0.3-1.3 0.3-0.642 0-1.167 0.18-1.167 0.4s-0.45 0.4-1 0.4-1 0.16-1 0.356c0 0.342-1.122 0.61-4.6 1.1-0.88 0.124-1.771 0.388-1.98 0.585-0.535 0.505-13.02 0.466-13.02-0.041 0-0.22-0.799-0.4-1.776-0.4s-1.888-0.18-2.024-0.4-0.867-0.4-1.624-0.4-1.376-0.18-1.376-0.4-0.529-0.4-1.176-0.4-1.288-0.18-1.424-0.4-0.687-0.4-1.224-0.4-0.976-0.18-0.976-0.4-0.36-0.4-0.8-0.4-0.803-0.135-0.806-0.3c-4e-3 -0.165-0.949-0.748-2.1-1.297-1.152-0.548-2.651-1.403-3.332-1.9-0.681-0.496-1.361-0.903-1.511-0.903-0.652 0-9.051-8.283-9.051-8.927 0-0.264-0.36-0.705-0.8-0.98s-0.8-0.869-0.8-1.32-0.18-0.709-0.4-0.573-0.422 0.057-0.45-0.176c-0.027-0.233-0.072-0.619-0.1-0.856-0.028-0.238-0.365-0.663-0.75-0.944-0.385-0.282-0.704-0.762-0.709-1.068s-0.361-1.006-0.791-1.556-0.786-1.315-0.791-1.7-0.189-0.7-0.409-0.7-0.4-0.461-0.4-1.024-0.16-0.924-0.357-0.803c-0.196 0.121-0.457-0.363-0.581-1.076-0.548-3.17-0.797-4.113-1.142-4.336-0.204-0.132-0.404-1.076-0.445-2.1-0.041-1.023-0.173-1.86-0.293-1.86-0.283-1e-3 -0.473-2.259-0.499-5.901-0.016-2.355-0.138-2.905-0.651-2.928-0.546-0.024-0.551-0.065-0.032-0.3 0.33-0.15 0.637-0.767 0.681-1.372 0.099-1.333-0.127-1.421-0.508-0.2m222.47-0.26c-0.132 0.344-0.24 0.656-0.24 0.694 0 0.037 0.527 0.075 1.172 0.083 1.243 0.017 1.26-0.358 0.046-1.008-0.557-0.297-0.797-0.24-0.978 0.231m72.56-0.172c0 0.23-0.27 0.314-0.6 0.187-0.33-0.126-0.6-0.077-0.6 0.111 0 0.187 0.434 0.424 0.963 0.525 0.743 0.142 0.919 0.038 0.768-0.453-0.155-0.503-0.07-0.484 0.398 0.086 0.377 0.46 0.69 0.569 0.856 0.3 0.144-0.233 0.061-0.424-0.185-0.424s-0.359-0.143-0.251-0.317c0.107-0.174-0.152-0.343-0.577-0.375-0.424-0.032-0.772 0.13-0.772 0.36m-69.733 0.199c-0.472 0.471-0.287 0.834 0.533 1.049 0.439 0.115 0.9 0.046 1.023-0.154 0.123-0.199-0.157-0.362-0.623-0.362s-0.736-0.18-0.6-0.4c0.28-0.453 0.07-0.537-0.333-0.133m-69.936 0.894c-0.493 0.79-0.866 0.839-6.404 0.839-3.551 0-5.979 0.161-6.131 0.407-0.138 0.223-0.406 0.31-0.596 0.193s-0.475-2e-3 -0.634 0.255c-0.159 0.258-0.118 0.363 0.091 0.233 0.21-0.129 0.643-0.07 0.962 0.132 0.32 0.202 0.377 0.371 0.128 0.374-0.25 3e-3 -0.431 0.546-0.405 1.206 0.027 0.66 0.186 1.2 0.354 1.2 0.167 0 0.304 0.295 0.304 0.656s0.315 0.915 0.7 1.233c0.659 0.542 0.659 0.563 6e-3 0.358-0.593-0.186-0.625-0.107-0.22 0.542 0.261 0.418 0.618 0.67 0.794 0.562 0.176-0.109 0.32 0.196 0.32 0.678 0 0.483 0.334 1.168 0.743 1.524 0.408 0.356 0.865 1.035 1.014 1.508 0.15 0.474 1.301 1.554 2.558 2.4 1.257 0.847 2.4 1.697 2.54 1.89 0.141 0.193 0.423 0.248 0.627 0.122 0.205-0.127 0.816 0.181 1.359 0.685 0.542 0.503 1.334 0.863 1.759 0.801 0.425-0.063 1.025 0.096 1.333 0.351 0.883 0.733 10.372 0.714 10.654-0.021 0.121-0.315 0.471-0.476 0.777-0.358 0.307 0.118 0.68 0.091 0.83-0.059 0.15-0.149 0.393-0.274 0.539-0.277 0.769-0.013 3.136-1.249 3.59-1.875 0.287-0.396 0.872-0.72 1.3-0.72 0.427 0 0.777-0.172 0.777-0.381 0-0.21 2.237-2.653 4.971-5.429s4.984-5.124 5-5.219c0.016-0.094 0.032-0.306 0.035-0.471s0.2-0.03 0.438 0.3c0.369 0.514 0.401 0.503 0.218-0.071-0.24-0.75 0.63-1.686 1.139-1.226 0.179 0.164 0.206-0.038 0.058-0.448-0.201-0.558-0.117-0.686 0.336-0.512 0.371 0.142 0.605 4e-3 0.605-0.356 0-0.323 0.18-0.587 0.4-0.587s0.4-0.277 0.4-0.616c0-0.665-0.518-0.365-1.91 1.108-0.359 0.38-0.757 0.523-0.885 0.317-0.13-0.211-3.87-0.401-8.516-0.434-4.557-0.032-8.196-0.203-8.086-0.379 0.109-0.177-0.166-0.226-0.611-0.11-0.677 0.177-0.726 0.312-0.3 0.828 0.449 0.546 0.399 0.559-0.432 0.116-0.853-0.455-0.902-0.435-0.536 0.219 0.425 0.76-1.419 2.551-2.625 2.551-0.311 0-0.423 0.199-0.261 0.462 0.196 0.316 0.109 0.351-0.276 0.111-0.781-0.487-1.562-0.568-1.562-0.162 0 0.186-0.36 0.312-0.8 0.279s-0.8-0.202-0.8-0.375-0.441-0.315-0.98-0.315-1.164-0.315-1.388-0.7c-0.276-0.475-0.412-0.523-0.42-0.151-0.019 0.879-1.087-0.198-1.389-1.401-0.218-0.866-0.348-0.942-0.875-0.505-0.526 0.437-0.599 0.397-0.484-0.265 0.075-0.428 0.311-0.903 0.524-1.056 0.214-0.153 0.272-0.396 0.128-0.539-0.143-0.144-0.496 0.117-0.785 0.578m141.88 0.014c-0.128 0.206-0.932 0.365-1.787 0.353s-1.751 0.1-1.992 0.249c-0.24 0.149-0.437 0.044-0.437-0.233 0-0.392-0.107-0.397-0.48-0.024-0.364 0.364-7.025 0.48-27.531 0.48h-27.05l0.201 1.3c0.19 1.225 0.216 1.243 0.446 0.311l0.245-0.988 1.358 1.94 0.864-0.928c0.745-0.8 0.912-0.842 1.212-0.305 0.205 0.367 0.713 0.556 1.241 0.461 0.868-0.156 0.871-0.143 0.118 0.424-0.428 0.322-0.698 0.599-0.6 0.616 0.097 0.016 0.492 0.091 0.878 0.164 0.44 0.085 0.605-0.039 0.441-0.33-0.194-0.347-0.131-0.346 0.247 4e-3 0.279 0.258 0.774 0.366 1.099 0.241 0.326-0.124 0.709-0.039 0.851 0.19 0.386 0.617 4.375 0.931 4.607 0.363 0.105-0.255 0.204-0.158 0.221 0.214 0.021 0.444 0.295 0.626 0.796 0.53 0.421-0.081 1.096 0.104 1.5 0.41 0.405 0.307 1.501 0.563 2.436 0.57s1.7 0.165 1.7 0.35 0.765 0.316 1.7 0.29 2.06 0.129 2.5 0.343c0.44 0.215 1.16 0.422 1.6 0.461s1.307 0.273 1.926 0.52 1.744 0.449 2.5 0.449 1.374 0.167 1.374 0.372 0.495 0.362 1.1 0.35c1.998-0.041 2.55 0.073 2.3 0.478-0.136 0.22 0.033 0.4 0.376 0.4s0.627-0.225 0.63-0.5c4e-3 -0.35 0.094-0.367 0.3-0.055 0.284 0.429 1.544 0.765 4.494 1.199 0.77 0.113 1.76 0.364 2.2 0.558s1.52 0.439 2.4 0.545c3.837 0.46 5.4 0.78 5.4 1.105 0 0.191 0.135 0.327 0.3 0.301 1.032-0.163 3.716 0.098 3.562 0.347-0.101 0.165 0.629 0.322 1.622 0.35 0.994 0.027 1.921 0.235 2.061 0.462 0.396 0.64 6.848 0.512 8.152-0.162 1.278-0.661 5.503-4.775 5.503-5.359 0-0.215 0.217-0.346 0.482-0.291s0.49-0.115 0.5-0.377c0.017-0.459 1.885-2.428 2.109-2.223 0.06 0.055 0.12-0.035 0.133-0.2s0.373-0.429 0.8-0.587 0.776-0.574 0.776-0.924 0.18-0.525 0.4-0.389c0.572 0.354 0.495-0.732-0.1-1.409-0.275-0.314-0.069-0.215 0.458 0.22 0.955 0.787 0.957 0.787 0.552-0.011-0.223-0.44-0.362-1.07-0.308-1.4 0.085-0.519-0.934-0.584-7.574-0.484-4.22 0.064-8.111-0.046-8.647-0.245-0.732-0.27-1.104-0.2-1.498 0.284-0.461 0.567-0.494 0.536-0.277-0.255 0.252-0.913 0.032-1.209-0.39-0.525m-63.63 0.448c-0.099 0.16-0.787 0.208-1.53 0.108-0.896-0.121-1.42-2e-3 -1.556 0.352-0.278 0.724 2.815 0.701 3.264-0.024 0.296-0.479 1.04 0.43 0.933 1.141-0.016 0.11 0.404 0.226 0.934 0.258 0.552 0.032 0.858-0.114 0.716-0.343-0.152-0.247 0.117-0.309 0.703-0.162 0.522 0.132 0.724 0.136 0.448 9e-3 -0.277-0.127-0.401-0.395-0.277-0.596s-0.245-0.366-0.821-0.366c-0.588 0-0.94 0.173-0.803 0.395 0.138 0.224-0.015 0.296-0.351 0.167-0.328-0.125-0.509-0.453-0.404-0.728 0.201-0.524-0.945-0.715-1.256-0.211" fill="#fccf19"/>
<path d="m52.46 268.6c-1.019 0.976-0.711 1.476 0.737 1.198 1.138-0.22 1.378-0.446 0.83-0.785-0.235-0.145-0.427-0.062-0.427 0.184s-0.207 0.319-0.461 0.163c-0.322-0.2-0.255-0.435 0.224-0.786 0.377-0.275 0.539-0.584 0.361-0.687s-0.747 0.218-1.264 0.713m124.14 2.677c-0.44 0.427-0.808 0.989-0.818 1.248-0.01 0.26-0.235 0.427-0.5 0.372s-0.482 0.074-0.482 0.286c0 0.397-0.504 1.013-3.179 3.881-0.855 0.916-1.449 1.771-1.321 1.9 0.128 0.128-0.055 0.233-0.406 0.233-0.352 0-0.745 0.33-0.873 0.732-0.127 0.403-0.86 1.233-1.627 1.845-0.766 0.611-1.394 1.289-1.394 1.507 0 0.217-0.54 0.899-1.2 1.516s-1.2 1.248-1.2 1.404c0 0.258-0.507 0.874-2.5 3.037-0.385 0.417-0.591 0.759-0.458 0.759 0.134 0-0.316 0.522-1 1.16-0.683 0.639-1.242 1.369-1.242 1.624s-0.18 0.352-0.4 0.216-0.402-0.012-0.404 0.276-0.902 1.467-2 2.619c-1.098 1.153-1.996 2.205-1.996 2.34 0 0.134-0.54 0.748-1.2 1.365s-1.2 1.253-1.2 1.415c0 0.161-0.405 0.697-0.9 1.19-0.893 0.89-2.267 2.523-3.999 4.757-0.495 0.639-1.313 1.618-1.817 2.176s-1.404 1.633-2 2.389c-0.596 0.757-1.534 1.866-2.084 2.465s-1.45 1.685-2 2.412c-0.55 0.728-1.19 1.519-1.422 1.759-0.233 0.241-0.542 0.752-0.688 1.137s-0.541 0.7-0.877 0.7c-0.367 0-0.615 0.361-0.619 0.9-5e-3 0.654-0.1 0.753-0.349 0.36-0.255-0.403-0.482-0.225-0.891 0.7-0.302 0.682-0.696 1.24-0.875 1.24-0.18 0-0.215 0.18-0.079 0.4s0.033 0.4-0.229 0.4c-0.689 0-2 1.629-1.701 2.113 0.14 0.226 0.065 0.294-0.166 0.151-0.435-0.269-1.105 0.832-0.934 1.536 0.053 0.22-0.035 0.268-0.197 0.107-0.356-0.356-2.173 1.525-2.173 2.249 0 0.283-0.896 1.328-1.991 2.322-1.095 0.993-1.875 1.922-1.734 2.064 0.142 0.142-0.022 0.258-0.366 0.258-0.644 0-1.198 0.877-1.326 2.104-0.062 0.588 0.028 0.621 0.548 0.2 0.385-0.312 0.518-0.329 0.348-0.046-0.602 1.005 13.805 1.498 14.796 0.507 0.313-0.313 0.521-0.296 0.742 0.062 0.212 0.343 0.143 0.395-0.223 0.169-0.388-0.24-0.459-0.143-0.267 0.359 0.185 0.481 0.116 0.597-0.232 0.389-0.366-0.22-0.36-0.131 0.022 0.34 0.422 0.522 0.422 0.672 0 0.822-0.284 0.102-0.4 0.311-0.257 0.466 0.142 0.154 0.762-0.406 1.376-1.246 0.614-0.839 1.536-1.942 2.049-2.45 0.513-0.509 0.828-1.094 0.7-1.3-0.128-0.207 0.048-0.376 0.391-0.376 0.357 0 0.624-0.342 0.624-0.8 0-0.44 0.243-0.8 0.54-0.8s0.972-0.566 1.5-1.259c0.528-0.692 1.725-2.071 2.66-3.063 0.935-0.993 1.702-2.002 1.704-2.242s0.54-0.86 1.197-1.379c0.656-0.518 1.094-1.103 0.973-1.3-0.122-0.196 0.059-0.357 0.402-0.357s0.624-0.156 0.624-0.346c0-1.501 2.239-2.783 4.2-2.404 4.206 0.812 4.255 0.829 4.024 1.432-0.123 0.321-0.224 0.737-0.224 0.924s-0.36 0.454-0.8 0.594-0.8 0.602-0.8 1.027-0.18 0.773-0.4 0.773-0.4 0.36-0.4 0.8-0.18 0.8-0.4 0.8-0.4 0.551-0.4 1.224-0.158 1.126-0.351 1.006c-0.193-0.119-0.47 0.815-0.616 2.077-0.146 1.261-0.324 2.743-0.396 3.293-0.071 0.55 0.048 1.225 0.265 1.5 0.22 0.277 0.234 0.5 0.032 0.5-0.525 0-0.574 1.67-0.066 2.282 0.236 0.285 0.622 0.518 0.857 0.518 0.236 0 0.079-0.283-0.349-0.63-0.427-0.346-0.563-0.523-0.304-0.393 0.26 0.13 0.586 0.053 0.724-0.17 0.151-0.245 2.593-0.412 6.128-0.42 6.436-0.013 7.533-0.46 7.209-2.936-0.13-0.989 1.211-2.951 3.767-5.515 0.825-0.827 1.5-1.604 1.5-1.726s0.585-0.753 1.3-1.404c1.31-1.192 4.7-1.773 4.7-0.806 0 0.22 0.799 0.4 1.776 0.4s1.888 0.18 2.024 0.4 1.036 0.4 2 0.4 1.864 0.18 2 0.4 0.812 0.4 1.503 0.4h1.255l-1.67 1.653c-0.918 0.909-1.556 1.837-1.417 2.062 0.145 0.234 0.055 0.287-0.209 0.123-0.284-0.175-0.464-6e-3 -0.468 0.438-4e-3 0.43-0.126 0.551-0.3 0.297-0.179-0.26-1.455 0.743-3.265 2.566-1.966 1.979-2.677 2.914-2.1 2.764 0.48-0.126 0.783-0.084 0.674 0.093-0.11 0.176 3.529 0.347 8.086 0.379 5.981 0.043 8.37 0.193 8.592 0.542 0.169 0.266 0.315 0.303 0.326 0.083 0.01-0.22 0.283-0.051 0.606 0.376 0.484 0.641 0.587 0.664 0.587 0.134 0-0.354-0.225-0.748-0.5-0.877-0.398-0.185-0.396-0.281 7e-3 -0.469 0.279-0.129 0.774-0.502 1.1-0.828 0.524-0.524 0.593-0.52 0.593 0.035 0 0.346-0.18 0.629-0.4 0.629s-0.4 0.278-0.4 0.618c0 0.893 2.034-1.213 2.107-2.181 0.034-0.452 0.271-0.667 0.596-0.542 0.299 0.115 1.022-0.378 1.619-1.102 1.826-2.218 3.278-3.694 3.279-3.335 0 0.188 0.65 0.388 1.443 0.445 0.794 0.057 1.648 0.232 1.899 0.389 0.251 0.158 1.257 0.338 2.236 0.401 0.978 0.063 1.92 0.338 2.093 0.611 0.235 0.369 0.319 0.343 0.328-0.104 7e-3 -0.361 0.129-0.437 0.306-0.191 0.162 0.224 0.924 0.467 1.694 0.538s1.593 0.288 1.83 0.482c0.236 0.194 0.799 0.281 1.251 0.194s1.28 0.079 1.839 0.369c0.56 0.291 1.685 0.528 2.5 0.528 0.816 0 1.61 0.206 1.766 0.457 0.155 0.251 0.904 0.415 1.663 0.364 0.76-0.051 1.644 0.072 1.966 0.274 0.845 0.532 4.385 0.669 4.385 0.171 0-0.279 0.266-0.272 0.811 0.02 0.446 0.239 0.703 0.61 0.57 0.824-0.372 0.603 0.75 0.245 1.347-0.43 0.292-0.33 0.417-0.375 0.278-0.1-0.161 0.319 0.041 0.5 0.558 0.5 0.566 0 0.739 0.186 0.574 0.616-0.26 0.68 0.654 0.667 1.156-0.016 0.182-0.248 0.296-0.21 0.3 0.1 9e-3 0.783 1.205 0.586 1.212-0.2 5e-3 -0.581 0.069-0.601 0.374-0.119 0.202 0.319 0.29 0.706 0.196 0.858-0.207 0.335 1.051 0.867 1.348 0.57 0.115-0.115-1e-3 -0.209-0.257-0.209-0.257 0-0.467-0.195-0.467-0.433 0-0.262 0.543-0.359 1.38-0.246 0.759 0.102 1.484 0.081 1.612-0.046 0.493-0.494 1.465-0.399 1.264 0.123-0.113 0.295 0.062 0.639 0.39 0.764 0.336 0.129 0.489 0.057 0.351-0.167-0.139-0.225 0.238-0.39 0.879-0.382 1.065 0.012 1.084 0.043 0.363 0.589-0.749 0.566-0.749 0.581 0 0.849 0.418 0.15 0.922 0.361 1.119 0.47s0.267-0.279 0.155-0.862l-0.202-1.059h27.064c20.517 0 27.181-0.116 27.545-0.48 0.373-0.373 0.48-0.368 0.48 0.024 0 0.277 0.192 0.385 0.427 0.24 0.234-0.145 1.089-0.263 1.9-0.262 0.81 1e-3 1.724-0.204 2.031-0.457 0.459-0.378 0.509-0.284 0.279 0.538-0.242 0.866-0.209 0.912 0.246 0.352 0.394-0.484 0.766-0.554 1.498-0.284 0.536 0.199 4.408 0.309 8.606 0.245l7.631-0.116 0.044 1.111c0.04 0.971-0.036 1.046-0.608 0.6-0.582-0.455-0.594-0.434-0.109 0.185 0.612 0.779 1.427 0.529 1.095-0.336-0.124-0.323 0.034-0.56 0.373-0.56 0.699 0 0.748-0.552 0.147-1.675-0.32-0.597-0.32-0.747 0-0.55 0.242 0.15 0.44 0.097 0.44-0.118s-0.225-0.481-0.5-0.592c-0.4-0.161-0.4-0.208 0-0.233 0.597-0.038 0.696-2.832 0.1-2.832-0.22 0-0.406-0.315-0.413-0.7-0.017-0.974-0.946-2.1-1.731-2.1-0.361 0-0.656-0.159-0.656-0.353 0-0.385-3.994-2.447-4.74-2.447-0.253 0-0.46-0.18-0.46-0.4s-0.36-0.4-0.8-0.4-0.8-0.18-0.8-0.4-0.36-0.4-0.8-0.4-0.8-0.18-0.8-0.4-0.36-0.4-0.8-0.4-0.8-0.18-0.8-0.4-0.36-0.4-0.8-0.4-0.8-0.18-0.8-0.4-0.253-0.4-0.562-0.4c-0.666 0-3.979-1.668-4.171-2.1-0.074-0.165-0.464-0.3-0.867-0.3s-0.793-0.136-0.867-0.302c-0.073-0.166-1.393-0.93-2.933-1.698s-2.86-1.532-2.933-1.698c-0.074-0.166-0.479-0.302-0.9-0.302-0.422 0-0.767-0.18-0.767-0.4s-0.36-0.4-0.8-0.4-0.8-0.18-0.8-0.4-0.36-0.4-0.8-0.4-0.8-0.18-0.8-0.4-0.36-0.4-0.8-0.4-0.8-0.18-0.8-0.4-0.36-0.4-0.8-0.4-0.8-0.18-0.8-0.4-0.255-0.4-0.567-0.4-1.754-0.63-3.206-1.4c-1.451-0.77-2.906-1.4-3.233-1.4s-0.594-0.18-0.594-0.4-0.36-0.4-0.8-0.4-0.8-0.18-0.8-0.4-0.36-0.4-0.8-0.4-0.8-0.18-0.8-0.4-0.36-0.4-0.8-0.4-0.8-0.18-0.8-0.4-0.36-0.4-0.8-0.4-0.8-0.18-0.8-0.4-0.36-0.4-0.8-0.4-0.8-0.18-0.8-0.4-0.234-0.4-0.52-0.4c-0.736 0-2.673-0.941-2.677-1.3-2e-3 -0.165-0.363-0.3-0.803-0.3s-0.801-0.135-0.801-0.3c-1e-3 -0.165-0.991-0.75-2.199-1.3s-2.198-1.135-2.199-1.3c0-0.165-0.235-0.3-0.521-0.3-0.736 0-2.673-0.941-2.677-1.3-2e-3 -0.165-0.363-0.3-0.803-0.3s-0.8-0.18-0.8-0.4-0.36-0.4-0.8-0.4-0.8-0.18-0.8-0.4-0.36-0.4-0.8-0.4-0.8-0.18-0.8-0.4-0.33-0.4-0.733-0.4c-0.404 0-0.869-0.135-1.034-0.3s-0.42-0.315-0.566-0.334c-0.692-0.086-2.418-0.963-2.656-1.348-0.146-0.237-0.421-0.335-0.611-0.218s-0.458 0.03-0.596-0.193c-0.138-0.224-0.601-0.407-1.028-0.407s-0.776-0.18-0.776-0.4-0.27-0.4-0.6-0.4-0.6-0.18-0.6-0.4-0.36-0.4-0.8-0.4-0.8-0.18-0.8-0.4-0.36-0.4-0.8-0.4-0.8-0.18-0.8-0.4-0.36-0.4-0.8-0.4-0.8-0.18-0.8-0.4-0.36-0.4-0.8-0.4-0.8-0.18-0.8-0.4-0.234-0.4-0.52-0.4c-0.736 0-2.673-0.941-2.677-1.3-2e-3 -0.165-0.348-0.3-0.77-0.3-0.421 0-0.826-0.136-0.9-0.302-0.073-0.166-1.393-0.93-2.933-1.698s-2.86-1.532-2.933-1.698c-0.074-0.166-0.479-0.302-0.9-0.302-0.422 0-0.767-0.18-0.767-0.4s-0.36-0.4-0.8-0.4-0.8-0.191-0.8-0.424-0.175-0.315-0.389-0.183c-0.213 0.132-0.813-0.038-1.332-0.378-0.518-0.34-1.063-0.497-1.211-0.35-0.147 0.148-0.268-0.042-0.268-0.422s-0.165-0.588-0.368-0.463c-0.202 0.125-0.639-0.044-0.971-0.376s-0.878-0.604-1.214-0.604c-0.837 0-2.647-0.856-2.647-1.252 0-0.177-0.27-0.219-0.6-0.093-0.33 0.127-0.6 0.031-0.6-0.212 0-0.244-0.36-0.443-0.8-0.443s-0.8-0.18-0.8-0.4-0.27-0.4-0.6-0.4-0.6-0.18-0.6-0.4-0.36-0.4-0.8-0.4-0.8-0.18-0.8-0.4-0.135-0.361-0.3-0.313c-0.565 0.164-2.9-0.845-2.9-1.254 0-0.224-0.268-0.305-0.597-0.179-0.328 0.126-0.696-0.03-0.817-0.346-0.309-0.804-1.48-0.747-1.202 0.059 0.151 0.44 0.038 0.401-0.37-0.126-0.324-0.417-0.494-0.912-0.378-1.1s1e-3 -0.341-0.255-0.341c-0.257 0-0.363 0.27-0.236 0.6 0.27 0.706 0.074 0.745-0.956 0.194-0.486-0.26-0.673-0.656-0.52-1.1 0.201-0.586 0.146-0.575-0.355 0.067-0.359 0.462-0.791 0.639-1.096 0.45-0.399-0.246-0.391-0.391 0.039-0.699 0.373-0.266 0.293-0.282-0.257-0.05-0.44 0.186-7.622 0.38-15.961 0.432s-15.254 0.187-15.367 0.3c-0.503 0.504-0.918 0.143-0.464-0.404 0.761-0.916 0.307-0.999-0.608-0.11m-125 0.116c-0.701 0.378-1.148 0.414-1.5 0.122-0.64-0.532-0.659 0.164-0.021 0.802 0.373 0.373 0.287 0.48-0.387 0.48-0.607 0-0.799-0.18-0.638-0.6 0.127-0.33 0.044-0.6-0.184-0.6-0.229 0-0.473 0.405-0.543 0.9-0.09 0.634-0.389 0.891-1.008 0.87-0.484-0.016-0.789 0.119-0.677 0.3 0.113 0.182 0.014 0.33-0.219 0.33s-0.424 0.3-0.424 0.667c0 0.366-0.112 0.554-0.25 0.417-0.137-0.138-0.601 0.147-1.03 0.633-0.43 0.486-0.667 0.658-0.527 0.383s0.141-0.5 2e-3 -0.5c-0.421 0-1.395 1.113-1.395 1.595 0 0.249-0.18 0.341-0.4 0.205s-0.4-0.051-0.4 0.189-0.311 0.555-0.691 0.701-1.271 0.846-1.98 1.554c-0.709 0.709-1.658 1.407-2.109 1.55s-0.82 0.406-0.82 0.584c0 0.179-1.035 1.11-2.3 2.07-2.477 1.88-3.7 3.074-3.7 3.613 0 0.187-0.225 0.342-0.5 0.345-0.275 4e-3 -1.481 0.904-2.679 2-1.199 1.097-2.424 1.994-2.724 1.994-0.299 0-0.433 0.18-0.297 0.4s0.048 0.4-0.195 0.4-0.861 0.405-1.373 0.9-1.409 1.244-1.992 1.664c-0.584 0.42-1.552 1.191-2.151 1.712-0.599 0.52-1.269 1.087-1.489 1.259-0.391 0.305-2.326 2.552-5.144 5.974-0.774 0.94-1.521 2.065-1.659 2.5s-0.419 0.791-0.624 0.791-0.373 0.294-0.373 0.653-0.318 0.944-0.707 1.3-1.154 1.547-1.7 2.647-1.128 2.06-1.293 2.133c-0.165 0.074-0.3 0.372-0.3 0.663 0 0.455-0.567 1.754-2.05 4.699-0.193 0.382-0.35 1.057-0.35 1.5s-0.16 0.805-0.356 0.805-0.471 0.675-0.612 1.5c-0.612 3.592-0.734 4.1-0.99 4.1-0.149 0-0.301 0.585-0.338 1.3-0.036 0.715-0.19 2.994-0.341 5.064-0.25 3.434-0.215 3.741 0.402 3.505 0.4-0.154 0.577-0.098 0.432 0.136-0.268 0.433 10.868 0.575 11.97 0.152 0.348-0.133 0.633-0.504 0.633-0.823 0-0.338 0.194-0.461 0.462-0.296 0.275 0.17 0.353 0.111 0.194-0.147-0.146-0.237-0.01-1.21 0.304-2.161 0.313-0.952 0.563-2.245 0.555-2.875-8e-3 -0.631 0.143-1.261 0.336-1.4 0.194-0.14 0.413-0.795 0.488-1.455s0.3-1.26 0.499-1.333c0.199-0.074 0.362-0.481 0.362-0.906 0-0.424 0.165-1.084 0.367-1.466 0.846-1.6 2.151-4.73 2.158-5.177 5e-3 -0.266 0.158-0.39 0.342-0.277 0.183 0.114 0.333-0.074 0.333-0.417s0.18-0.624 0.4-0.624 0.4-0.349 0.4-0.776 0.185-0.891 0.412-1.031c0.226-0.14 1.212-1.47 2.19-2.955 1.869-2.836 3.461-4.636 4.988-5.638 0.503-0.33 1.816-1.41 2.918-2.4s2.383-2.063 2.848-2.384c0.464-0.321 1.052-0.771 1.306-1 0.253-0.229 1.42-1.226 2.591-2.216 1.172-0.99 2.716-2.385 3.431-3.1 0.716-0.715 1.442-1.3 1.613-1.3s0.535-0.36 0.81-0.8 0.696-0.8 0.936-0.8 0.94-0.54 1.557-1.2 1.329-1.2 1.584-1.2 0.352-0.18 0.216-0.4 7e-3 -0.4 0.317-0.4 1.131-0.542 1.824-1.203c0.692-0.662 1.259-1.118 1.259-1.014 0 0.105 0.624-0.434 1.387-1.196 0.762-0.763 1.563-1.387 1.779-1.387s0.874-0.63 1.461-1.4 1.225-1.4 1.416-1.4c0.741 0 5.803-4.728 5.647-5.275-0.06-0.211 0.054-0.283 0.255-0.159 0.2 0.124 0.587-0.043 0.859-0.37 0.272-0.328 0.73-0.596 1.018-0.596s0.638-0.36 0.778-0.8c0.232-0.732 0.634-0.961 1.228-0.7 0.126 0.055 0.407-0.219 0.625-0.608 0.218-0.39 0.545-0.617 0.726-0.505 0.182 0.113 0.306-0.109 0.276-0.491-0.036-0.458 0.187-0.655 0.65-0.577 0.765 0.128 1.329-0.817 0.902-1.508-0.165-0.266-0.543-0.084-1.001 0.48-0.406 0.5-0.882 0.764-1.06 0.587s-0.058-0.489 0.266-0.694c0.374-0.236-2.423-0.374-7.679-0.378-4.716-3e-3 -8.324-0.165-8.4-0.377-0.073-0.205-0.582-0.13-1.132 0.167m140.32 6.172c0.288 0.017 0.412 0.212 0.276 0.432s0.113 0.4 0.553 0.4 0.911 0.18 1.047 0.4 0.607 0.4 1.047 0.4 0.689 0.18 0.553 0.4 0.036 0.4 0.382 0.4c0.714 0 2.279 0.806 2.696 1.388 0.153 0.214 0.393 0.274 0.533 0.135 0.14-0.14 0.895 0.18 1.677 0.711 0.783 0.531 1.669 0.966 1.968 0.966s0.544 0.191 0.544 0.424 0.165 0.321 0.368 0.196c0.202-0.125 0.639 0.044 0.971 0.376s0.799 0.604 1.038 0.604c0.555 0 2.134 0.878 2.517 1.4 0.162 0.22 0.297 0.237 0.3 0.038s0.366-0.036 0.806 0.362 0.8 0.578 0.8 0.4 0.315-0.039 0.7 0.31c0.701 0.634 0.849 0.69 1.825 0.69 0.288 0 0.92 0.369 1.405 0.82 0.484 0.452 1.058 0.711 1.275 0.577s0.395-0.043 0.395 0.203 0.165 0.345 0.368 0.22c0.202-0.125 0.656 0.061 1.008 0.413s0.861 0.678 1.132 0.724c0.947 0.161 3.492 1.537 3.492 1.889 0 0.195 0.36 0.354 0.8 0.354s0.8 0.191 0.8 0.424 0.165 0.321 0.368 0.196c0.202-0.125 0.639 0.044 0.971 0.376s0.887 0.604 1.232 0.604c0.346 0 0.629 0.18 0.629 0.4s0.36 0.4 0.8 0.4 0.8 0.18 0.8 0.4 0.234 0.4 0.52 0.4c0.736 0 2.673 0.941 2.677 1.3 2e-3 0.165 0.483 0.3 1.07 0.3 0.586 0 0.956 0.11 0.821 0.245-0.273 0.273 3.225 2.151 4.012 2.153 0.275 1e-3 0.5 0.182 0.5 0.402s0.36 0.4 0.8 0.4 0.8 0.18 0.8 0.4 0.345 0.4 0.767 0.4c0.421 0 0.826 0.145 0.9 0.321 0.126 0.305 7.643 4.079 8.123 4.079 0.124 0 0.942 0.452 1.818 1.005s1.592 0.877 1.592 0.72 0.216-0.069 0.48 0.195 0.815 0.48 1.224 0.48 0.632 0.18 0.496 0.4c-0.141 0.228 0.204 0.4 0.8 0.4s0.941 0.172 0.8 0.4c-0.136 0.22 0.123 0.4 0.576 0.4s0.824 0.18 0.824 0.4 0.212 0.4 0.472 0.4c0.755 0 4.328 1.71 4.328 2.071 0 0.181 0.36 0.329 0.8 0.329s0.8 0.18 0.8 0.4 0.345 0.4 0.767 0.4c0.421 0 0.826 0.135 0.9 0.3 0.182 0.411 5.123 2.9 5.756 2.9 0.281 0 0.57 0.145 0.644 0.323 0.185 0.448 14.202 7.277 14.937 7.277 0.328 0 0.596 0.18 0.596 0.4s0.27 0.4 0.6 0.4 0.6 0.18 0.6 0.4 0.36 0.4 0.8 0.4 0.8 0.18 0.8 0.4 0.36 0.4 0.8 0.4 0.8 0.18 0.8 0.4 0.36 0.4 0.8 0.4 0.8 0.18 0.8 0.4 0.191 0.4 0.424 0.4 0.297-0.204 0.143-0.454c-0.236-0.381 2.007 1.028 2.633 1.654 0.581 0.581 2.082 1.196 2.416 0.99 0.211-0.13 0.384-0.06 0.384 0.157s0.54 0.664 1.2 0.993c0.707 0.353 1.2 0.429 1.2 0.185 0-0.227 0.354 0.011 0.787 0.531 0.502 0.603 0.791 0.741 0.8 0.383 9e-3 -0.38 0.254-0.283 0.76 0.3 0.411 0.473 1.041 0.861 1.4 0.861s0.653 0.161 0.653 0.357c0 0.511-0.938 0.801-2.154 0.668-0.575-0.063-1.046 2e-3 -1.046 0.144 0 0.143-0.353 0.26-0.784 0.26-0.687 0-0.714-0.078-0.218-0.627 0.643-0.711-0.713-0.873-1.78-0.213-0.321 0.198-0.447 0.181-0.309-0.042 0.128-0.208-0.313-0.619-0.982-0.915-1.024-0.454-1.269-0.451-1.565 0.015-0.293 0.463-0.351 0.464-0.356 6e-3 -4e-3 -0.371-0.337-0.483-1.038-0.349-0.61 0.117-1.108-4e-3 -1.22-0.295-0.104-0.271-0.765-0.468-1.469-0.437-0.703 0.031-1.787-0.195-2.409-0.502-0.627-0.31-1.634-0.457-2.263-0.331-0.801 0.16-1.203 0.047-1.368-0.382-0.128-0.334-0.55-0.576-0.936-0.537-1.889 0.193-3.733-0.048-3.482-0.454 0.179-0.289-0.247-0.398-1.277-0.327-0.849 0.059-1.961-0.118-2.471-0.394-0.509-0.276-1.553-0.448-2.319-0.382-0.767 0.066-1.52-0.065-1.674-0.29-0.154-0.226-0.82-0.452-1.48-0.502-1.224-0.092-2.8-0.359-2.8-0.473 0-0.035-0.54-0.146-1.2-0.246s-1.74-0.347-2.4-0.549-1.785-0.319-2.5-0.262c-0.715 0.058-1.3-0.023-1.3-0.179 0-0.157-0.855-0.387-1.9-0.513-4.775-0.572-5.683-0.753-5.475-1.089 0.122-0.198-0.688-0.36-1.801-0.36s-2.024-0.18-2.024-0.4-0.799-0.4-1.776-0.4-1.888-0.18-2.024-0.4-1.011-0.4-1.944-0.4-1.867-0.163-2.076-0.361c-0.209-0.199-1.235-0.469-2.28-0.6-4.781-0.601-5.5-0.742-5.5-1.079 0-0.198-0.799-0.36-1.776-0.36s-1.888-0.18-2.024-0.4-1.036-0.4-2-0.4-1.864-0.18-2-0.4-1.101-0.4-2.144-0.4-2.067-0.162-2.276-0.359-1.1-0.461-1.98-0.585c-3.931-0.554-4.849-0.727-5.6-1.056-0.44-0.193-1.43-0.444-2.2-0.559-0.77-0.114-2.39-0.407-3.6-0.651-1.21-0.243-3.055-0.538-4.1-0.655s-1.9-0.375-1.9-0.574c0-0.198-0.799-0.361-1.776-0.361s-1.874-0.157-1.992-0.348c-0.118-0.192-1.074-0.456-2.124-0.588-3.906-0.49-5.037-0.705-5.763-1.094-0.41-0.219-0.745-0.326-0.745-0.238s-0.765 5e-3 -1.7-0.185-2.51-0.457-3.5-0.593-1.98-0.386-2.2-0.556c-0.22-0.169-1.12-0.397-2-0.505s-2.05-0.314-2.6-0.459c-0.55-0.144-2.215-0.372-3.7-0.506s-2.7-0.398-2.7-0.586-0.889-0.342-1.976-0.342-2.088-0.18-2.224-0.4-0.858-0.4-1.605-0.4c-2.672 0-4.101-1.152-2.595-2.093 0.44-0.275 0.8-0.635 0.8-0.8 0-0.351 1.113-1.697 3.53-4.267 0.952-1.012 1.992-2.335 2.311-2.94s0.785-1.1 1.036-1.1 0.355-0.101 0.232-0.224c-0.123-0.124 0.162-0.632 0.633-1.13 1.303-1.376 2.258-2.622 2.262-2.951 2e-3 -0.162 0.542-0.72 1.2-1.24s1.196-1.205 1.196-1.524c0-0.318 0.18-0.467 0.4-0.331s0.4 0.078 0.4-0.128 1.08-1.513 2.4-2.905c1.32-1.391 2.4-2.724 2.4-2.96 0-0.237 0.36-0.69 0.8-1.007s0.8-0.807 0.8-1.088c0-0.282 0.151-0.512 0.336-0.512 0.184 0 0.541-0.451 0.792-1.002 0.252-0.552 0.677-0.957 0.946-0.9 0.457 0.095 0.548-0.093 0.676-1.411 0.03-0.304 0.5-0.48 1.15-0.433 0.605 0.045 1.336 0.096 1.624 0.114m116.77 58.593c0.355-0.507 1.778-0.598 1.467-0.094-0.114 0.183-5e-3 0.333 0.241 0.333s0.329 0.191 0.185 0.424c-0.166 0.269-0.479 0.16-0.856-0.3-0.491-0.598-0.559-0.61-0.392-0.069 0.22 0.71-1.051 0.61-2.037-0.162-0.339-0.265-0.5-0.238-0.5 0.082 0 0.266-0.21 0.342-0.48 0.175-0.374-0.231-0.374-0.332 0-0.457 0.264-0.088 0.48-0.435 0.48-0.771 0-0.435 0.227-0.34 0.792 0.334 0.525 0.626 0.895 0.796 1.1 0.505m-139.38 1.848c-0.033 0.444 0.109 0.704 0.315 0.576 0.455-0.281 0.503-1.385 0.061-1.385-0.173 0-0.342 0.364-0.376 0.809m78.126 0.245c-0.14 0.363 0.164 0.717 0.828 0.97 1.336 0.508 1.39 0.38 0.284-0.682-0.714-0.686-0.937-0.744-1.112-0.288m-127.58 0.596c-0.731 0.854-0.895 1.555-0.201 0.861 0.247-0.247 0.652-0.402 0.9-0.345 0.248 0.056 0.316 0.027 0.151-0.065-0.641-0.358-0.259-0.942 0.466-0.712 0.422 0.134 0.855 0.101 0.962-0.073 0.423-0.685-1.668-0.378-2.278 0.334m50.743-0.05c0.161 0.55 0.544 1.264 0.85 1.586 0.928 0.975 0.682-0.303-0.293-1.523l-0.849-1.063 0.292 1m10.068-0.068c-0.364 0.403-0.527 0.882-0.362 1.064 0.166 0.182 0.031 0.239-0.299 0.126-0.827-0.284-2.661 1.47-1.978 1.891 0.325 0.201 0.401 0.148 0.216-0.151-0.162-0.263-0.05-0.462 0.261-0.462 0.914 0 2.986-1.76 2.782-2.364-0.133-0.393 0.014-0.485 0.485-0.304 0.399 0.153 0.576 0.097 0.431-0.137-0.359-0.581-0.791-0.486-1.536 0.337m71.739 0.819c0 0.488 0.255 0.849 0.6 0.849 0.33 0 0.6-0.158 0.6-0.351s-0.27-0.575-0.6-0.849c-0.501-0.416-0.6-0.358-0.6 0.351m2.664-0.158c-0.825 0.825-0.832 1.007-0.04 1.007 0.37 0 0.518-0.203 0.365-0.5-0.142-0.275 0.072-0.114 0.476 0.358 0.718 0.838 0.753 0.841 1.492 0.112 0.743-0.732 0.741-0.743-0.093-0.582-0.489 0.094-0.997-0.097-1.193-0.448-0.304-0.542-0.417-0.536-1.007 0.053m-55.865 0.809c-0.516 0.549-0.81 0.998-0.652 0.998 0.451 0 2.018-1.569 1.792-1.794-0.111-0.112-0.625 0.246-1.14 0.796m65.601 1.425c0 0.245-0.341 0.319-0.8 0.173s-0.8-0.072-0.8 0.173c0 0.235 0.45 0.427 1 0.427 0.622 0 1-0.227 1-0.6 0-0.33-0.09-0.6-0.2-0.6s-0.2 0.192-0.2 0.427m10 2.316c0 0.411 1.212 0.979 1.492 0.699 0.097-0.098-0.199-0.378-0.658-0.624-0.459-0.245-0.834-0.279-0.834-0.075" fill="#fab31e"/>
<path d="m172.2 185.99c0.088 0.142-0.189 0.787-0.615 1.433s-0.776 0.966-0.777 0.71c-3e-3 -0.516-1.006-0.482-1.491 0.051-0.172 0.188-0.123 0.235 0.107 0.105 0.231-0.131 0.672-0.082 0.982 0.109 0.391 0.242 0.902-8e-3 1.681-0.822 1.247-1.306 1.404-1.845 0.536-1.845-0.321 0-0.511 0.117-0.423 0.259m-94.103 3.608c-0.963 0.897-14.492 1.27-14.492 0.4 0-0.672-0.868-0.265-2.361 1.108-0.782 0.719-1.645 1.222-1.918 1.117-0.487-0.187-1.052 0.39-1.15 1.175-0.027 0.22-0.079 0.67-0.116 1-0.055 0.49-0.13 0.501-0.41 0.059-0.364-0.574-2.445 0.846-2.445 1.667 0 0.696-2.084 2.327-2.681 2.098-0.34-0.13-0.521-0.029-0.431 0.24 0.222 0.667-2.935 3.762-3.671 3.598-0.339-0.076-0.49-9e-3 -0.334 0.15 0.156 0.158-0.114 0.619-0.6 1.024-0.486 0.406-0.72 0.743-0.521 0.751 0.384 0.014-1.796 2.012-2.197 2.013-0.129 0-0.847 1.17-1.595 2.6-0.749 1.43-1.498 2.6-1.666 2.6-0.167 0-0.304 0.36-0.304 0.8s-0.141 0.8-0.313 0.8-0.353 0.485-0.402 1.078c-0.049 0.592-0.23 1.177-0.401 1.3-0.51 0.363-0.622 8.69-0.121 8.999 0.24 0.149 0.437 0.9 0.437 1.67 0 0.832 0.162 1.3 0.4 1.153 0.227-0.14 0.4 0.196 0.4 0.776 0 0.563 0.18 1.024 0.4 1.024s0.4 0.27 0.4 0.6 0.18 0.6 0.4 0.6 0.355 0.164 0.3 0.365c-0.495 1.806 5.974 7.113 10.7 8.777 3.338 1.175 11.01 1.192 12.431 0.027 0.238-0.194 0.796-0.409 1.242-0.477 0.445-0.068 1.28-0.431 1.854-0.808 0.575-0.376 1.243-0.684 1.486-0.684 0.242 0 1.103-0.628 1.914-1.395l1.473-1.396 0.131 1.096c0.072 0.602 0.297 1.266 0.5 1.475s0.369 1.143 0.369 2.076 0.18 1.808 0.4 1.944 0.4 1.036 0.4 2 0.18 1.864 0.4 2c1.598 0.988-1.79 7.349-3.945 7.407-0.14 4e-3 -1.089 0.769-2.109 1.7-1.019 0.931-2.369 2.088-3 2.57-0.63 0.482-1.724 1.382-2.429 2-0.706 0.618-2.029 1.753-2.94 2.523s-1.867 1.597-2.125 1.837-0.875 0.654-1.371 0.92c-0.499 0.267-0.781 0.681-0.63 0.925 0.159 0.258 0.09 0.329-0.165 0.171-0.438-0.271-2.086 1.188-2.086 1.846 0 0.192-0.135 0.266-0.3 0.167-0.165-0.1-0.532 0.069-0.816 0.376-0.283 0.307-0.373 0.559-0.2 0.561 0.174 1e-3 -0.213 0.351-0.859 0.777s-1.333 0.677-1.527 0.557c-0.193-0.119-0.318 0.026-0.277 0.323 0.139 1.015-0.021 1.54-0.47 1.54-0.31 0-0.295-0.185 0.049-0.6 0.622-0.75 0.136-0.794-0.603-0.054-0.939 0.939 0.104 1.526 1.463 0.823 0.662-0.342 1.14-0.418 1.14-0.179 0 0.267 2.899 0.412 8.3 0.416 5.962 5e-3 8.131 0.126 7.7 0.431-0.47 0.332-0.487 0.469-0.08 0.633s0.372 0.44-0.162 1.27l-0.682 1.06 0.876-0.775c0.482-0.426 0.8-0.973 0.707-1.217-0.094-0.243 0.075-0.777 0.374-1.186 0.516-0.705 0.559-0.707 0.817-0.036 0.243 0.633 0.327 0.608 0.797-0.239 0.288-0.521 0.531-0.806 0.539-0.633s0.379 0.119 0.825-0.12 0.707-0.603 0.579-0.809c-0.131-0.213 0.068-0.261 0.459-0.111 0.519 0.199 0.629 0.107 0.444-0.375-0.135-0.352 0.014-0.856 0.331-1.119s0.576-0.323 0.576-0.133 0.457-0.148 1.016-0.751 1.247-1.096 1.529-1.096c0.281 0 1.317-0.771 2.3-1.713 0.984-0.943 2.411-2.155 3.172-2.694s1.974-1.568 2.696-2.286c0.723-0.719 1.443-1.311 1.6-1.316 0.158-5e-3 1.355-0.995 2.661-2.2 1.305-1.205 2.5-2.191 2.654-2.191 0.155 0 1.24-0.9 2.411-2 1.172-1.1 2.26-2 2.419-2s1.179-0.855 2.266-1.9c1.088-1.045 2.765-2.53 3.726-3.3 0.962-0.77 2.162-1.805 2.667-2.3 0.506-0.495 1.046-0.905 1.201-0.911s1.028-0.681 1.939-1.5c0.912-0.819 2.233-1.939 2.936-2.489 0.702-0.55 2.117-1.763 3.142-2.696 1.026-0.932 1.984-1.697 2.13-1.7 0.145-2e-3 1.269-0.949 2.498-2.104 4.069-3.825 5.567-5.1 6.004-5.109 0.238-5e-3 1.4-0.992 2.582-2.194 1.181-1.201 2.297-2.092 2.48-1.979 0.182 0.112 0.52-0.148 0.751-0.58 0.23-0.431 0.779-0.898 1.22-1.038 0.44-0.14 0.8-0.517 0.8-0.84 0-0.322 0.315-0.705 0.7-0.851s1.201-0.725 1.812-1.287c2.276-2.091 2.927-2.647 4.291-3.667 0.768-0.575 1.991-1.601 2.717-2.28 0.727-0.678 1.674-1.346 2.106-1.483s0.695-0.396 0.584-0.575c-0.111-0.18 0.101-0.572 0.471-0.872 0.578-0.468 0.626-0.461 0.338 0.055-0.184 0.33 0.419-0.165 1.338-1.1 0.92-0.935 1.947-1.7 2.281-1.7 0.335 0 0.513-0.156 0.395-0.347-0.294-0.476 1.151-1.728 1.564-1.354 0.182 0.166 0.207 0.085 0.056-0.179-0.266-0.463 1.21-1.586 1.847-1.405 0.165 0.047 0.255-0.125 0.2-0.382s0.267-0.662 0.715-0.9c1.55-0.823 2.897-2.082 3.056-2.856 0.088-0.427 0.461-0.753 0.829-0.724s0.631-0.128 0.584-0.35c-0.046-0.222 0.166-0.494 0.472-0.605 0.382-0.139 0.456-0.03 0.235 0.35-0.176 0.304 0.157 0.118 0.74-0.413 0.771-0.702 0.946-1.101 0.645-1.464-0.291-0.351-0.267-0.591 0.081-0.806 0.281-0.174 0.567-0.094 0.66 0.185 0.116 0.35 0.3 0.307 0.634-0.151 0.408-0.557 1.126-0.851 2.373-0.968 0.178-0.017 0.205-0.223 0.06-0.458-0.145-0.234 0.069-0.685 0.476-1.001 0.664-0.515 0.668-0.549 0.035-0.328-0.53 0.184-0.643 0.086-0.457-0.399 0.223-0.58-0.56-0.645-7.749-0.645-6.132 0-8.311-0.136-9.343-0.584-0.74-0.322-1.091-0.592-0.779-0.6 0.311-9e-3 0.464-0.118 0.339-0.244-0.126-0.125-0.592 0-1.037 0.278-0.751 0.468-0.761 0.546-0.139 1.057 0.607 0.5 0.585 0.534-0.231 0.36-1.028-0.22-1.701 0.64-1.4 1.79 0.226 0.864-1.292 1.09-1.634 0.243-0.155-0.385-0.209-0.379-0.233 0.024-0.019 0.309-0.236 0.4-0.532 0.223-0.375-0.225-0.37-0.14 0.019 0.341 0.401 0.494 0.41 0.709 0.039 0.938-0.305 0.189-0.377 0.129-0.196-0.164 0.417-0.676-0.379-0.565-0.958 0.134-0.272 0.327-0.685 0.478-0.917 0.334-0.253-0.156-0.331-0.023-0.195 0.333 0.135 0.352-0.123 0.813-0.632 1.13-0.741 0.462-0.805 0.455-0.46-0.048 0.22-0.32 0.086-0.24-0.298 0.178s-0.581 0.949-0.438 1.18c0.145 0.235 0.069 0.303-0.17 0.155-0.236-0.146-0.713 0.018-1.059 0.364s-0.838 0.5-1.094 0.342c-0.289-0.179-0.357-0.113-0.179 0.174 0.157 0.254 0.099 0.462-0.129 0.462-0.227 0-0.969 0.61-1.648 1.356-1.427 1.568-2.646 1.537-3.051-0.077-0.4-1.594-1.179-2.897-1.538-2.573-0.178 0.162-0.19 0.061-0.026-0.224 0.165-0.284 0.013-0.953-0.336-1.486-0.348-0.532-0.634-1.244-0.634-1.582s-0.18-0.614-0.4-0.614-0.4-0.36-0.4-0.8-0.18-0.822-0.4-0.85c-0.22-0.027-0.61-0.072-0.867-0.1-0.256-0.028-0.541-0.275-0.633-0.55-0.111-0.333 0.067-0.411 0.532-0.232 0.477 0.183 0.607 0.119 0.41-0.2-0.203-0.329-2.399-0.468-7.386-0.468-4.811 0-7.244-0.148-7.556-0.46-0.346-0.346-0.444-0.254-0.397 0.373 0.035 0.457 0.193 0.751 0.352 0.653 0.32-0.198 0.88 0.552 0.999 1.336 0.042 0.276-0.106 0.389-0.329 0.252-0.248-0.154-0.235 0.066 0.032 0.565 0.327 0.613 0.312 0.876-0.06 1.053-0.273 0.13-0.092 0.162 0.403 0.07s0.9-4e-3 0.9 0.195c0 0.2-0.192 0.363-0.427 0.363s-0.063 0.512 0.382 1.137c0.613 0.861 0.698 1.25 0.348 1.6-0.351 0.351-0.301 0.463 0.204 0.463 0.428 0 0.586 0.215 0.439 0.597-0.131 0.34 0.046 0.702 0.41 0.842 0.352 0.134 0.548 0.394 0.435 0.575-0.112 0.182-0.018 0.446 0.209 0.586s0.309 0.423 0.183 0.628c-0.127 0.204-0.057 0.372 0.154 0.372 0.349 0 1.12 1.681 1.173 2.555 0.012 0.196 0.172 0.466 0.356 0.6 0.566 0.415 1.88 2.983 1.362 2.662-0.351-0.216-0.34-0.065 0.039 0.541 0.289 0.463 0.662 0.842 0.829 0.842s0.304 0.345 0.304 0.767c0 0.421 0.225 0.842 0.5 0.935 0.681 0.229-0.336 1.456-1.608 1.939-0.517 0.197-0.829 0.538-0.692 0.758 0.136 0.221 0.037 0.401-0.22 0.401s-0.853 0.349-1.324 0.774c-3.729 3.373-6.534 5.708-6.815 5.673-0.122-0.015-1.3 1.048-2.619 2.363-1.319 1.314-2.583 2.39-2.81 2.39-0.226 0-0.412 0.18-0.412 0.4s-0.204 0.4-0.453 0.4-0.744 0.324-1.1 0.719-1.277 1.149-2.047 1.674c-0.77 0.526-1.994 1.552-2.719 2.281-0.726 0.729-1.446 1.331-1.6 1.337-0.155 6e-3 -1.436 1.086-2.848 2.4s-2.73 2.389-2.929 2.389-0.647 0.286-0.997 0.636c-0.823 0.823-1.226 0.183-1.365-2.164-0.054-0.92-0.243-1.672-0.42-1.672s-0.322-0.607-0.322-1.35c0-0.742-0.256-2.076-0.569-2.964-0.314-0.887-0.471-1.712-0.351-1.833 0.12-0.12 0.08-0.541-0.091-0.936-0.365-0.847-0.493-1.437-0.716-3.317-0.091-0.77-0.28-1.67-0.42-2-0.139-0.33-0.316-1.159-0.394-1.842-0.077-0.684-0.247-1.415-0.378-1.626-0.13-0.211-0.28-1.217-0.332-2.236-0.053-1.019-0.243-1.761-0.423-1.651-0.179 0.111-0.326-0.32-0.326-0.958s-0.252-1.998-0.561-3.023c-0.308-1.025-0.482-1.864-0.386-1.864s-0.018-0.36-0.253-0.8c-0.325-0.607-0.304-0.801 0.086-0.806 0.391-5e-3 0.398-0.08 0.032-0.312-0.264-0.169-0.527-0.989-0.583-1.822-0.056-0.834-0.245-1.604-0.419-1.712-0.174-0.107-0.318-0.77-0.321-1.472-7e-3 -1.62-0.403-3.119-0.764-2.895-0.153 0.094-0.267-0.763-0.254-1.905 0.025-2.194-0.687-3.468-1.777-3.18-0.33 0.088-0.174-0.096 0.347-0.408 0.795-0.475 0.843-0.606 0.3-0.815-0.356-0.136-0.647-0.444-0.647-0.684s0.15-0.344 0.333-0.23c0.184 0.113 0.334-0.056 0.334-0.377 0-0.32-0.161-0.582-0.357-0.582-0.197 0-0.246-0.18-0.11-0.4 0.39-0.63 0.026-0.47-0.908 0.4m90.104 7e-3c-0.138 0.223-0.406 0.31-0.596 0.193-0.608-0.376-0.812 0.492-0.229 0.976 0.447 0.371 0.615 0.297 0.824-0.361 0.145-0.456 0.457-0.707 0.696-0.559 0.258 0.159 0.317 0.081 0.147-0.194-0.351-0.568-0.519-0.579-0.842-0.055m93.213 0.384c-0.394 0.434-0.843 0.712-0.998 0.616-0.156-0.096-3.687-0.199-7.847-0.227l-7.564-0.053-0.121 0.977c-0.102 0.827-0.287 0.946-1.2 0.772-1.007-0.191-1.039-0.156-0.479 0.536 0.403 0.498 0.427 0.637 0.073 0.425-0.352-0.212-0.597-0.048-0.739 0.495-0.141 0.537-0.425 0.731-0.839 0.572-0.385-0.147-0.525-0.076-0.363 0.186 0.249 0.404-0.789 1.11-1.432 0.974-0.165-0.035-0.279 0.071-0.253 0.236 0.126 0.797-0.087 1.322-0.447 1.1-0.22-0.136-0.4-0.102-0.4 0.076-1e-3 0.614-1.882 2.509-2.199 2.217-0.176-0.161-0.221 0.106-0.101 0.593 0.12 0.488 0.101 0.848-0.041 0.8-0.408-0.136-2.021 1.619-1.743 1.897 0.137 0.137-0.148 0.353-0.633 0.48-0.486 0.126-0.883 0.479-0.883 0.784 0 0.304-0.18 0.553-0.4 0.553s-0.4 0.27-0.4 0.6-0.3 0.6-0.667 0.6c-0.366 0-0.549 0.117-0.406 0.26 0.143 0.144-0.052 0.517-0.433 0.83-0.439 0.36-0.473 0.465-0.094 0.284 0.33-0.156-0.301 0.595-1.401 1.671-1.101 1.075-2.253 2.444-2.561 3.041-0.307 0.598-0.711 0.992-0.898 0.877-0.187-0.116-0.34-0.027-0.34 0.197s-0.72 1.142-1.6 2.04-1.6 1.765-1.6 1.927-0.714 1.01-1.587 1.884-1.593 1.825-1.6 2.113-0.193 0.412-0.413 0.276-0.402-0.102-0.405 0.076c-8e-3 0.439-1.549 2.372-2.895 3.629-0.605 0.565-1.1 1.184-1.1 1.375 0 0.362-1.149 1.726-2.7 3.206-0.495 0.472-0.9 1.024-0.9 1.226s-0.54 0.871-1.2 1.488-1.2 1.275-1.2 1.464-0.36 0.568-0.8 0.843-0.8 0.684-0.8 0.91c0 0.225-0.585 1.01-1.3 1.744-1.583 1.625-3.5 3.862-3.5 4.084 0 0.089-0.562 0.746-1.248 1.459-0.687 0.713-1.722 1.916-2.3 2.674-0.579 0.758-1.817 2.192-2.752 3.186-0.935 0.993-1.7 1.933-1.7 2.089 0 0.155-0.72 1.031-1.6 1.947s-1.6 1.789-1.6 1.94-1.08 1.438-2.4 2.86-2.4 2.718-2.4 2.879c0 0.162-0.627 0.921-1.393 1.688-0.767 0.766-1.442 1.627-1.5 1.913-0.059 0.286-0.425 0.757-0.814 1.047-0.388 0.29-0.585 0.74-0.436 1s0.131 0.347-0.04 0.192c-0.414-0.372-1.417 0.656-1.417 1.452 0 0.373-0.343 0.629-0.843 0.629-0.585 0-0.772 0.184-0.612 0.6 0.135 0.352 5e-3 0.6-0.315 0.6-0.586 0-1.206 1.09-1.077 1.894 0.044 0.271-0.153 0.436-0.437 0.365-0.284-0.07-0.38-0.052-0.214 0.041 0.167 0.092 0.201 0.333 0.077 0.534-0.242 0.392 0.341 0.513 0.707 0.147 0.12-0.121 6.772-0.207 14.781-0.191 9.79 0.019 14.983-0.119 15.847-0.42 1.436-0.501 1.714-1.17 0.486-1.17-0.44 0-0.8-0.18-0.8-0.4s-0.135-0.379-0.3-0.353c-0.982 0.155-1.715-0.1-1.462-0.509 0.169-0.274 0.111-0.353-0.144-0.196-0.236 0.146-0.673 0.039-0.971-0.238s-0.806-0.563-1.129-0.636c-0.322-0.073-0.678-0.263-0.79-0.423s-0.789-0.527-1.504-0.816c-0.838-0.339-1.3-0.801-1.3-1.301 0-0.426 0.167-0.672 0.371-0.546s0.485-0.128 0.624-0.566c0.139-0.437 0.648-1.115 1.131-1.506 0.483-0.39 1.218-1.25 1.634-1.91 0.415-0.66 1.044-1.502 1.398-1.871 0.353-0.369 1.272-1.396 2.042-2.281 0.77-0.886 1.997-2.277 2.727-3.092 0.73-0.814 1.81-2.122 2.4-2.906 0.59-0.785 1.748-2.128 2.573-2.986s1.5-1.719 1.5-1.912 0.744-1.116 1.653-2.052c0.91-0.935 2.125-2.325 2.7-3.088 0.576-0.763 1.722-2.09 2.547-2.948s1.5-1.733 1.5-1.944c0-0.21 0.72-1.096 1.6-1.967s1.6-1.725 1.6-1.898c0-0.172 0.9-1.277 2-2.455s2-2.281 2-2.452c0-0.17 0.9-1.21 2-2.31s2-2.106 2-2.236c0-0.306 0.547-0.951 3.1-3.662 1.155-1.226 2.1-2.391 2.1-2.588s0.437-0.852 0.972-1.455c1.217-1.374 2.055-2.369 3.828-4.54 0.77-0.943 1.813-2.13 2.318-2.636 0.505-0.507 0.775-0.922 0.6-0.923s0.367-0.631 1.205-1.401c0.838-0.769 1.412-1.578 1.277-1.798-0.136-0.219 0.053-0.399 0.419-0.399 0.426 0 0.584-0.215 0.438-0.595-0.125-0.328-0.1-0.576 0.057-0.553 0.825 0.123 1.286-0.117 1.286-0.671 0-0.341 0.444-1.031 0.987-1.534 0.723-0.67 0.868-1.032 0.542-1.358s-0.215-0.384 0.413-0.22c0.488 0.128 0.88 0.032 0.908-0.222 0.143-1.278 0.227-1.438 0.698-1.337 0.281 0.06 0.405-0.062 0.275-0.272-0.13-0.211-0.053-0.496 0.17-0.634 0.224-0.138 0.407-0.622 0.407-1.074 0-0.67 0.193-0.786 1.037-0.625 0.911 0.174 1.016 0.084 0.86-0.734-0.098-0.512-3e-3 -0.895 0.212-0.851s0.482-0.17 0.593-0.476c0.14-0.386 0.034-0.454-0.35-0.223-0.454 0.273-0.452 0.209 0.013-0.363 0.444-0.547 0.635-0.585 0.894-0.177 0.181 0.285 0.345 0.429 0.365 0.319 0.019-0.11 0.111-0.605 0.203-1.1 0.206-1.103 0.094-1.118-0.818-0.109m-193.21 14.009c0.136 0.22 0.035 0.4-0.225 0.4-0.362 0-0.363 0.133-5e-3 0.564 0.446 0.537 0.619 1.485 1.104 6.036 0.118 1.1 0.363 2.094 0.547 2.209 0.183 0.115 0.377 1.06 0.431 2.1 0.053 1.04 0.264 1.891 0.467 1.891 0.204 0-0.652 0.99-1.901 2.2-1.25 1.21-2.485 2.203-2.745 2.206-0.28 4e-3 -0.228 0.165 0.127 0.394 0.525 0.34 0.521 0.389-0.035 0.394-0.349 3e-3 -1.392 0.726-2.317 1.606-1.626 1.547-6.448 2.495-6.448 1.268 0-0.183-0.45-0.574-1-0.868s-1-0.739-1-0.988c0-0.248-0.214-0.666-0.476-0.928-0.503-0.503-0.795-1.488-0.735-2.484 0.02-0.33 0.05-1.132 0.067-1.782 0.025-0.979 1.142-2.289 6.475-7.6 3.544-3.53 6.405-6.553 6.357-6.718-0.132-0.45 1.027-0.361 1.312 0.1m-13.924 65.458c-0.098 0.097-0.695 0.263-1.327 0.368-0.823 0.137-0.984 0.083-0.568-0.191 0.319-0.21 0.724-0.293 0.9-0.185 0.175 0.108 0.319-4e-3 0.319-0.25s0.192-0.329 0.427-0.184c0.234 0.145 0.346 0.344 0.249 0.442m154.98 1.698c-0.378 0.24-0.408 0.427-0.1 0.618 0.508 0.313 1.243-0.04 1.243-0.598 0-0.465-0.429-0.472-1.143-0.02m1.404 0.23c-0.233 0.607 1.189 1.697 1.634 1.253 0.124-0.125 0.479 0.086 0.788 0.467 0.5 0.618 0.511 0.592 0.107-0.24-0.25-0.514-0.557-0.832-0.682-0.708-0.125 0.125-0.539-0.133-0.921-0.573-0.581-0.67-0.733-0.703-0.926-0.199m-161.61 0.814c-0.159 0.415 0.027 0.6 0.607 0.6 0.698 0 0.754-0.099 0.338-0.6-0.274-0.33-0.547-0.6-0.606-0.6-0.06 0-0.212 0.27-0.339 0.6m-2.047 1.045c-0.791 0.796-0.79 0.797 0.179 0.438 0.534-0.198 1.041-0.567 1.126-0.821 0.233-0.701-0.418-0.51-1.305 0.383m17.404 4.141c-0.277 0.333-0.707 0.488-0.957 0.345-0.25-0.142-0.322-0.112-0.158 0.068 0.163 0.18 0.073 0.614-0.2 0.964-0.449 0.576-0.421 0.58 0.301 0.037 1.309-0.984 1.909-1.626 1.707-1.829-0.105-0.105-0.417 0.082-0.693 0.415" fill="#f49639"/>
<path d="m315.44 0.27c-0.421 0.118-1.771 1.279-3 2.581-4.893 5.183-7.265 7.549-7.568 7.549-1.368 0-2.882 7.449-1.667 8.2 0.22 0.136 0.4 0.676 0.4 1.2s0.18 1.064 0.4 1.2 0.4 0.676 0.4 1.2 0.18 1.064 0.4 1.2 0.4 0.676 0.4 1.2 0.18 1.064 0.4 1.2 0.4 0.676 0.4 1.2 0.18 1.064 0.4 1.2 0.4 0.676 0.4 1.2 0.18 1.064 0.4 1.2 0.4 0.676 0.4 1.2 0.18 1.064 0.4 1.2 0.4 0.676 0.4 1.2 0.18 1.064 0.4 1.2 0.4 0.687 0.4 1.224 0.18 0.976 0.4 0.976 0.4 0.444 0.4 0.986c0 0.951 0.858 3.963 1.6 5.614 0.197 0.44 0.424 1.16 0.503 1.6 0.08 0.44 0.363 0.754 0.629 0.697 0.325-0.069 0.404 0.219 0.239 0.877-0.136 0.54-0.1 1.216 0.08 1.503 0.418 0.67 0.661 2.292 0.249 1.659-0.482-0.739-2.253 0.887-1.919 1.763 0.206 0.542 0.158 0.594-0.212 0.227-0.368-0.366-0.587-0.366-0.957 0-0.264 0.261-0.958 0.831-1.543 1.267-0.773 0.576-0.994 1.013-0.809 1.597 0.234 0.736 0.193 0.753-0.477 0.207-0.66-0.538-0.708-0.53-0.478 0.083 0.182 0.485 0.089 0.616-0.325 0.457-0.319-0.123-0.58-0.067-0.58 0.123 0 0.189-0.541 0.584-1.202 0.877-0.662 0.293-1.101 0.697-0.977 0.898 0.125 0.201-0.074 0.365-0.44 0.365-0.438 0-0.585 0.213-0.428 0.621 0.137 0.358 0.07 0.517-0.161 0.374-0.219-0.135-0.645-0.01-0.946 0.279-0.301 0.29-0.958 0.796-1.46 1.126-0.902 0.593-3.287 2.529-4.318 3.504-0.293 0.277-0.442 0.727-0.332 1 0.159 0.392 0.207 0.392 0.232-4e-3 0.018-0.275 0.3-0.5 0.629-0.5 0.328 0 0.821-0.36 1.096-0.8s0.737-0.8 1.027-0.8 0.416-0.18 0.28-0.4 0.033-0.4 0.376-0.4 0.624-0.18 0.624-0.4 0.264-0.4 0.586-0.4 0.761-0.328 0.975-0.728c0.215-0.4 1.13-0.972 2.035-1.271 1.611-0.532 2.185-1.001 2.199-1.801 3e-3 -0.22 0.567-0.344 1.253-0.275 1.317 0.131 1.935-0.582 1.497-1.725-0.164-0.427 0.042-0.604 0.712-0.615 10.431-0.163 17.759 0.101 18.068 0.652 0.266 0.475 0.463 0.505 0.907 0.136 0.342-0.283 0.568-0.309 0.568-0.065 0 0.628-1.299 0.979-1.632 0.441-0.449-0.728-1.623 0.615-1.329 1.521 0.198 0.61 0.165 0.632-0.201 0.13-0.296-0.405-0.536-0.46-0.738-0.171-0.165 0.236-0.66 0.579-1.1 0.762-0.718 0.299-0.728 0.35-0.1 0.5 0.385 0.092 0.7 0.345 0.7 0.562s-0.208 0.266-0.462 0.109c-0.286-0.177-0.353-0.11-0.176 0.176 0.414 0.671 0.949 0.566 1.219-0.238 0.129-0.385 0.954-1.143 1.833-1.684s2.18-1.533 2.892-2.203 1.924-1.662 2.694-2.203 2.061-1.665 2.869-2.497c0.807-0.832 1.644-1.513 1.859-1.513s1.31-0.9 2.433-2c1.124-1.1 2.144-2 2.267-2s1.101-0.9 2.172-2 2.185-2.001 2.474-2.002 1.336-0.768 2.326-1.704 2.423-2.144 3.184-2.685c1.393-0.989 2.587-2.042 6.705-5.909 1.229-1.155 2.402-2.1 2.605-2.1s1.06-0.72 1.906-1.6c2.033-2.116 1.802-2.207 6.605 2.595 4.817 4.818 4.691 4.493 2.595 6.653-0.88 0.907-1.6 1.818-1.6 2.026s-0.9 1.255-2 2.326-2 2.058-2 2.192-0.438 0.682-0.973 1.217-1.48 1.651-2.1 2.479c-0.62 0.829-1.487 1.886-1.927 2.35-1.618 1.707-2.6 2.978-2.6 3.365 0 0.218-0.201 0.397-0.447 0.397-0.245 0-0.356 0.347-0.245 0.77 0.15 0.574 0.043 0.709-0.423 0.531-0.454-0.175-0.556-0.063-0.375 0.409 0.184 0.479 0.08 0.584-0.396 0.402-0.43-0.165-0.549-0.092-0.356 0.22 0.159 0.257 0.075 0.468-0.188 0.468-1.087 0-2.763 2.79-1.861 3.1 0.736 0.253 1.158 0.051 0.961-0.461-0.32-0.834 0.127-1.068 1.083-0.567 0.828 0.434 0.83 0.426 0.121-0.374-0.543-0.612-0.603-0.895-0.238-1.12 0.294-0.182 0.385-0.135 0.228 0.118-0.143 0.231 0.04 0.535 0.406 0.676 0.736 0.282 1.363-0.421 1.066-1.195-0.352-0.916 0.613-1.015 9.861-1.008l9.211 6e-3 1.096 1.046 1.096 1.045-1.4-0.831c-1.663-0.988-2.303-1.081-1.429-0.206 0.346 0.345 0.629 0.795 0.629 1 0 0.204 0.281 0.371 0.624 0.371 0.382 0 0.514 0.193 0.341 0.5-0.226 0.4-0.175 0.4 0.256 0 0.645-0.598 1.733-0.672 1.375-0.093-0.138 0.223-0.419 0.302-0.624 0.176-0.204-0.127-0.372-0.059-0.372 0.151 0 0.209 0.27 0.484 0.6 0.611 0.33 0.126 0.6 0.028 0.6-0.219s0.621 0.191 1.38 0.972c0.808 0.832 1.458 1.231 1.569 0.962 0.103-0.253 0.202-0.134 0.219 0.264 0.018 0.398 0.192 0.625 0.387 0.504s0.577 0.049 0.849 0.376c0.272 0.328 0.376 0.596 0.231 0.596s-0.07 0.36 0.165 0.8 0.608 0.8 0.827 0.8c0.22 0 1.042 0.642 1.826 1.427 0.785 0.784 1.532 1.322 1.66 1.194s-2.569-3.023-5.992-6.434c-4.022-4.007-6.058-6.305-5.753-6.494 0.26-0.161 0.907-0.923 1.439-1.693s1.648-2.061 2.48-2.869c1.489-1.445 1.993-2.275 1.014-1.67-0.275 0.17 0.67-0.899 2.1-2.376 6.677-6.896 8.21-10.74 5.778-14.485-1.29-1.987-20.013-20.6-20.722-20.6-0.361 0-0.657-0.18-0.657-0.4s-0.54-0.4-1.2-0.4-1.2-0.18-1.2-0.4-0.45-0.4-1-0.4-1 0.18-1 0.4-0.63 0.4-1.4 0.4-1.4 0.18-1.4 0.4-0.262 0.4-0.582 0.4-0.995 0.409-1.5 0.909c-0.505 0.499-1.548 1.349-2.318 1.887s-2.061 1.659-2.869 2.491c-0.807 0.832-1.644 1.513-1.859 1.513s-1.31 0.9-2.433 2c-1.124 1.1-2.222 2-2.441 2s-0.398 0.18-0.398 0.4-0.27 0.4-0.6 0.4-0.6 0.195-0.6 0.433c0 0.855-0.914 0.02-11.861-10.833l-11.095-11-3.622-0.071c-1.992-0.04-3.966 0.024-4.387 0.141m11.37 24.524c7.855 7.855 7.676 7.6 6.095 8.633-0.605 0.396-1.761 1.407-2.569 2.246-0.807 0.84-1.59 1.527-1.739 1.527s-0.775 0.54-1.392 1.2c-1.556 1.665-1.867 1.523-2.182-0.994-0.151-1.206-0.441-2.297-0.646-2.423-0.205-0.127-0.372-0.659-0.372-1.183s-0.18-1.064-0.4-1.2-0.4-0.676-0.4-1.2-0.18-1.064-0.4-1.2-0.4-0.676-0.4-1.2-0.18-1.064-0.4-1.2-0.4-0.687-0.4-1.224-0.18-0.976-0.4-0.976-0.4-0.54-0.4-1.2-0.18-1.2-0.4-1.2-0.4-0.54-0.4-1.2-0.18-1.2-0.4-1.2-0.4-0.54-0.4-1.2-0.18-1.2-0.4-1.2-0.4-0.18-0.4-0.4c0-1.238 1.94 0.33 8.405 6.794m24.939 36.662c-0.629 0.8-1.39 1.709-1.692 2.019-1.021 1.051-0.093 1.031 1.162-0.025 0.686-0.578 1.131-1.05 0.988-1.05-0.142 0 0.024-0.283 0.369-0.629 0.559-0.558 0.882-1.771 0.473-1.771-0.085 0-0.67 0.655-1.3 1.456m-29.234-0.252c-0.053 0.699 0.014 0.729 0.515 0.229 0.712-0.712 0.73-1.033 0.06-1.033-0.283 0-0.542 0.362-0.575 0.804m-3.91 2.897c-1.32 1.311-2.85 2.673-3.4 3.028-1.295 0.835-2.9 2.504-2.649 2.756 0.358 0.358 1.066-0.333 0.794-0.774-0.162-0.261-0.082-0.319 0.199-0.146 0.276 0.171 1.105-0.375 2.03-1.338 0.86-0.895 1.739-1.627 1.954-1.627 0.396 0 4.472-3.826 4.472-4.198 0-0.664-1.304 0.218-3.4 2.299m-262.5 0.787c-0.507 0.245-0.9 0.799-0.9 1.269 0 0.776 0.072 0.757 1.024-0.27 0.564-0.607 1.181-1.007 1.373-0.889 0.191 0.118 0.461 0.032 0.599-0.191 0.325-0.526-0.939-0.477-2.096 0.081m5.3-0.107c0.44 0.165 1.16 0.429 1.6 0.587s1.41 1.09 2.155 2.071c0.746 0.981 1.466 1.664 1.6 1.518 0.135-0.147 0.02-0.347-0.255-0.445s-0.5-0.442-0.5-0.764c0-0.773-1.798-2.548-2.582-2.548-0.34 0-0.618-0.18-0.618-0.4s-0.495-0.382-1.1-0.36c-0.949 0.034-0.99 0.081-0.3 0.341m305.57 0.919c-0.157 0.495-0.619 1.135-1.027 1.423-0.813 0.572-0.989 1.277-0.319 1.277 0.233 0 0.312-0.18 0.176-0.4s-0.04-0.4 0.212-0.4c0.253 0 0.779-0.395 1.17-0.877l0.711-0.878 2.431 2.478c1.337 1.362 2.632 2.477 2.877 2.477 0.246 0 0.335 0.18 0.199 0.4s-0.057 0.4 0.176 0.4c0.755 0 0.45-0.765-0.573-1.435-0.548-0.359-0.88-0.841-0.738-1.071 0.142-0.229 0.096-0.332-0.103-0.226-0.4 0.211-2.37-1.634-2.421-2.268-0.017-0.22-0.416-0.578-0.886-0.795s-0.855-0.532-0.855-0.7c0-0.685-0.766-0.242-1.03 0.595m-73.27 0.51c-1.082 1.156-1.136 1.453-0.2 1.102 0.722-0.271 1.665-1.283 1.687-1.812 0.024-0.549-0.577-0.262-1.487 0.71m53.5 0.492c-0.55 0.824-1.36 1.876-1.8 2.339-1.706 1.794-2.6 2.985-2.599 3.462 0 0.658 2.962-2.697 3.873-4.388 0.47-0.873 0.918-1.25 1.308-1.1 0.327 0.125 0.464 0.097 0.305-0.061-0.159-0.159 0.01-0.619 0.374-1.022 0.526-0.58 0.547-0.731 0.101-0.729-0.309 1e-3 -1.012 0.676-1.562 1.499m-295.11 1.96c-1.379 1.396-2.363 2.538-2.187 2.538 0.42 0 5.101-4.735 4.871-4.927-0.097-0.082-1.305 0.994-2.684 2.389m339.51 0.248c0 0.061 1.395 1.456 3.1 3.1l3.1 2.99-2.99-3.1c-2.777-2.879-3.21-3.283-3.21-2.99m-102 0.914c0 0.343-0.135 0.548-0.3 0.456s-0.89 0.437-1.611 1.176c-1.628 1.668-1.267 1.759 0.572 0.144 0.752-0.66 1.511-1.2 1.686-1.2 0.176 0 0.32-0.27 0.32-0.6s-0.15-0.6-0.334-0.6c-0.183 0-0.333 0.281-0.333 0.624m72.6 1.376c-0.545 0.234-0.609 0.357-0.2 0.385 0.49 0.033 0.472 0.137-0.1 0.572-0.736 0.559-0.916 1.043-0.386 1.043 0.172 0 0.632-0.54 1.022-1.2s0.654-1.187 0.587-1.172c-0.068 0.016-0.483 0.183-0.923 0.372m12.116 0.452c-0.093 0.28 0.881 1.552 2.165 2.828 2.798 2.781 3.659 3.121 1.063 0.42-1.005-1.045-2.104-2.318-2.443-2.828-0.4-0.603-0.675-0.75-0.785-0.42m-64.643 0.435c-0.26 0.26-0.473 0.371-0.473 0.246s-0.63 0.367-1.4 1.093c-2.026 1.911-1.718 2.125 0.5 0.348 1.045-0.838 1.975-1.579 2.067-1.648 0.091-0.069 0.079-0.213-0.027-0.319-0.106-0.107-0.406 0.019-0.667 0.28m-262.41 1.393c-0.517 0.535-0.863 1.05-0.768 1.145 0.094 0.094 0.593-0.277 1.108-0.825s0.861-1.063 0.768-1.145c-0.092-0.081-0.591 0.29-1.108 0.825m-2.711 2.691c-0.248 0.27-0.575 0.927-0.726 1.46-0.223 0.789-0.112 0.724 0.601-0.348 0.883-1.327 0.961-2.021 0.125-1.112m259.86 0.211c-0.547 0.42-0.899 0.858-0.783 0.975 0.116 0.116 0.727-0.232 1.356-0.773 1.343-1.154 0.879-1.318-0.573-0.202m-234 0.269c-0.014 0.702 1.132 3.265 1.585 3.545 0.223 0.138 0.406-0.014 0.406-0.339s-0.141-0.65-0.312-0.724c-0.172-0.073-0.618-0.763-0.991-1.533s-0.683-1.197-0.688-0.949m268.39 0.292c0 0.325-0.225 0.681-0.5 0.792-0.314 0.127-0.332 0.214-0.049 0.233 0.694 0.049 1.474-1.044 0.968-1.356-0.23-0.143-0.419 6e-3 -0.419 0.331m-59.4 1.223c-0.66 0.529-1.1 1.063-0.978 1.187 0.259 0.262 2.761-1.41 2.771-1.853 0.012-0.533-0.566-0.318-1.793 0.666m90.338-0.544c0.405 0.253 0.945 0.491 1.2 0.53 0.254 0.039 0.687 0.211 0.962 0.383s0.5 0.134 0.5-0.084c0-0.37-0.646-0.644-2.6-1.102-0.756-0.177-0.759-0.162-0.062 0.273m11.062 0.997c0 0.223 0.36 0.664 0.8 0.981s0.8 0.933 0.8 1.368c0 0.622 0.105 0.687 0.486 0.306 0.382-0.382 0.21-0.763-0.8-1.772-0.707-0.708-1.286-1.105-1.286-0.883m-80.982 1.599c-0.609 0.565-1.008 1.125-0.887 1.247 0.121 0.121 0.701-0.26 1.287-0.847 1.39-1.389 1.042-1.736-0.4-0.4m35.484 0.567c-0.404 0.647-0.391 0.747 0.073 0.569 0.605-0.232 1.192-1.354 0.709-1.354-0.161 0-0.512 0.353-0.782 0.785m41.898-0.624c0 0.088 0.529 0.345 1.176 0.571 0.966 0.336 1.137 0.308 0.957-0.161-0.187-0.489-2.133-0.863-2.133-0.41m-304.9 0.904c0.275 0.111 0.5 0.459 0.5 0.774 0 0.581 0.791 2.196 1.254 2.561 0.139 0.11 0.343 0.56 0.453 1 0.154 0.613 0.211 0.543 0.247-0.3 0.025-0.605-0.092-1.1-0.26-1.1s-0.617-0.72-0.998-1.6c-0.382-0.88-0.919-1.586-1.195-1.568-0.4 0.025-0.4 0.072-1e-3 0.233m203.51 0.215c-0.996 0.578-2.756 2.323-2.332 2.312 0.175-4e-3 1.036-0.634 1.914-1.4 1.652-1.442 1.768-1.695 0.418-0.912m18.287 3.767c-1.097 1.057-1.24 1.312-0.532 0.948 1.199-0.615 3.019-2.395 2.45-2.395-0.229 0-1.093 0.651-1.918 1.447m38.099-0.527c-1.25 1.531-1.464 1.878-1.149 1.858 0.192-0.012 0.768-0.552 1.279-1.2 0.512-0.648 0.782-1.171 0.6-1.163-0.181 9e-3 -0.51 0.236-0.73 0.505m-63.266 2.511c-0.696 0.753-1.146 1.364-1 1.357 0.33-0.014 2.866-2.3 2.866-2.582 0-0.499-0.694-0.044-1.866 1.225m-209.89 0.399c-0.338 0.882 0.033 1.253 0.643 0.643 0.335-0.335 0.349-0.597 0.046-0.9-0.302-0.302-0.503-0.227-0.689 0.257m230.36 1.658c-1.309 1.23-1.585 1.621-0.8 1.131 1.52-0.948 3.534-3.042 2.9-3.015-0.055 3e-3 -1 0.85-2.1 1.884m-245.22-0.888c0.178 0.44 0.463 1.34 0.634 2l0.309 1.2 0.041-1.451c0.026-0.917-0.207-1.653-0.634-2-0.601-0.489-0.639-0.461-0.35 0.251m17.431 3.813c0.663 1.313 1.289 2.387 1.391 2.387 0.226 0-0.573-1.886-1.284-3.032-0.284-0.457-0.417-0.93-0.297-1.051 0.12-0.12-0.059-0.325-0.398-0.455-0.443-0.17-0.277 0.437 0.588 2.151m266.04-2.142c-0.025 0.26-0.337 0.763-0.694 1.119-0.356 0.357-0.544 0.751-0.419 0.877 0.415 0.414 1.529-1.054 1.343-1.768-0.101-0.384-0.204-0.487-0.23-0.228m-282.85 1.834c0 0.112 0.269 0.719 0.598 1.349 0.517 0.993 0.597 1.033 0.6 0.295 1e-3 -0.468-0.268-1.075-0.598-1.349s-0.6-0.406-0.6-0.295m239.59 1.513c-0.547 0.421-0.814 0.762-0.594 0.76 0.529-5e-3 1.991-1.12 1.765-1.347-0.097-0.097-0.624 0.167-1.171 0.587m-24.338 1.195c-1.227 1.022-0.564 1.01 0.744-0.013 0.55-0.43 0.82-0.78 0.6-0.778-0.22 3e-3 -0.825 0.359-1.344 0.791m63.944-0.088c0 0.178-0.367 0.718-0.816 1.2-0.448 0.481-0.662 0.875-0.475 0.875s0.74-0.54 1.228-1.2 0.702-1.2 0.475-1.2-0.412 0.146-0.412 0.325m-278.4 0.985c0 0.573 0.169 1.147 0.375 1.275 0.215 0.132 0.29-0.238 0.176-0.868-0.269-1.48-0.551-1.689-0.551-0.407m295.28 1.874c-1.092 1.477-1.156 2.079-0.082 0.777 0.436-0.528 0.983-1.186 1.215-1.461 0.233-0.275 0.27-0.5 0.083-0.5s-0.734 0.533-1.216 1.184m-61.073 0.014c-0.399 0.441-0.595 0.802-0.435 0.802 0.421 0 1.561-1.205 1.345-1.421-0.101-0.101-0.51 0.177-0.91 0.619m-23.602 0.488c-0.887 0.512-1.976 1.514-1.646 1.514 0.116 0 0.874-0.45 1.684-1 1.482-1.005 1.454-1.375-0.038-0.514m-191.13 1.539c0.336 0.674 0.689 1.147 0.785 1.052 0.247-0.248-0.725-2.277-1.091-2.277-0.167 0-0.03 0.551 0.306 1.225m254.23 0.683c-1.051 1.283-1.229 2.204-0.205 1.062 1.349-1.504 1.795-2.17 1.449-2.162-0.192 4e-3 -0.752 0.499-1.244 1.1m19.895-0.868c0 0.206-0.824 1.316-1.831 2.467s-1.719 2.093-1.582 2.093c0.729 0 4.066-4.28 3.657-4.69-0.134-0.134-0.244-0.075-0.244 0.13m-64.171 1.989c-0.424 0.309-0.657 0.676-0.519 0.814 0.139 0.139 0.552-0.048 0.919-0.414 0.862-0.863 0.596-1.129-0.4-0.4m-25.343 2.025c-0.503 0.52-0.756 0.946-0.562 0.946 0.424 0 1.873-1.545 1.64-1.749-0.09-0.079-0.575 0.282-1.078 0.803m84.702 1.792c-0.323 0.466-0.916 1.276-1.317 1.8-0.401 0.525-0.601 0.954-0.444 0.954s0.532-0.315 0.835-0.7c1.628-2.071 2.158-2.9 1.854-2.9-0.187 0-0.604 0.381-0.928 0.846m-64.613 0.822-1.175 1.268 1.288-0.886c1.379-0.95 1.977-1.65 1.41-1.65-0.191 0-0.877 0.571-1.523 1.268m-3.375 2.673c-1.304 0.851-2.137 1.655-1.93 1.862 0.09 0.091 0.669-0.269 1.285-0.799 0.617-0.529 1.329-1.037 1.583-1.129 0.254-0.091 0.372-0.26 0.262-0.377-0.11-0.116-0.65 0.083-1.2 0.443m45.368 0.585c-0.238 0.272-0.763 1.03-1.166 1.684-0.67 1.085-0.624 1.066 0.515-0.21 0.688-0.77 1.258-1.535 1.267-1.7 0.022-0.406-0.106-0.359-0.616 0.226m-71.731 2.299c-0.74 0.646-1.186 1.169-0.991 1.162 0.456-0.016 2.696-1.978 2.492-2.183-0.085-0.085-0.76 0.375-1.501 1.021m-191.21-0.149c-0.015 0.482 0.152 0.988 0.372 1.124 0.473 0.292 0.473-0.099 0-1.2-0.331-0.771-0.345-0.769-0.372 0.076m186.6 3.924c-0.841 0.77-1.371 1.393-1.178 1.383 0.497-0.023 3.566-2.783 3.095-2.783-0.214 0-1.076 0.63-1.917 1.4m90.265 0.2c-0.275 0.44-0.395 0.8-0.268 0.8 0.3 0 1.375-1.073 1.375-1.371 0-0.509-0.638-0.18-1.107 0.571m-235.81 0.786c0.244 0.936 1.319 1.964 1.319 1.263 0-0.247-0.18-0.449-0.4-0.449s-0.4-0.259-0.4-0.576-0.163-0.678-0.363-0.801c-0.199-0.123-0.27 0.13-0.156 0.563m141.2 2.627c-0.618 0.543-0.964 0.987-0.77 0.987s0.775-0.45 1.292-1c1.195-1.272 0.931-1.266-0.522 0.013m90.596 1.686c-0.729 0.981-1.269 1.837-1.2 1.904 0.07 0.066 0.736-0.678 1.481-1.653 0.746-0.975 1.286-1.831 1.2-1.903-0.085-0.072-0.751 0.672-1.481 1.652m-94.814 1.943c-0.298 0.336-0.461 0.69-0.365 0.787 0.097 0.097 0.503-0.185 0.903-0.627 0.399-0.441 0.563-0.795 0.364-0.787-0.199 9e-3 -0.605 0.29-0.902 0.627m-148.41 3.558c0.454 0.77 0.895 1.4 0.98 1.4s-0.146-0.63-0.514-1.4c-0.367-0.77-0.808-1.4-0.98-1.4-0.171 0 0.06 0.63 0.514 1.4m143.78 0.429c-0.424 0.309-0.693 0.64-0.599 0.734s0.518-0.082 0.941-0.392c0.424-0.309 0.693-0.64 0.599-0.734s-0.518 0.082-0.941 0.392m72.954 2.671c-0.743 0.935-1.035 1.446-0.648 1.136 0.728-0.585 2.442-2.836 2.159-2.836-0.088 0-0.768 0.765-1.511 1.7m18.487 0.722c-0.913 1.156-0.869 1.663 0.059 0.676 1.031-1.097 1.551-1.897 1.22-1.876-0.192 0.012-0.768 0.552-1.279 1.2m-22.77 4.176c-0.569 0.647-0.639 1.002-0.196 1.002 0.167 0 0.528-0.36 0.803-0.8 0.571-0.913 0.144-1.055-0.607-0.202m16.962 2.933c-0.364 0.403-0.662 0.88-0.662 1.062 0 0.181 0.36-0.086 0.8-0.593s0.8-0.985 0.8-1.061c0-0.3-0.305-0.107-0.938 0.592m-2.48 3.009c-0.911 1.002-1.036 1.606-0.159 0.771 0.513-0.489 0.853-0.966 0.755-1.06-0.098-0.093-0.366 0.037-0.596 0.289m-102.88 2.858c-0.743 0.844-0.606 1.075 0.3 0.509 0.44-0.275 0.8-0.636 0.8-0.803 0-0.477-0.551-0.329-1.1 0.294m-4.915 4.231-1.385 1.229 1.6-1.113c0.88-0.612 1.675-1.165 1.767-1.229 0.091-0.064-5e-3 -0.116-0.215-0.116s-1.005 0.553-1.767 1.229m81.896 0.584c-0.395 0.543-0.575 0.981-0.4 0.974 0.176-6e-3 0.642-0.456 1.038-1 0.395-0.543 0.575-0.981 0.4-0.974-0.176 6e-3 -0.642 0.456-1.038 1m-90.852 6.816c-0.424 0.309-0.693 0.64-0.599 0.734s0.518-0.082 0.941-0.392c0.424-0.309 0.693-0.64 0.599-0.734s-0.518 0.082-0.941 0.392m18.8 3.58c-0.424 0.32-0.694 0.659-0.6 0.752 0.094 0.094 0.596-0.174 1.115-0.595 1.094-0.887 0.635-1.027-0.515-0.157m-133.74 1.791c0 0.77 0.082 1.085 0.183 0.7 0.1-0.385 0.1-1.015 0-1.4-0.101-0.385-0.183-0.07-0.183 0.7m207.6 8.8c-0.275 0.44-0.362 0.8-0.193 0.8s0.532-0.36 0.807-0.8 0.362-0.8 0.193-0.8-0.532 0.36-0.807 0.8m-141.64 26.834c-0.52 0.421-0.79 0.76-0.6 0.753 0.488-0.018 1.92-1.144 1.715-1.348-0.094-0.094-0.596 0.174-1.115 0.595m-4.4 23.2c-0.52 0.421-0.79 0.76-0.6 0.753 0.488-0.018 1.92-1.144 1.715-1.348-0.094-0.094-0.596 0.174-1.115 0.595m75.945 10.564c-0.515 0.55-0.862 1.066-0.769 1.148 0.092 0.082 0.587-0.368 1.098-0.999 1.146-1.412 0.944-1.503-0.329-0.149" fill="#ec593c"/>
</g>
</svg>
