<svg height="512" viewBox="0 0 64 64" width="512" xmlns="http://www.w3.org/2000/svg" xmlns:xlink="http://www.w3.org/1999/xlink"><linearGradient id="New_Gradient_Swatch_1" gradientUnits="userSpaceOnUse" x1="32" x2="32" y1=".157" y2="64.246"><stop offset="0" stop-color="#fff33b"/><stop offset=".014" stop-color="#fee72e"/><stop offset=".042" stop-color="#fed51b"/><stop offset=".07" stop-color="#fdca10"/><stop offset=".1" stop-color="#fdc70c"/><stop offset=".4" stop-color="#f3903f"/><stop offset=".8" stop-color="#ed683c"/><stop offset="1" stop-color="#e93e3a"/></linearGradient><linearGradient id="New_Gradient_Swatch_1-3" x1="4" x2="4" xlink:href="#New_Gradient_Swatch_1" y1=".157" y2="64.246"/><linearGradient id="New_Gradient_Swatch_1-4" x1="17.5" x2="17.5" xlink:href="#New_Gradient_Swatch_1" y1=".157" y2="64.246"/><linearGradient id="New_Gradient_Swatch_1-5" x1="60" x2="60" xlink:href="#New_Gradient_Swatch_1" y1=".157" y2="64.246"/><linearGradient id="New_Gradient_Swatch_1-6" x1="46.5" x2="46.5" xlink:href="#New_Gradient_Swatch_1" y1=".157" y2="64.246"/><path d="m32 2c-12.336 0-22 10.1-22 23 0 14.237 20.408 35.78 21.277 36.69a1 1 0 0 0 1.446 0c.869-.91 21.277-22.453 21.277-36.69 0-12.9-9.664-23-22-23zm0 57.53c-3.668-4.009-20-22.535-20-34.53 0-11.972 8.6-21 20-21s20 9.028 20 21c0 11.99-16.333 30.522-20 34.53z" fill="url(#New_Gradient_Swatch_1)"/><path d="m32 7a17 17 0 1 0 17 17 17.019 17.019 0 0 0 -17-17zm0 32a15 15 0 1 1 15-15 15.017 15.017 0 0 1 -15 15z" fill="url(#New_Gradient_Swatch_1)"/><path d="m2 60h4v2h-4z" fill="url(#New_Gradient_Swatch_1-3)"/><path d="m8 60h19v2h-19z" fill="url(#New_Gradient_Swatch_1-4)"/><path d="m58 60h4v2h-4z" fill="url(#New_Gradient_Swatch_1-5)"/><path d="m37 60h19v2h-19z" fill="url(#New_Gradient_Swatch_1-6)"/><path d="m42.625 20.219-10-8a1 1 0 0 0 -1.25 0l-10 8a1 1 0 0 0 .625 1.781h1v11a1 1 0 0 0 1 1h16a1 1 0 0 0 1-1v-11h1a1 1 0 0 0 .625-1.781zm-8.625 11.781h-4v-6h4zm5-11v11h-3v-7a1 1 0 0 0 -1-1h-6a1 1 0 0 0 -1 1v7h-3v-11a1 1 0 0 0 -.4-.8l7.4-5.919 7.4 5.919a1 1 0 0 0 -.4.8z" fill="url(#New_Gradient_Swatch_1)"/></svg>