<svg height="480pt" viewBox="-144 0 480 480" width="480pt" xmlns="http://www.w3.org/2000/svg"><g fill="#bddbff"><path d="m160 440v32h-128v-32zm0 0"/><path d="m80 232h32v208h-32zm0 0"/><path d="m128 200v32h-64v-32zm0 0"/></g><path d="m104 32h-48c-4.417969 0-8 3.582031-8 8v136h16v-64h40c22.089844 0 40-17.910156 40-40s-17.910156-40-40-40zm0 64h-40v-48h40c13.253906 0 24 10.746094 24 24s-10.746094 24-24 24zm0 0" fill="#3d9ae2"/><path d="m176 0h-160c-8.835938 0-16 7.164062-16 16v176c0 8.835938 7.164062 16 16 16h40v24c0 4.417969 3.582031 8 8 8h8v192h-40c-4.417969 0-8 3.582031-8 8v32c0 4.417969 3.582031 8 8 8h128c4.417969 0 8-3.582031 8-8v-32c0-4.417969-3.582031-8-8-8h-40v-192h8c4.417969 0 8-3.582031 8-8v-24h40c8.835938 0 16-7.164062 16-16v-176c0-8.835938-7.164062-16-16-16zm-24 464h-112v-16h112zm-48-32h-16v-192h16zm16-208h-48v-16h48zm-104-32v-176h160v176zm0 0" fill="#3d9ae2"/></svg>