<?xml version="1.0" encoding="iso-8859-1"?>
<!-- Generator: Adobe Illustrator 19.0.0, SVG Export Plug-In . SVG Version: 6.00 Build 0)  -->
<svg version="1.1" id="Capa_1" xmlns="http://www.w3.org/2000/svg" xmlns:xlink="http://www.w3.org/1999/xlink" x="0px" y="0px"
	 viewBox="0 0 480 480" style="enable-background:new 0 0 480 480;" xml:space="preserve">
<g>
	<path style="fill:#78B9EB;" d="M48,48h64v64H48V48z"/>
	<path style="fill:#78B9EB;" d="M368,48h64v64h-64V48z"/>
	<path style="fill:#78B9EB;" d="M48,368h64v64H48V368z"/>
</g>
<g>
	<path style="fill:#1E81CE;" d="M40,48v64c0,4.418,3.582,8,8,8h64c4.418,0,8-3.582,8-8V48c0-4.418-3.582-8-8-8H48
		C43.582,40,40,43.582,40,48z M56,56h48v48H56V56z"/>
	<path style="fill:#1E81CE;" d="M368,120h64c4.418,0,8-3.582,8-8V48c0-4.418-3.582-8-8-8h-64c-4.418,0-8,3.582-8,8v64
		C360,116.418,363.582,120,368,120z M376,56h48v48h-48V56z"/>
	<path style="fill:#1E81CE;" d="M112,360H48c-4.418,0-8,3.582-8,8v64c0,4.418,3.582,8,8,8h64c4.418,0,8-3.582,8-8v-64
		C120,363.582,116.418,360,112,360z M104,424H56v-48h48V424z"/>
	<path style="fill:#1E81CE;" d="M72,72h16v16H72V72z"/>
	<path style="fill:#1E81CE;" d="M16,16h64V0H8C3.582,0,0,3.582,0,8v72h16V16z"/>
	<path style="fill:#1E81CE;" d="M16,400H0v72c0,4.418,3.582,8,8,8h72v-16H16V400z"/>
	<path style="fill:#1E81CE;" d="M472,0h-72v16h64v64h16V8C480,3.582,476.418,0,472,0z"/>
	<path style="fill:#1E81CE;" d="M464,464h-48v16h56c4.418,0,8-3.582,8-8v-72h-16V464z"/>
	<path style="fill:#1E81CE;" d="M392,72h16v16h-16V72z"/>
	<path style="fill:#1E81CE;" d="M72,392h16v16H72V392z"/>
	<path style="fill:#1E81CE;" d="M136,72h16v16h-16V72z"/>
	<path style="fill:#1E81CE;" d="M248,72h16v16h-16V72z"/>
	<path style="fill:#1E81CE;" d="M280,72v32h32V88h-16V72H280z"/>
	<path style="fill:#1E81CE;" d="M168,72v16h16V72V56h128v16h16V56V40H152v16h16V72z"/>
	<path style="fill:#1E81CE;" d="M136,104h16v32h-16V104z"/>
	<path style="fill:#1E81CE;" d="M152,136h16v16h-16V136z"/>
	<path style="fill:#1E81CE;" d="M168,104v16h16v16h32v-32h8V88h8V72h-32v16h8v16H168z"/>
	<path style="fill:#1E81CE;" d="M232,120h16v16h-16V120z"/>
	<path style="fill:#1E81CE;" d="M320,168v32h16v-16h16v-16H320z"/>
	<path style="fill:#1E81CE;" d="M248,104h16v16h-16V104z"/>
	<path style="fill:#1E81CE;" d="M168,376h32v-16h-16v-16h-16V376z"/>
	<path style="fill:#1E81CE;" d="M328,88h16v16h-16V88z"/>
	<path style="fill:#1E81CE;" d="M320,120h32v32h-32V120z"/>
	<path style="fill:#1E81CE;" d="M40,248v80h16v-64h16v-16H40z"/>
	<path style="fill:#1E81CE;" d="M40,136h80v16H40V136z"/>
	<path style="fill:#1E81CE;" d="M72,168H40v48h16v-16h16V168z"/>
	<path style="fill:#1E81CE;" d="M200,248v-16h16v-32h16v-16h16v-16h-16v-16h-16v16v16h-16v-16h-32v32h16v48H200z"/>
	<path style="fill:#1E81CE;" d="M136,440h16v-16h24v16h16v-16h8v-16h-48v-16h-16V440z"/>
	<path style="fill:#1E81CE;" d="M304,272v-16h16v-16h16v-32h-48v32h-16v16h16v16H304z"/>
	<path style="fill:#1E81CE;" d="M280,176h16v-16h-16v-16h-16v48h16V176z"/>
	<path style="fill:#1E81CE;" d="M88,168h32v16H88V168z"/>
	<path style="fill:#1E81CE;" d="M136,168h16v16h-16V168z"/>
	<path style="fill:#1E81CE;" d="M88,248h16v16H88V248z"/>
	<path style="fill:#1E81CE;" d="M136,264h16v16h-16V264z"/>
	<path style="fill:#1E81CE;" d="M152,248h16v16h-16V248z"/>
	<path style="fill:#1E81CE;" d="M152,376h16v16h-16V376z"/>
	<path style="fill:#1E81CE;" d="M72,216h16v16H72V216z"/>
	<path style="fill:#1E81CE;" d="M88,200h32v16H88V200z"/>
	<path style="fill:#1E81CE;" d="M120,216h16v16h-16V216z"/>
	<path style="fill:#1E81CE;" d="M248,208h16v16h-16V208z"/>
	<path style="fill:#1E81CE;" d="M232,224h16v16h-16V224z"/>
	<path style="fill:#1E81CE;" d="M256,264h16v16h-16V264z"/>
	<path style="fill:#1E81CE;" d="M360,248h32v16h-32V248z"/>
	<path style="fill:#1E81CE;" d="M392,264h16v16h-16V264z"/>
	<path style="fill:#1E81CE;" d="M224,264h16v16h-16V264z"/>
	<path style="fill:#1E81CE;" d="M216,264h-32v16h-16v16h32v-16h16V264z"/>
	<path style="fill:#1E81CE;" d="M232,408v16h-16v16h32v-16h16v-16H232z"/>
	<path style="fill:#1E81CE;" d="M312,408v16h-16v16h32v-16h16v-16H312z"/>
	<path style="fill:#1E81CE;" d="M384,168v-16h16v-16h-32v16h-16v16H384z"/>
	<path style="fill:#1E81CE;" d="M240,320h16v16h-16V320z"/>
	<path style="fill:#1E81CE;" d="M240,352h16v16h-16V352z"/>
	<path style="fill:#1E81CE;" d="M216,392h16v16h-16V392z"/>
	<path style="fill:#1E81CE;" d="M224,320v-16h-16v16v16h16V320z"/>
	<path style="fill:#1E81CE;" d="M256,368h16v16h-16V368z"/>
	<path style="fill:#1E81CE;" d="M376,424h-32v16h48v-32h-16V424z"/>
	<path style="fill:#1E81CE;" d="M376,376h16v16h-16V376z"/>
	<path style="fill:#1E81CE;" d="M344,376h16v16h-16V376z"/>
	<path style="fill:#1E81CE;" d="M312,376h16v16h-16V376z"/>
	<path style="fill:#1E81CE;" d="M328,360h16v16h-16V360z"/>
	<path style="fill:#1E81CE;" d="M280,408h16v16h-16V408z"/>
	<path style="fill:#1E81CE;" d="M136,232h16v16h-16V232z"/>
	<path style="fill:#1E81CE;" d="M424,440h16v-48h-32v16h16V440z"/>
	<path style="fill:#1E81CE;" d="M408,360h16v16h-16V360z"/>
	<path style="fill:#1E81CE;" d="M440,344v-48h-16v32h-16v16H440z"/>
	<path style="fill:#1E81CE;" d="M424,264h16v16h-16V264z"/>
	<path style="fill:#1E81CE;" d="M440,136h-16v72h-32v-16h-32v32h64v24h16V136z"/>
	<path style="fill:#1E81CE;" d="M272,352h48v-32h-16v-32h-48v32h16V352z"/>
	<path style="fill:#1E81CE;" d="M136,296v-16H72v64h32v-16H88v-16h32v48h16v-16h32v-16h-16v-16h16v-16H136z"/>
	<path style="fill:#1E81CE;" d="M408,296h-32v-16h-32v32h16v48h16v-16h16v-32h16V296z"/>
</g>
<g>
</g>
<g>
</g>
<g>
</g>
<g>
</g>
<g>
</g>
<g>
</g>
<g>
</g>
<g>
</g>
<g>
</g>
<g>
</g>
<g>
</g>
<g>
</g>
<g>
</g>
<g>
</g>
<g>
</g>
</svg>
