<?xml version="1.0" encoding="iso-8859-1"?>
<!-- Generator: Adobe Illustrator 21.0.0, SVG Export Plug-In . SVG Version: 6.00 Build 0)  -->
<svg version="1.1" id="Capa_1" xmlns="http://www.w3.org/2000/svg" xmlns:xlink="http://www.w3.org/1999/xlink" x="0px" y="0px"
	 viewBox="0 0 858.649 858.649" style="enable-background:new 0 0 858.649 858.649;" xml:space="preserve">
<g>
	<g id="Notebook-pencil">
		
			<linearGradient id="SVGID_1_" gradientUnits="userSpaceOnUse" x1="429.3246" y1="857.6892" x2="429.3246" y2="-48.658" gradientTransform="matrix(1 0 0 -1 0 843.3784)">
			<stop  offset="0" style="stop-color:#FFF33B"/>
			<stop  offset="0.014" style="stop-color:#FEE72E"/>
			<stop  offset="0.042" style="stop-color:#FED51B"/>
			<stop  offset="0.07" style="stop-color:#FDCA10"/>
			<stop  offset="0.1" style="stop-color:#FDC70C"/>
			<stop  offset="0.4" style="stop-color:#F3903F"/>
			<stop  offset="0.8" style="stop-color:#ED683C"/>
			<stop  offset="1" style="stop-color:#E93E3A"/>
		</linearGradient>
		<path style="fill:url(#SVGID_1_);" d="M815.717,0H500.879c-23.711,0-42.932,19.222-42.932,42.932v57.243h-57.243V42.932
			C400.703,19.222,381.481,0,357.771,0H42.932C19.222,0,0,19.222,0,42.932v772.784c0,23.711,19.222,42.932,42.932,42.932h314.838
			c23.711,0,42.932-19.222,42.932-42.932v-57.243h57.243v57.243c0,23.711,19.222,42.932,42.932,42.932h314.838
			c23.711,0,42.932-19.222,42.932-42.932V42.932C858.649,19.222,839.428,0,815.717,0z M486.568,701.23v28.622H372.081V701.23
			H486.568z M400.703,672.609v-57.243h57.243v57.243H400.703z M372.081,586.744v-28.622h114.487v28.622H372.081z M400.703,529.5
			v-57.243h57.243V529.5H400.703z M372.081,443.635v-28.622h114.487v28.622H372.081z M400.703,386.392v-57.243h57.243v57.243
			H400.703z M372.081,300.527v-28.622h114.487v28.622H372.081z M400.703,243.284v-57.243h57.243v57.243H400.703z M372.081,157.419
			v-28.622h114.487v28.622H372.081z M372.081,815.717c0,7.904-6.407,14.311-14.311,14.311H42.932
			c-7.904,0-14.311-6.407-14.311-14.311V42.932c0-7.904,6.407-14.311,14.311-14.311h314.838c7.904,0,14.311,6.407,14.311,14.311
			v57.243h-14.311c-7.904,0-14.311,6.407-14.311,14.311v57.243c0,7.904,6.407,14.311,14.311,14.311h14.311v57.243h-14.311
			c-7.904,0-14.311,6.407-14.311,14.311v57.243c0,7.904,6.407,14.311,14.311,14.311h14.311v57.243h-14.311
			c-7.904,0-14.311,6.407-14.311,14.311v57.243c0,7.904,6.407,14.311,14.311,14.311h14.311V529.5h-14.311
			c-7.904,0-14.311,6.407-14.311,14.311v57.243c0,7.904,6.407,14.311,14.311,14.311h14.311v57.243h-14.311
			c-7.904,0-14.311,6.407-14.311,14.311v57.243c0,7.904,6.407,14.311,14.311,14.311h14.311V815.717z M830.028,815.717
			c0,7.904-6.407,14.311-14.311,14.311H500.879c-7.904,0-14.311-6.407-14.311-14.311v-57.243h14.311
			c7.904,0,14.311-6.407,14.311-14.311v-57.243c0-7.904-6.407-14.311-14.311-14.311h-14.311v-57.243h14.311
			c7.904,0,14.311-6.407,14.311-14.311v-57.243c0-7.904-6.407-14.311-14.311-14.311h-14.311v-57.243h14.311
			c7.904,0,14.311-6.407,14.311-14.311v-57.243c0-7.904-6.407-14.311-14.311-14.311h-14.311v-57.243h14.311
			c7.904,0,14.311-6.407,14.311-14.311v-57.243c0-7.904-6.407-14.311-14.311-14.311h-14.311v-57.243h14.311
			c7.904,0,14.311-6.407,14.311-14.311v-57.243c0-7.904-6.407-14.311-14.311-14.311h-14.311V42.932
			c0-7.904,6.407-14.311,14.311-14.311h314.838c7.904,0,14.311,6.407,14.311,14.311V815.717z"/>
		
			<linearGradient id="SVGID_2_" gradientUnits="userSpaceOnUse" x1="672.6658" y1="857.6892" x2="672.6658" y2="-48.658" gradientTransform="matrix(1 0 0 -1 0 843.3784)">
			<stop  offset="0" style="stop-color:#FFF33B"/>
			<stop  offset="0.014" style="stop-color:#FEE72E"/>
			<stop  offset="0.042" style="stop-color:#FED51B"/>
			<stop  offset="0.07" style="stop-color:#FDCA10"/>
			<stop  offset="0.1" style="stop-color:#FDC70C"/>
			<stop  offset="0.4" style="stop-color:#F3903F"/>
			<stop  offset="0.8" style="stop-color:#ED683C"/>
			<stop  offset="1" style="stop-color:#E93E3A"/>
		</linearGradient>
		<path style="fill:url(#SVGID_2_);" d="M729.952,71.554H615.365c-7.904,0-14.311,6.407-14.311,14.311
			c0,0,0.1,572.791,0.115,572.991c0.069,1.467,0.363,2.915,0.873,4.293c0.129,0.315,0.2,0.63,0.343,0.945
			c0.143,0.315,0.1,0.358,0.186,0.53l57.243,114.487c3.526,7.074,12.118,9.95,19.192,6.425c2.783-1.387,5.038-3.642,6.425-6.425
			l57.243-114.487c0.086-0.172,0.115-0.358,0.186-0.53c0.072-0.172,0.215-0.63,0.329-0.945c0.52-1.375,0.82-2.824,0.887-4.293
			c0.086-0.2,0.2-572.991,0.2-572.991c0-7.904-6.407-14.311-14.311-14.311C729.962,71.554,729.957,71.554,729.952,71.554z
			 M629.676,157.419h28.622v486.568h-28.622V157.419z M686.919,157.419h28.622v486.568h-28.622V157.419z M629.676,100.176h85.865
			v28.622h-85.865V100.176z M667.142,729.852h10.933l-5.467,10.933L667.142,729.852z M692.386,701.23h-39.555l-14.311-28.622h68.177
			L692.386,701.23z"/>
		
			<linearGradient id="SVGID_3_" gradientUnits="userSpaceOnUse" x1="186.0407" y1="857.6892" x2="186.0407" y2="-48.658" gradientTransform="matrix(1 0 0 -1 0 843.3784)">
			<stop  offset="0" style="stop-color:#FFF33B"/>
			<stop  offset="0.014" style="stop-color:#FEE72E"/>
			<stop  offset="0.042" style="stop-color:#FED51B"/>
			<stop  offset="0.07" style="stop-color:#FDCA10"/>
			<stop  offset="0.1" style="stop-color:#FDC70C"/>
			<stop  offset="0.4" style="stop-color:#F3903F"/>
			<stop  offset="0.8" style="stop-color:#ED683C"/>
			<stop  offset="1" style="stop-color:#E93E3A"/>
		</linearGradient>
		<rect x="85.865" y="85.865" style="fill:url(#SVGID_3_);" width="200.351" height="28.622"/>
		
			<linearGradient id="SVGID_4_" gradientUnits="userSpaceOnUse" x1="186.0407" y1="857.6892" x2="186.0407" y2="-48.658" gradientTransform="matrix(1 0 0 -1 0 843.3784)">
			<stop  offset="0" style="stop-color:#FFF33B"/>
			<stop  offset="0.014" style="stop-color:#FEE72E"/>
			<stop  offset="0.042" style="stop-color:#FED51B"/>
			<stop  offset="0.07" style="stop-color:#FDCA10"/>
			<stop  offset="0.1" style="stop-color:#FDC70C"/>
			<stop  offset="0.4" style="stop-color:#F3903F"/>
			<stop  offset="0.8" style="stop-color:#ED683C"/>
			<stop  offset="1" style="stop-color:#E93E3A"/>
		</linearGradient>
		<rect x="85.865" y="171.73" style="fill:url(#SVGID_4_);" width="200.351" height="28.622"/>
		
			<linearGradient id="SVGID_5_" gradientUnits="userSpaceOnUse" x1="186.0407" y1="857.6892" x2="186.0407" y2="-48.658" gradientTransform="matrix(1 0 0 -1 0 843.3784)">
			<stop  offset="0" style="stop-color:#FFF33B"/>
			<stop  offset="0.014" style="stop-color:#FEE72E"/>
			<stop  offset="0.042" style="stop-color:#FED51B"/>
			<stop  offset="0.07" style="stop-color:#FDCA10"/>
			<stop  offset="0.1" style="stop-color:#FDC70C"/>
			<stop  offset="0.4" style="stop-color:#F3903F"/>
			<stop  offset="0.8" style="stop-color:#ED683C"/>
			<stop  offset="1" style="stop-color:#E93E3A"/>
		</linearGradient>
		<rect x="85.865" y="257.595" style="fill:url(#SVGID_5_);" width="200.351" height="28.622"/>
		
			<linearGradient id="SVGID_6_" gradientUnits="userSpaceOnUse" x1="186.0407" y1="857.6892" x2="186.0407" y2="-48.658" gradientTransform="matrix(1 0 0 -1 0 843.3784)">
			<stop  offset="0" style="stop-color:#FFF33B"/>
			<stop  offset="0.014" style="stop-color:#FEE72E"/>
			<stop  offset="0.042" style="stop-color:#FED51B"/>
			<stop  offset="0.07" style="stop-color:#FDCA10"/>
			<stop  offset="0.1" style="stop-color:#FDC70C"/>
			<stop  offset="0.4" style="stop-color:#F3903F"/>
			<stop  offset="0.8" style="stop-color:#ED683C"/>
			<stop  offset="1" style="stop-color:#E93E3A"/>
		</linearGradient>
		<rect x="85.865" y="343.46" style="fill:url(#SVGID_6_);" width="200.351" height="28.622"/>
		
			<linearGradient id="SVGID_7_" gradientUnits="userSpaceOnUse" x1="186.0407" y1="857.6892" x2="186.0407" y2="-48.658" gradientTransform="matrix(1 0 0 -1 0 843.3784)">
			<stop  offset="0" style="stop-color:#FFF33B"/>
			<stop  offset="0.014" style="stop-color:#FEE72E"/>
			<stop  offset="0.042" style="stop-color:#FED51B"/>
			<stop  offset="0.07" style="stop-color:#FDCA10"/>
			<stop  offset="0.1" style="stop-color:#FDC70C"/>
			<stop  offset="0.4" style="stop-color:#F3903F"/>
			<stop  offset="0.8" style="stop-color:#ED683C"/>
			<stop  offset="1" style="stop-color:#E93E3A"/>
		</linearGradient>
		<rect x="85.865" y="415.014" style="fill:url(#SVGID_7_);" width="200.351" height="28.622"/>
		
			<linearGradient id="SVGID_8_" gradientUnits="userSpaceOnUse" x1="186.0407" y1="857.6892" x2="186.0407" y2="-48.658" gradientTransform="matrix(1 0 0 -1 0 843.3784)">
			<stop  offset="0" style="stop-color:#FFF33B"/>
			<stop  offset="0.014" style="stop-color:#FEE72E"/>
			<stop  offset="0.042" style="stop-color:#FED51B"/>
			<stop  offset="0.07" style="stop-color:#FDCA10"/>
			<stop  offset="0.1" style="stop-color:#FDC70C"/>
			<stop  offset="0.4" style="stop-color:#F3903F"/>
			<stop  offset="0.8" style="stop-color:#ED683C"/>
			<stop  offset="1" style="stop-color:#E93E3A"/>
		</linearGradient>
		<rect x="85.865" y="500.879" style="fill:url(#SVGID_8_);" width="200.351" height="28.622"/>
		
			<linearGradient id="SVGID_9_" gradientUnits="userSpaceOnUse" x1="186.0407" y1="857.6892" x2="186.0407" y2="-48.658" gradientTransform="matrix(1 0 0 -1 0 843.3784)">
			<stop  offset="0" style="stop-color:#FFF33B"/>
			<stop  offset="0.014" style="stop-color:#FEE72E"/>
			<stop  offset="0.042" style="stop-color:#FED51B"/>
			<stop  offset="0.07" style="stop-color:#FDCA10"/>
			<stop  offset="0.1" style="stop-color:#FDC70C"/>
			<stop  offset="0.4" style="stop-color:#F3903F"/>
			<stop  offset="0.8" style="stop-color:#ED683C"/>
			<stop  offset="1" style="stop-color:#E93E3A"/>
		</linearGradient>
		<rect x="85.865" y="586.744" style="fill:url(#SVGID_9_);" width="200.351" height="28.622"/>
		
			<linearGradient id="SVGID_10_" gradientUnits="userSpaceOnUse" x1="186.0407" y1="857.6892" x2="186.0407" y2="-48.658" gradientTransform="matrix(1 0 0 -1 0 843.3784)">
			<stop  offset="0" style="stop-color:#FFF33B"/>
			<stop  offset="0.014" style="stop-color:#FEE72E"/>
			<stop  offset="0.042" style="stop-color:#FED51B"/>
			<stop  offset="0.07" style="stop-color:#FDCA10"/>
			<stop  offset="0.1" style="stop-color:#FDC70C"/>
			<stop  offset="0.4" style="stop-color:#F3903F"/>
			<stop  offset="0.8" style="stop-color:#ED683C"/>
			<stop  offset="1" style="stop-color:#E93E3A"/>
		</linearGradient>
		<rect x="85.865" y="672.609" style="fill:url(#SVGID_10_);" width="200.351" height="28.622"/>
		
			<linearGradient id="SVGID_11_" gradientUnits="userSpaceOnUse" x1="186.0407" y1="857.6892" x2="186.0407" y2="-48.658" gradientTransform="matrix(1 0 0 -1 0 843.3784)">
			<stop  offset="0" style="stop-color:#FFF33B"/>
			<stop  offset="0.014" style="stop-color:#FEE72E"/>
			<stop  offset="0.042" style="stop-color:#FED51B"/>
			<stop  offset="0.07" style="stop-color:#FDCA10"/>
			<stop  offset="0.1" style="stop-color:#FDC70C"/>
			<stop  offset="0.4" style="stop-color:#F3903F"/>
			<stop  offset="0.8" style="stop-color:#ED683C"/>
			<stop  offset="1" style="stop-color:#E93E3A"/>
		</linearGradient>
		<rect x="85.865" y="758.474" style="fill:url(#SVGID_11_);" width="200.351" height="28.622"/>
	</g>
</g>
<g>
</g>
<g>
</g>
<g>
</g>
<g>
</g>
<g>
</g>
<g>
</g>
<g>
</g>
<g>
</g>
<g>
</g>
<g>
</g>
<g>
</g>
<g>
</g>
<g>
</g>
<g>
</g>
<g>
</g>
</svg>
