<svg height="480pt" viewBox="0 -104 480 480" width="480pt" xmlns="http://www.w3.org/2000/svg"><path d="m392 136h-48v-64h-32v144h60.320312c5.703126-9.898438 16.257813-16 27.679688-16s21.976562 6.101562 27.679688 16h44.320312v-80zm0 0" fill="#bddbff"/><path d="m280 168h-272v48h28.320312c5.703126-9.898438 16.257813-16 27.679688-16s21.976562 6.101562 27.679688 16h32.640624c5.703126-9.898438 16.257813-16 27.679688-16s21.976562 6.101562 27.679688 16h132.320312v-48zm0 0" fill="#bddbff"/><path d="m8 136h272v32h-272zm0 0" fill="#bddbff"/><path d="m8 8h272v128h-272zm0 0" fill="#bddbff"/><g fill="#3d9ae2"><path d="m472 128h-72.9375l-7.125-56.992188c-.5-4.003906-3.902344-7.007812-7.9375-7.007812h-64v-24c0-4.417969-3.582031-8-8-8h-16v16h8v112h-16v-152c0-4.417969-3.582031-8-8-8h-272c-4.417969 0-8 3.582031-8 8v208c0 4.417969 3.582031 8 8 8h16.910156c-.578125 2.628906-.882812 5.308594-.910156 8 0 22.089844 17.910156 40 40 40s40-17.910156 40-40c-.027344-2.691406-.332031-5.371094-.902344-8h9.8125c-.578125 2.628906-.882812 5.308594-.910156 8 0 22.089844 17.910156 40 40 40s40-17.910156 40-40c-.027344-2.691406-.332031-5.371094-.902344-8h169.8125c-.578125 2.628906-.882812 5.308594-.910156 8 0 22.089844 17.910156 40 40 40s40-17.910156 40-40c-.027344-2.691406-.332031-5.371094-.902344-8h32.902344c4.417969 0 8-3.582031 8-8v-80c0-4.417969-3.582031-8-8-8zm-95.0625-48 6 48h-30.9375v-48zm-360.9375 64h256v16h-256zm0-128h256v112h-256zm0 160h288v32h-120l-.175781-.207031c-.304688-.394531-.640625-.746094-.960938-1.128907-.734375-.902343-1.488281-1.792968-2.304687-2.625-.429688-.4375-.894532-.839843-1.34375-1.253906-.800782-.707031-1.519532-1.394531-2.328125-2.042968-.519531-.40625-1.046875-.796876-1.597657-1.167969-.800781-.582031-1.601562-1.132813-2.464843-1.644531-.578125-.355469-1.152344-.683594-1.746094-1.007813-.863281-.464844-1.742187-.898437-2.636719-1.304687-.609375-.28125-1.21875-.554688-1.839844-.800782-.9375-.375-1.898437-.6875-2.875-.984375-.605468-.191406-1.207031-.398437-1.824218-.550781-1.070313-.28125-2.167969-.480469-3.269532-.664062-.535156-.089844-1.066406-.21875-1.601562-.289063-3.324219-.449219-6.691406-.449219-10.015625 0-.550781.070313-1.078125.199219-1.601563.289063-1.101562.183593-2.199218.382812-3.269531.664062-.617187.152344-1.214843.359375-1.824219.550781-.976562.296875-1.9375.609375-2.878906.984375-.617187.238282-1.226562.511719-1.832031.800782-.898437.40625-1.769531.796874-2.632813 1.304687-.59375.316406-1.175781.652344-1.753906 1.007813-.839844.511718-1.648437 1.0625-2.445312 1.597656-.546875.382812-1.082032.800781-1.601563 1.183594-.800781.632812-1.542969 1.3125-2.289062 2.007812-.460938.425781-.941407.839844-1.382813 1.296875-.800781.800781-1.535156 1.679687-2.265625 2.570313-.328125.390624-.679687.757812-.992187 1.175781-.054688.070312-.117188.125-.175782.199219h-24.070312l-.175781-.207032c-.304688-.394531-.640625-.746094-.960938-1.128906-.734375-.90625-1.488281-1.792969-2.304687-2.625-.429688-.441406-.894532-.839844-1.34375-1.257812-.757813-.703126-1.519532-1.390626-2.328125-2.039063-.519531-.40625-1.046875-.800781-1.597657-1.167969-.800781-.582031-1.601562-1.136718-2.464843-1.648437-.578125-.351563-1.152344-.679688-1.746094-1.007813-.863281-.464844-1.742187-.894531-2.636719-1.304687-.609375-.277344-1.21875-.550781-1.839844-.796875-.9375-.378906-1.898437-.6875-2.875-.984375-.605468-.191407-1.207031-.402344-1.824218-.554688-1.070313-.277343-2.167969-.476562-3.269532-.664062-.535156-.085938-1.066406-.214844-1.601562-.285157-3.324219-.449218-6.691406-.449218-10.015625 0-.550781.070313-1.078125.199219-1.601563.285157-1.101562.1875-2.199218.386719-3.269531.664062-.617187.152344-1.214843.363281-1.824219.554688-.976562.296875-1.9375.605469-2.878906.984375-.617187.238281-1.226562.511718-1.832031.796875-.898437.410156-1.769531.800781-2.632813 1.304687-.59375.320313-1.175781.65625-1.753906 1.007813-.796875.511719-1.648437 1.066406-2.445312 1.601562-.546875.382813-1.082032.800781-1.601563 1.183594-.800781.632813-1.542969 1.3125-2.289062 2.007813-.460938.425781-.941407.839843-1.382813 1.296874-.800781.800782-1.535156 1.679688-2.265625 2.566407-.328125.394531-.679687.761719-.992187 1.175781-.054688.074219-.117188.128906-.175782.203125h-16.070312zm48 80c-13.214844-.027344-23.914062-10.753906-23.902344-23.96875.007813-13.214844 10.71875-23.925781 23.933594-23.933594 13.214844-.011718 23.941406 10.6875 23.96875 23.902344 0 13.253906-10.746094 24-24 24zm88 0c-13.214844-.027344-23.914062-10.753906-23.902344-23.96875.007813-13.214844 10.71875-23.925781 23.933594-23.933594 13.214844-.011718 23.941406 10.6875 23.96875 23.902344 0 13.253906-10.746094 24-24 24zm248 0c-13.214844-.027344-23.914062-10.753906-23.902344-23.96875.007813-13.214844 10.71875-23.925781 23.933594-23.933594 13.214844-.011718 23.941406 10.6875 23.96875 23.902344 0 13.253906-10.746094 24-24 24zm32-48-.175781-.207031c-.304688-.394531-.640625-.746094-.960938-1.128907-.734375-.902343-1.488281-1.792968-2.304687-2.625-.429688-.4375-.894532-.839843-1.34375-1.253906-.757813-.707031-1.519532-1.394531-2.328125-2.042968-.519531-.40625-1.046875-.796876-1.597657-1.167969-.800781-.582031-1.601562-1.132813-2.464843-1.644531-.578125-.355469-1.152344-.683594-1.746094-1.007813-.863281-.464844-1.742187-.898437-2.636719-1.304687-.609375-.28125-1.21875-.554688-1.839844-.800782-.9375-.375-1.898437-.6875-2.875-.984375-.605468-.191406-1.207031-.398437-1.824218-.550781-1.070313-.28125-2.167969-.480469-3.269532-.664062-.535156-.089844-1.066406-.21875-1.601562-.289063-3.324219-.449219-6.691406-.449219-10.015625 0-.550781.070313-1.078125.199219-1.601563.289063-1.101562.183593-2.199218.382812-3.269531.664062-.617187.152344-1.214843.359375-1.824219.550781-.976562.296875-1.9375.609375-2.878906.984375-.617187.238282-1.226562.511719-1.832031.800782-.898437.40625-1.769531.796874-2.632813 1.304687-.59375.316406-1.175781.652344-1.753906 1.007813-.839844.511718-1.648437 1.0625-2.445312 1.597656-.546875.382812-1.082032.800781-1.601563 1.183594-.800781.632812-1.542969 1.3125-2.289062 2.007812-.460938.425781-.941407.839844-1.382813 1.296875-.800781.800781-1.535156 1.679687-2.265625 2.570313-.328125.390624-.679687.757812-.992187 1.175781-.054688.070312-.117188.125-.175782.199219h-48.070312v-127.960938h16v56c0 4.417969 3.582031 8 8 8h120v16h-16v16h16v32zm0 0"/><path d="m336 152h32v16h-32zm0 0"/><path d="m405.679688 226.320312c-2.335938-2.199218-5.734376-2.855468-8.71875-1.679687-.96875.40625-1.863282.972656-2.640626 1.679687-.722656.765626-1.292968 1.660157-1.679687 2.640626-1.425781 3.347656-.414063 7.238281 2.46875 9.464843 2.878906 2.226563 6.902344 2.226563 9.78125 0 2.882813-2.226562 3.894531-6.117187 2.46875-9.464843-.386719-.980469-.957031-1.875-1.679687-2.640626zm0 0"/><path d="m157.679688 226.320312c-2.339844-2.191406-5.730469-2.847656-8.71875-1.679687-.96875.40625-1.863282.972656-2.640626 1.679687-.722656.765626-1.292968 1.660157-1.679687 2.640626-1.425781 3.347656-.414063 7.238281 2.46875 9.464843 2.878906 2.226563 6.902344 2.226563 9.78125 0 2.882813-2.226562 3.894531-6.117187 2.46875-9.464843-.386719-.980469-.957031-1.875-1.679687-2.640626zm0 0"/><path d="m69.679688 226.320312c-.765626-.722656-1.660157-1.292968-2.640626-1.679687-2.984374-1.207031-6.398437-.550781-8.71875 1.679687-.722656.765626-1.292968 1.660157-1.679687 2.640626-1.277344 2.996093-.609375 6.464843 1.6875 8.773437s5.765625 2.996094 8.765625 1.738281c3.003906-1.261718 4.945312-4.214844 4.90625-7.472656.027344-1.050781-.191406-2.089844-.640625-3.039062-.40625-.96875-.972656-1.863282-1.679687-2.640626zm0 0"/></g></svg>