<svg height="512" viewBox="0 0 64 64" width="512" xmlns="http://www.w3.org/2000/svg"><path d="m60.84 34h-17.84v-11h-4v27h20a2.006 2.006 0 0 0 2-2v-12.89a3.773 3.773 0 0 0 -.16-1.11z" fill="#ff5023"/><path d="m3 41v8a1 1 0 0 0 1 1h35v-9z" fill="#ff6243"/><path d="m61 38v4h-5a1 1 0 0 1 -1-1v-2a1 1 0 0 1 1-1z" fill="#e6e7e8"/><path d="m60.84 34h-17.84v-11h10.81a2 2 0 0 1 1.76 1.05l4.86 9a3.793 3.793 0 0 1 .41.95z" fill="#e6e7e8"/><circle cx="49" cy="50" fill="#787680" r="5"/><path d="m3 37h36v4h-36z" fill="#ee8700"/><path d="m3 13h36v24h-36z" fill="#ffa733"/><path d="m3 9h36v4h-36z" fill="#ee8700"/><path d="m31 19v12a2 2 0 0 1 -4 0v-12a2.006 2.006 0 0 1 2-2 2.015 2.015 0 0 1 2 2z" fill="#ee8700"/><circle cx="26" cy="50" fill="#787680" r="5"/><path d="m23 19v12a2 2 0 0 1 -4 0v-12a2.006 2.006 0 0 1 2-2 2.015 2.015 0 0 1 2 2z" fill="#ee8700"/><circle cx="12" cy="50" fill="#787680" r="5"/><path d="m15 19v12a2 2 0 0 1 -4 0v-12a2.006 2.006 0 0 1 2-2 2.015 2.015 0 0 1 2 2z" fill="#ee8700"/><path d="m3 13h36v2h-36z" fill="#ff9811"/><path d="m3 35h36v2h-36z" fill="#ff9811"/><path d="m42 37h4v2h-4z"/><path d="m11 49h2v2h-2z"/><path d="m25 49h2v2h-2z"/><path d="m48 49h2v2h-2z"/><path d="m61.31 32.575-4.863-9a3 3 0 0 0 -2.639-1.575h-13.808v-13a1 1 0 0 0 -1-1h-36a1 1 0 0 0 -1 1v40a2 2 0 0 0 2 2h2.09a5.993 5.993 0 0 0 11.82 0h2.18a5.993 5.993 0 0 0 11.82 0h11.18a5.993 5.993 0 0 0 11.82 0h4.09a3 3 0 0 0 3-3v-12.892a4.947 4.947 0 0 0 -.69-2.533zm-6.623-8.051 4.58 8.476h-15.267v-9h9.808a1 1 0 0 1 .879.524zm-50.687 13.476h34v2h-34zm34-2h-34v-22h34zm0-26v2h-34v-2zm-26 44a4 4 0 1 1 4-4 4 4 0 0 1 -4 4zm14 0a4 4 0 1 1 4-4 4 4 0 0 1 -4 4zm0-10a6.006 6.006 0 0 0 -5.91 5h-2.18a5.993 5.993 0 0 0 -11.82 0h-2.09v-7h34v7h-6.09a6.006 6.006 0 0 0 -5.91-5zm23 10a4 4 0 1 1 4-4 4 4 0 0 1 -4 4zm10-5h-4.09a5.993 5.993 0 0 0 -11.82 0h-3.09v-25h2v10a1 1 0 0 0 1 1h16.985c0 .036.015.071.015.108v1.892h-4a2 2 0 0 0 -2 2v2a2 2 0 0 0 2 2h4v2h-3v2h3v1a1 1 0 0 1 -1 1zm1-10v2h-4v-2z"/><path d="m13 34a3 3 0 0 0 3-3v-12a3 3 0 0 0 -6 0v12a3 3 0 0 0 3 3zm-1-15a1 1 0 0 1 2 0v12a1 1 0 0 1 -2 0z"/><path d="m21 34a3 3 0 0 0 3-3v-12a3 3 0 0 0 -6 0v12a3 3 0 0 0 3 3zm-1-15a1 1 0 0 1 2 0v12a1 1 0 0 1 -2 0z"/><path d="m29 34a3 3 0 0 0 3-3v-12a3 3 0 0 0 -6 0v12a3 3 0 0 0 3 3zm-1-15a1 1 0 0 1 2 0v12a1 1 0 0 1 -2 0z"/></svg>