<svg height="512" viewBox="0 0 64 64" width="512" xmlns="http://www.w3.org/2000/svg"><g id="Map-3" data-name="Map"><path d="m33 51h-10v-8h-20v16h4a2 2 0 0 1 4 0h16a2 2 0 0 1 4 0h4v-6a2.006 2.006 0 0 0 -2-2z" fill="#9bc9ff"/><path d="m12 27s8-10 8-16a8 8 0 0 0 -16 0c0 6 8 16 8 16zm0-20a4 4 0 1 1 -4 4 4 4 0 0 1 4-4z" fill="#9bc9ff"/><g fill="#57a4ff"><path d="m12 28a1 1 0 0 0 .781-.375c.336-.42 8.219-10.347 8.219-16.625a9 9 0 0 0 -18 0c0 6.278 7.883 16.2 8.219 16.625a1 1 0 0 0 .781.375zm0-24a7.008 7.008 0 0 1 7 7c0 4.507-5.027 11.7-7 14.354-1.974-2.654-7-9.842-7-14.354a7.008 7.008 0 0 1 7-7z"/><path d="m17 11a5 5 0 1 0 -5 5 5.006 5.006 0 0 0 5-5zm-8 0a3 3 0 1 1 3 3 3 3 0 0 1 -3-3z"/><path d="m33 50h-1v-5a3 3 0 0 0 -3-3h-26a1 1 0 0 0 -1 1v16a1 1 0 0 0 1 1h3.184a2.982 2.982 0 0 0 5.632 0h14.368a2.982 2.982 0 0 0 5.632 0h3.184a1 1 0 0 0 1-1v-6a3 3 0 0 0 -3-3zm-3-5v5h-6v-6h5a1 1 0 0 1 1 1zm-26-1h18v14h-10.184a2.982 2.982 0 0 0 -5.632 0h-2.184zm5 16a1 1 0 1 1 1-1 1 1 0 0 1 -1 1zm20 0a1 1 0 1 1 1-1 1 1 0 0 1 -1 1zm5-2h-2.184a2.982 2.982 0 0 0 -5.632 0h-2.184v-6h9a1 1 0 0 1 1 1z"/><path d="m55 2h-16a7.008 7.008 0 0 0 -7 7v10a3 3 0 0 1 -3 3h-10v2h10a5.006 5.006 0 0 0 5-5v-10a5.006 5.006 0 0 1 5-5h16a5.006 5.006 0 0 1 5 5v44a5.006 5.006 0 0 1 -5 5h-15v2h15a7.008 7.008 0 0 0 7-7v-44a7.008 7.008 0 0 0 -7-7z"/><path d="m42 15a3 3 0 0 1 3-3h4a3 3 0 0 1 3 3v32a3 3 0 0 1 -3 3h-9v2h9a5.006 5.006 0 0 0 5-5v-32a5.006 5.006 0 0 0 -5-5h-4a5.006 5.006 0 0 0 -5 5v8a7.008 7.008 0 0 1 -7 7h-14v2h14a9.01 9.01 0 0 0 9-9z"/></g></g></svg>