<svg height="512" viewBox="0 0 64 64" width="512" xmlns="http://www.w3.org/2000/svg"><path d="m49 61a6 6 0 1 0 -6-6 6 6 0 0 0 6 6zm0-8a2 2 0 1 1 -2 2 2.006 2.006 0 0 1 2-2z" fill="#9bc9ff"/><path d="m21 55a6 6 0 1 0 -6 6 6 6 0 0 0 6-6zm-8 0a2 2 0 1 1 2 2 2.006 2.006 0 0 1 -2-2z" fill="#9bc9ff"/><path d="m43 23h14v16h-14z" fill="#9bc9ff"/><path d="m35 35v-16-12h-16-16v12 16h16z" fill="#9bc9ff"/><g fill="#57a4ff"><path d="m57 18h-18a1 1 0 0 0 -1 1v15h-2v-31a1 1 0 0 0 -1-1h-32a1 1 0 0 0 -1 1v52a1 1 0 0 0 1 1h5.08a6.991 6.991 0 0 0 13.84 0h20.16a6.991 6.991 0 0 0 13.84 0h1.08a5.006 5.006 0 0 0 5-5v-28a5.006 5.006 0 0 0 -5-5zm-53 2h14v14h-14zm30-2h-14v-10h14zm-16 0h-14v-10h14zm2 2h14v14h-14zm14-14h-14v-2h14zm-16-2v2h-14v-2zm-3 56a5 5 0 1 1 5-5 5.006 5.006 0 0 1 -5 5zm34 0a5 5 0 1 1 5-5 5.006 5.006 0 0 1 -5 5zm11-9a3 3 0 0 1 -3 3h-1.08a6.991 6.991 0 0 0 -13.84 0h-20.16a6.991 6.991 0 0 0 -13.84 0h-4.08v-18h34v2h-28v2h29a1 1 0 0 0 1-1v-19h17a3 3 0 0 1 3 3z"/><path d="m6 38h2v2h-2z"/><path d="m57 22h-14a1 1 0 0 0 -1 1v16a1 1 0 0 0 1 1h14a1 1 0 0 0 1-1v-16a1 1 0 0 0 -1-1zm-1 16h-12v-14h12z"/><path d="m42 42h4v2h-4z"/><path d="m15 52a3 3 0 1 0 3 3 3 3 0 0 0 -3-3zm0 4a1 1 0 1 1 1-1 1 1 0 0 1 -1 1z"/><path d="m49 52a3 3 0 1 0 3 3 3 3 0 0 0 -3-3zm0 4a1 1 0 1 1 1-1 1 1 0 0 1 -1 1z"/></g></svg>