<svg height="480pt" viewBox="0 0 480.00078 480" width="480pt" xmlns="http://www.w3.org/2000/svg"><path d="m400 424v16c0 17.671875-14.328125 32-32 32h-256c-17.671875 0-32-14.328125-32-32v-16zm0 0" fill="#9bc9ff"/><path d="m368 8h-256c-17.671875 0-32 14.328125-32 32v16h320v-16c0-17.671875-14.328125-32-32-32zm0 0" fill="#9bc9ff"/><path d="m360 224v160h56v-160zm0 0" fill="#9bc9ff"/><path d="m304 224h56v160h-56zm0 0" fill="#9bc9ff"/><path d="m296 224h-48l32 160h24v-160zm0 0" fill="#9bc9ff"/><path d="m416 224v160h24l32-160zm0 0" fill="#9bc9ff"/><path d="m152 256c0 39.765625-32.234375 72-72 72s-72-32.234375-72-72 32.234375-72 72-72 72 32.234375 72 72zm0 0" fill="#9bc9ff"/><g fill="#57a4ff"><path d="m360 80h16v16h-16zm0 0"/><path d="m328 80h16v16h-16zm0 0"/><path d="m296 80h16v16h-16zm0 0"/><path d="m104 80h16v16h-16zm0 0"/><path d="m256 440h-32c-4.417969 0-8 3.582031-8 8s3.582031 8 8 8h32c4.417969 0 8-3.582031 8-8s-3.582031-8-8-8zm0 0"/><path d="m478.183594 218.929688c-1.519532-1.855469-3.789063-2.929688-6.183594-2.929688h-43.375l-20.625-35.71875v-140.28125c-.027344-22.078125-17.917969-39.9726562-40-40h-256c-22.082031.0273438-39.972656 17.921875-40 40v120h16v-96h304v88.570312l-9.070312-15.714843c-1.421876-2.496094-4.066407-4.039063-6.9375-4.046875-2.871094-.003906-5.527344 1.527344-6.957032 4.015625-1.429687 2.492187-1.414062 5.554687.035156 8.03125l41.074219 71.144531h-100.289062l41.074219-71.144531c2.171874-3.820313.851562-8.683594-2.957032-10.882813-3.808594-2.199218-8.675781-.910156-10.902344 2.882813l-45.695312 79.144531h-43.375c-2.402344 0-4.679688 1.078125-6.199219 2.941406-1.519531 1.859375-2.121093 4.304688-1.640625 6.660156l32 160c.761719 3.722657 4.039063 6.398438 7.839844 6.398438h112v24h-304v-64h-16v88c.027344 22.082031 17.917969 39.972656 40 40h256c22.082031-.027344 39.972656-17.917969 40-40v-48h32c3.800781 0 7.078125-2.675781 7.839844-6.398438l32-160c.480468-2.359374-.128906-4.8125-1.65625-6.671874zm-390.183594-170.929688v-8c0-13.253906 10.746094-24 24-24h256c13.253906 0 24 10.746094 24 24v8zm280 416h-256c-13.253906 0-24-10.746094-24-24v-8h304v8c0 13.253906-10.746094 24-24 24zm0-232h40v144h-40zm-16 144h-40v-144h40zm-94.238281-144h38.238281v144h-9.441406zm175.679687 144h-9.441406v-144h38.238281zm0 0"/><path d="m160 256c0-44.183594-35.816406-80-80-80s-80 35.816406-80 80 35.816406 80 80 80c44.164062-.046875 79.953125-35.835938 80-80zm-144 0c0-35.347656 28.652344-64 64-64s64 28.652344 64 64-28.652344 64-64 64c-35.328125-.039062-63.960938-28.667969-64-64zm0 0"/><path d="m88 304v-9.472656c11.011719-3.878906 17.621094-15.132813 15.644531-26.640625-1.980469-11.507813-11.96875-19.910157-23.644531-19.886719-4.417969 0-8-3.582031-8-8s3.582031-8 8-8 8 3.582031 8 8h16c-.042969-10.132812-6.445312-19.148438-16-22.527344v-9.472656h-16v9.472656c-11.011719 3.878906-17.621094 15.132813-15.644531 26.640625 1.980469 11.507813 11.96875 19.910157 23.644531 19.886719 4.417969 0 8 3.582031 8 8s-3.582031 8-8 8-8-3.582031-8-8h-16c.042969 10.132812 6.445312 19.148438 16 22.527344v9.472656zm0 0"/><path d="m152 144h16v16h-16zm0 0"/><path d="m176 144h64v16h-64zm0 0"/><path d="m152 168h16v16h-16zm0 0"/><path d="m176 168h64v16h-64zm0 0"/></g></svg>