<svg height="482pt" viewBox="0 0 482 482.47953" width="482pt" xmlns="http://www.w3.org/2000/svg"><path d="m405.519531 166.398438-87.121093-71.277344-37.359376 37.277344-11.28125-11.277344 8.160157-15.921875-13.199219-6.71875c-5.101562-8.96875-14.214844-14.925781-24.480469-16-.691406-.015625-1.386719.011719-2.078125.078125-68.371094.890625-128.625 45.128906-149.945312 110.101562-21.320313 64.96875 1.003906 136.304688 55.554687 177.53125 54.554688 41.230469 129.273438 43.234375 185.957031 4.988282 56.683594-38.242188 82.800782-108.28125 64.992188-174.300782l-.558594-.558594.238282-.722656zm0 0" fill="#9bc9ff"/><path d="m478 150.28125c1.914062-1.363281 3.132812-3.496094 3.332031-5.835938.199219-2.339843-.636719-4.652343-2.292969-6.316406l-11.28125-11.363281c-2.140624-2.160156-5.328124-2.914063-8.214843-1.949219l-28.6875 9.597656-63.199219-77.253906 32.167969-32.242187c3.117187-3.121094 3.117187-8.179688 0-11.300781l-11.28125-11.28125c-2.453125-2.449219-6.207031-3.039063-9.296875-1.457032l-40.710938 20.738282-6.015625-7.386719c-.167969-.210938-.351562-.414063-.542969-.605469-12.464843-12.296875-31.457031-15.09375-46.9375-6.921875-14.769531-2.785156-29.769531-4.199219-44.800781-4.222656-132.546875 0-240 107.449219-240 240 0 132.546875 107.453125 240 240 240 132.550781 0 240-107.453125 240-240 .042969-28.382813-5.03125-56.539063-14.972656-83.121094zm-157.601562-125.601562 9.90625 12.199218c1.507812 1.734375 3.679687 2.746094 5.976562 2.792969 1.554688-.03125 3.082031-.4375 4.445312-1.183594l40.609376-20.6875 1.511718 1.519531-31.632812 31.664063c-2.886719 2.902344-3.117188 7.519531-.527344 10.695313l71.28125 87.128906c2.105469 2.574218 5.582031 3.578125 8.734375 2.519531l29.207031-9.777344 1.136719 1.136719-31.933594 22.792969c-.71875.511719-1.347656 1.140625-1.867187 1.855469l-22.773438 31.945312-1.152344-1.144531 9.785157-29.203125c1.054687-3.152344.050781-6.628906-2.523438-8.734375l-87.140625-71.273438c-3.179687-2.597656-7.808594-2.367187-10.714844.53125l-31.6875 31.628907-1.511718-1.503907 21.105468-41.214843c1.71875-3.359376.859376-7.460938-2.066406-9.847657l-12.144531-9.886719c-9.101563-9.421874-8.988281-24.398437.257813-33.679687 1.207031-1.21875 2.546874-2.292969 4-3.203125 9.390624-5.992188 21.664062-4.789062 29.710937 2.914062zm-127.976563 209.800781c.25-23.1875 2.523437-46.304688 6.792969-69.097657 13.410156 3.394532 27.191406 5.105469 41.023437 5.097657 13.757813-.535157 27.4375-2.367188 40.847657-5.472657 4.367187 22.90625 6.703124 46.152344 6.976562 69.472657zm95.675781 16c-.265625 23.230469-2.574218 46.390625-6.898437 69.214843-26.863281-6.953124-55.054688-6.953124-81.917969 0-4.324219-22.824218-6.632812-45.984374-6.898438-69.214843zm-100.515625-105.449219c-14.53125-5.382812-28.144531-12.992188-40.34375-22.550781 18.199219-14.113281 39.371094-23.890625 61.914063-28.59375-10.160156 15.636719-17.460938 32.957031-21.570313 51.144531zm-52.566406-11.894531c14.628906 11.925781 31.195313 21.261719 48.976563 27.597656-4.707032 24.308594-7.238282 48.988281-7.570313 73.746094h-87.75c2.019531-38.441407 18.589844-74.671875 46.34375-101.34375zm41.296875 117.34375c.371094 24.785156 2.945312 49.492187 7.695312 73.824219-17.761718 6.351562-34.328124 15.648437-49 27.503906-27.753906-26.667969-44.320312-62.894532-46.335937-101.328125zm11.296875 89.464843c4.101563 18.210938 11.414063 35.550782 21.597656 51.199219-22.566406-4.726562-43.761719-14.527343-61.976562-28.664062 12.230469-9.527344 25.847656-17.128907 40.378906-22.535157zm15.199219-4.664062c24.53125-6.402344 50.296875-6.402344 74.832031 0-9.449219 36.894531-23.863281 59.199219-37.402344 59.199219-13.535156 0-27.949219-22.304688-37.414062-59.199219zm90.046875 4.664062c14.535156 5.40625 28.15625 13.007813 40.390625 22.535157-18.214844 14.136719-39.40625 23.941406-61.972656 28.671875 10.183593-15.652344 17.496093-32.992188 21.597656-51.207032zm52.601562 11.863282c-14.675781-11.855469-31.238281-21.152344-49-27.503906 4.753907-24.332032 7.335938-49.035157 7.710938-73.824219h87.640625c-2.019532 38.433593-18.585938 74.660156-46.335938 101.328125zm118.78125-109.328125c0 123.710937-100.285156 224-224 224-123.710937 0-224-100.289063-224-224 0-123.710938 100.289063-224 224-224 9.9375.023437 19.859375.699219 29.707031 2.023437-10.046874 15.800782-7.785156 36.457032 5.4375 49.710938.1875.195312.390626.375.601563.542968l7.464844 6.082032-20.800781 40.632812c-1.585938 3.085938-.996094 6.847656 1.457031 9.304688l11.277343 11.277344c3.125 3.117187 8.183594 3.117187 11.304688 0l32.242188-32.167969 77.246093 63.199219-9.367187 27.960937-.265625.800781c-.699219 2.203125-.410157 4.597656.800781 6.566406 2.550781 9.839844 4.105469 19.914063 4.632812 30.066407h-87.9375c-.265624-27.1875-3.285156-54.273438-9.015624-80.847657-.476563-2.097656-1.777344-3.917968-3.609376-5.042968-1.832031-1.128906-4.039062-1.46875-6.125-.949219-14.769531 3.6875-29.851562 5.976563-45.050781 6.839844-12.652343.011719-25.253906-1.570313-37.511719-4.714844 9.464844-37.023437 23.953126-59.285156 37.511719-59.285156 7.578125 1.347656 14.160157 6 17.960938 12.695312l12.984375-9.34375c-11.496094-15.992187-23.175782-19.351562-30.945313-19.351562-.722656-.023438-1.445312.003906-2.167969.078125-69.945312.851562-132.058593 44.914062-155.972656 110.648437-23.914062 65.738281-4.628906 139.410157 48.421875 185.003907 53.046875 45.59375 128.785157 53.578124 190.179688 20.054687 61.390625-33.523437 95.617187-101.554687 85.941406-170.835937 2.164063-.28125 4.121094-1.4375 5.414063-3.199219l27.457031-38.511719 12.296875-8.800781c8.292968 23.636719 12.496094 48.511719 12.429687 73.5625zm0 0" fill="#57a4ff"/></svg>