<svg height="488pt" viewBox="0 0 488 488.09376" width="488pt" xmlns="http://www.w3.org/2000/svg"><g fill="#9bc9ff"><path d="m426.605469 208.566406c-6.273438-6.183594-16.351563-6.183594-22.625 0l-11.3125 11.320313 7.519531 37.730469 26.402344-26.402344c6.238281-6.257813 6.246094-16.382813.015625-22.648438zm0 0"/><path d="m289.828125 78.464844c.054687-4.246094-1.621094-8.328125-4.640625-11.3125-6.257812-6.226563-16.371094-6.226563-22.628906 0l-26.402344 26.398437 37.738281 7.519531 11.3125-11.3125c3.003907-2.980468 4.675781-7.058593 4.621094-11.292968zm0 0"/><path d="m370.039062 27.550781-66.585937 79.480469-239.679687 286.0625-23.785157 28.441406-20.671875 24.625 22.625 22.625 24.625-20.632812 28.4375-23.824219 233.984375-196 131.5625-110.265625c24.992188-24.992188 24.992188-65.515625 0-90.511719-24.996093-24.992187-65.519531-24.992187-90.511719 0zm0 0"/></g><path d="m466.207031 123.71875c18.734375-18.144531 26.191407-45.003906 19.492188-70.207031-6.699219-25.207031-26.503907-44.820313-51.773438-51.273438s-52.054687 1.265625-70.015625 20.175781l-63.546875 75.839844-10.277343-2.0625.757812-.800781c9.3125-9.394531 9.3125-24.539063 0-33.933594-9.371094-9.375-24.570312-9.375-33.941406 0l-23.386719 23.453125-127.773437-25.597656c-2.617188-.515625-5.316407.304688-7.199219 2.191406l-11.355469 11.304688c-1.8125 1.816406-2.640625 4.394531-2.230469 6.929687.414063 2.535157 2.015625 4.71875 4.3125 5.871094l156.207031 78.125-184.335937 220.050781-39.296875-13.097656c-2.875-.957031-6.042969-.207031-8.183594 1.9375l-11.269531 11.308594c-3.125 3.125-3.125 8.191406 0 11.3125l26.71875 26.761718-15.929687 19.015626c-2.65625 3.179687-2.449219 7.863281.480468 10.792968l22.625 22.625c2.929688 2.929688 7.613282 3.136719 10.792969.476563l19.007813-15.925781 26.765624 26.757812c3.125 3.125 8.191407 3.125 11.3125 0l11.3125-11.308594c2.144532-2.144531 2.894532-5.3125 1.9375-8.1875l-13.097656-39.292968 222.074219-186.050782 81.75 163.570313c1.148437 2.300781 3.335937 3.90625 5.871094 4.320312.425781.066407.851562.101563 1.28125.101563 2.121093 0 4.15625-.84375 5.65625-2.34375l11.3125-11.3125c1.882812-1.882813 2.707031-4.582032 2.191406-7.199219l-25.558594-127.824219 23.367188-23.367187c9.375-9.371094 9.375-24.570313 0-33.945313-4.441407-4.507812-10.519531-7.023437-16.847657-6.976562-6.402343-.054688-12.558593 2.457031-17.089843 6.976562l-.734375.746094-3.839844-19.199219zm-197.992187-50.910156c1.5-1.503906 3.535156-2.347656 5.660156-2.347656 2.121094 0 4.15625.84375 5.65625 2.347656 1.527344 1.523437 2.355469 3.605468 2.296875 5.757812.019531 2.085938-.808594 4.089844-2.296875 5.554688l-8.300781 8.300781-18.855469-3.773437zm-161.824219 3.460937.4375-.4375 181.863281 36.390625-32.605468 38.921875zm-87.074219 313.320313 2.160156-2.160156 28.617188 9.539062-10.664062 12.742188zm23.074219 68.363281-12.242187-12.242187 345.542968-412.503907c21.738282-22.011719 57.207032-22.238281 79.222656-.5 22.011719 21.738281 22.238282 57.207031.5 79.21875zm58.246094 8.671875-2.160157 2.160156-20.085937-20.113281 12.734375-10.664063zm308.960937-252.394531c1.53125-1.527344 3.621094-2.359375 5.785156-2.296875 2.058594.074218 4.023438.886718 5.535157 2.289062 1.5 1.5 2.34375 3.539063 2.34375 5.660156 0 2.125-.84375 4.160157-2.34375 5.660157l-15.824219 15.824219-3.746094-18.855469zm8.296875 172.730469-.441406.4375-78.496094-157.054688 40.800781-34.191406zm0 0" fill="#57a4ff"/></svg>