<svg height="512pt" viewBox="0 0 512 512" width="512pt" xmlns="http://www.w3.org/2000/svg"><path d="m477.167969 415.152344c-1.765625 5.960937-4.132813 11.730468-7.0625 17.214844-1.398438 2.515624-1.289063 5.597656.289062 8.003906l12.863281 19.238281c2.046876 3.0625 1.644532 7.148437-.960937 9.753906l-12.933594 12.898438c-2.605469 2.605469-6.691406 3.007812-9.753906.960937l-19.238281-12.871094c-2.410156-1.570312-5.488282-1.679687-8.003906-.28125-5.484376 2.929688-11.253907 5.296876-17.214844 7.0625-2.78125.777344-4.898438 3.035157-5.5 5.859376l-4.546875 22.828124c-.734375 3.597657-3.898438 6.183594-7.574219 6.179688h-18.238281c-3.671875.003906-6.835938-2.582031-7.570313-6.179688l-4.546875-22.765624c-.601562-2.824219-2.71875-5.082032-5.5-5.863282-5.964843-1.761718-11.730469-4.128906-17.214843-7.0625-2.515626-1.394531-5.597657-1.285156-8.007813.285156l-19.234375 12.808594c-3.0625 2.046875-7.148438 1.644532-9.753906-.960937l-12.898438-12.898438c-2.605468-2.605469-3.007812-6.691406-.960937-9.753906l12.863281-19.238281c1.578125-2.40625 1.6875-5.488282.289062-8.003906-2.929687-5.484376-5.296874-11.253907-7.0625-17.214844-.777343-2.78125-3.035156-4.898438-5.859374-5.5l-22.828126-4.546875c-3.597656-.734375-6.183593-3.898438-6.179687-7.574219v-18.238281c-.003906-3.671875 2.582031-6.835938 6.179687-7.570313l22.765626-4.546875c2.824218-.601562 5.082031-2.71875 5.859374-5.5 1.765626-5.964843 4.132813-11.730469 7.0625-17.214843 1.398438-2.515626 1.289063-5.597657-.289062-8.007813l-12.800781-19.234375c-2.046875-3.0625-1.644531-7.148438.960937-9.753906l12.898438-12.898438c2.605468-2.605468 6.691406-3.007812 9.753906-.960937l19.234375 12.863281c2.410156 1.578125 5.492187 1.6875 8.007813.289062 5.484374-2.929687 11.25-5.296874 17.214843-7.0625 2.78125-.777343 4.898438-3.035156 5.5-5.859374l4.546875-22.765626c.734375-3.601562 3.898438-6.183593 7.570313-6.179687h18.238281c3.675781-.003906 6.839844 2.578125 7.574219 6.179687l4.546875 22.765626c.601562 2.824218 2.71875 5.082031 5.5 5.859374 5.960937 1.765626 11.730468 4.132813 17.214844 7.0625 2.515624 1.398438 5.597656 1.289063 8.003906-.289062l19.238281-12.863281c3.0625-2.046875 7.148437-1.644531 9.753906.960937l12.898438 12.898438c2.605469 2.605468 3.007812 6.691406.960937 9.753906l-12.863281 19.234375c-1.578125 2.410156-1.6875 5.492187-.289063 8.007813 2.929688 5.484374 5.296876 11.25 7.0625 17.214843.777344 2.78125 3.035157 4.898438 5.859376 5.5l22.765624 4.546875c3.597657.734375 6.183594 3.898438 6.179688 7.570313v18.238281c.003906 3.675781-2.582031 6.839844-6.179688 7.574219l-22.765624 4.546875c-2.808594.613281-5.050782 2.730468-5.824219 5.5zm0 0" fill="#4482c3"/><path d="m273.011719 193.269531c-2.285157 7.664063-5.34375 15.078125-9.128907 22.125-1.796874 3.230469-1.65625 7.191407.371094 10.28125l16.535156 24.71875c2.632813 3.9375 2.113282 9.1875-1.238281 12.535157l-16.566406 16.578124c-3.351563 3.351563-8.605469 3.871094-12.546875 1.234376l-24.714844-16.53125c-3.09375-2.027344-7.054687-2.171876-10.285156-.371094-7.050781 3.785156-14.46875 6.84375-22.140625 9.125-3.570313 1.003906-6.289063 3.902344-7.0625 7.53125l-5.878906 29.351562c-.941407 4.617188-4.996094 7.9375-9.710938 7.945313h-23.472656c-4.710937-.007813-8.765625-3.328125-9.707031-7.945313l-5.855469-29.273437c-.769531-3.625-3.488281-6.527344-7.0625-7.527344-7.671875-2.296875-15.09375-5.367187-22.148437-9.164063-3.230469-1.796874-7.191407-1.65625-10.28125.371094l-24.71875 16.535156c-3.941407 2.632813-9.191407 2.117188-12.542969-1.238281l-16.613281-16.578125c-3.351563-3.347656-3.871094-8.597656-1.238282-12.535156l16.535156-24.714844c2.042969-3.105468 2.1875-7.089844.371094-10.328125-3.785156-7.050781-6.84375-14.46875-9.128906-22.140625-1.003906-3.574218-3.90625-6.292968-7.539062-7.0625l-29.296876-5.835937c-4.617187-.941407-7.9374995-4.996094-7.945312-9.710938v-23.472656c.0078125-4.710937 3.328125-8.765625 7.945312-9.707031l29.261719-5.855469c3.632813-.765625 6.535157-3.488281 7.539063-7.0625 2.296875-7.671875 5.367187-15.09375 9.164062-22.148437 1.796875-3.230469 1.65625-7.191407-.371094-10.28125l-16.535156-24.761719c-2.632812-3.941407-2.117187-9.195313 1.238282-12.546875l16.566406-16.566406c3.351562-3.355469 8.605468-3.871094 12.546875-1.238282l24.714843 16.535156c3.09375 2.027344 7.054688 2.167969 10.285157.371094 7.050781-3.785156 14.46875-6.84375 22.140625-9.128906 3.574218-1.003906 6.292968-3.90625 7.0625-7.539062l5.878906-29.296876c.941406-4.617187 4.996094-7.9374995 9.710938-7.945312h23.445312c4.710938.0078125 8.765625 3.328125 9.710938 7.945312l5.851562 29.261719c.769531 3.632813 3.488281 6.535157 7.0625 7.539063 7.683594 2.292968 15.113281 5.363281 22.175781 9.164062 3.230469 1.796875 7.191407 1.65625 10.28125-.371094l24.71875-16.535156c3.941407-2.632812 9.191407-2.117187 12.542969 1.238282l16.570312 16.566406c3.351563 3.351562 3.871094 8.605468 1.234376 12.546875l-16.53125 24.714843c-2.027344 3.09375-2.171876 7.054688-.371094 10.285157 3.785156 7.050781 6.84375 14.46875 9.125 22.140625 1.003906 3.574218 3.910156 6.292968 7.539062 7.0625l29.265625 5.851562c4.617188.941406 7.933594 5 7.945313 9.710938v23.445312c-.011719 4.710938-3.328125 8.769532-7.945313 9.710938l-29.265625 5.851562c-3.632812.796875-6.523437 3.550782-7.492187 7.140625zm0 0" fill="#35495e"/><path d="m441.378906 388.414062c0 29.25-23.714844 52.964844-52.964844 52.964844-29.253906 0-52.964843-23.714844-52.964843-52.964844 0-29.253906 23.710937-52.964843 52.964843-52.964843 29.25 0 52.964844 23.710937 52.964844 52.964843zm0 0" fill="#285680"/><path d="m238.34375 158.898438c0 43.875-35.570312 79.445312-79.445312 79.445312-43.878907 0-79.449219-35.570312-79.449219-79.445312 0-43.878907 35.570312-79.449219 79.449219-79.449219 43.875 0 79.445312 35.570312 79.445312 79.449219zm0 0" fill="#2c3e50"/><path d="m176.550781 158.898438c0 9.75-7.902343 17.652343-17.652343 17.652343-9.753907 0-17.65625-7.902343-17.65625-17.652343 0-9.753907 7.902343-17.65625 17.65625-17.65625 9.75 0 17.652343 7.902343 17.652343 17.65625zm0 0" fill="#547580"/><path d="m397.242188 388.414062c0 4.875-3.953126 8.828126-8.828126 8.828126s-8.828124-3.953126-8.828124-8.828126 3.953124-8.828124 8.828124-8.828124 8.828126 3.953124 8.828126 8.828124zm0 0" fill="#4482c3"/></svg>