<svg height="512" viewBox="0 0 64 64" width="512" xmlns="http://www.w3.org/2000/svg"><g fill="#bddbff"><path d="m50 33h11v12h-11z"/><path d="m50 33v12 1h-8v-1-11-2h8z"/><path d="m29.9 11.53-8.93 15.47-3.47 6-4.31 7.47-2.79 4.83 5.2 3 1.91-3.3h-1.51a3 3 0 1 1 0-6h4.97l3.02-5.24 3.83-6.63 7.28-12.6z"/><path d="m38.5 7.84a2.976 2.976 0 0 1 -.4 1.49l-1.5 2.6-5.2-3 1.5-2.6a3 3 0 0 1 5.6 1.51z"/></g><path d="m61 32h-10a1 1 0 0 0 -1-1h-8a1 1 0 0 0 -1 1v1h-1.34a3.02 3.02 0 0 1 -2.123-.877l-2.32-2.32a13.091 13.091 0 0 0 -5.844-3.358l9.594-16.617a3.991 3.991 0 0 0 .533-1.988 4 4 0 0 0 -7.466-2.01l-11.645 20.17-5.065-.009h-.041a8.948 8.948 0 0 0 -6.341 2.634l-5.642 5.655a3.825 3.825 0 0 0 2.7 6.54 3.8 3.8 0 0 0 2.707-1.113l4.83-4.83a3.02 3.02 0 0 1 2.123-.877h.109l-6.235 10.8a.993.993 0 0 0 -.132.44l-.402 6.7a1 1 0 0 0 1.549.894l5.6-3.7a1 1 0 0 0 .315-.333l1.623-2.801h22.913a1 1 0 0 0 1 1h8a1 1 0 0 0 1-1h10a1 1 0 0 0 1-1v-12a1 1 0 0 0 -1-1zm-37 4a1.993 1.993 0 0 1 -1.2 1.829l1.178-2.039a2.1 2.1 0 0 1 .022.21zm-3.607 2h-4.393c-.084 0-.162.02-.245.025l14.509-25.125 3.468 2zm-7.22 6.827a3.957 3.957 0 0 0 2.615 1.152l-.553.956-3.469-2 .668-1.158a3.984 3.984 0 0 0 .739 1.05zm18.091-33.664.5-.868 3.467 2-.5.867zm5.236-5.063a2.027 2.027 0 0 1 1 1.745 1.968 1.968 0 0 1 -.266.99l-1 1.735-3.467-2 1-1.731a2.012 2.012 0 0 1 2.733-.739zm-20.84 25.9a5.035 5.035 0 0 0 -3.537 1.463l-4.83 4.83a1.894 1.894 0 0 1 -2.586 0 1.838 1.838 0 0 1 -.54-1.307 1.812 1.812 0 0 1 .541-1.29l5.646-5.656a7.041 7.041 0 0 1 4.964-2.05l3.917.01-2.311 4zm-4.36 14.974 2.4 1.384-2.582 1.705zm4.7-2.974a2 2 0 0 1 0-4h6a4 4 0 0 0 3.224-6.368l3.109-5.385a11.078 11.078 0 0 1 5.47 2.97l2.32 2.32a5.035 5.035 0 0 0 3.537 1.463h1.34v9zm33 1h-6v-12h6zm11-1h-9v-10h9z" fill="#3d9ae2"/><path d="m2 55h60v2h-60z" fill="#3d9ae2"/><path d="m2 59h60v2h-60z" fill="#3d9ae2"/></svg>