<svg height="512pt" viewBox="0 0 512 512.10195" width="512pt" xmlns="http://www.w3.org/2000/svg"><path d="m349.917969 221.867188h102.398437c4.714844 0 8.535156 3.820312 8.535156 8.53125v102.402343c0 4.710938-3.820312 8.53125-8.535156 8.53125h-102.398437c-4.714844 0-8.535157-3.820312-8.535157-8.53125v-102.402343c0-4.710938 3.820313-8.53125 8.535157-8.53125zm0 0" fill="#cad9fc"/><path d="m68.316406 281.601562h102.402344c4.710938 0 8.53125 3.820313 8.53125 8.53125v102.402344c0 4.710938-3.820312 8.53125-8.53125 8.53125h-102.402344c-4.710937 0-8.53125-3.820312-8.53125-8.53125v-102.402344c0-4.710937 3.820313-8.53125 8.53125-8.53125zm0 0" fill="#cad9fc"/><path d="m349.917969 221.867188h76.800781c4.710938 0 8.53125 3.820312 8.53125 8.53125v102.402343c0 4.710938-3.820312 8.53125-8.53125 8.53125h-76.800781c-4.714844 0-8.535157-3.820312-8.535157-8.53125v-102.402343c0-4.710938 3.820313-8.53125 8.535157-8.53125zm0 0" fill="#e8edfc"/><path d="m68.316406 281.601562h76.800782c4.714843 0 8.535156 3.820313 8.535156 8.53125v102.402344c0 4.710938-3.820313 8.53125-8.535156 8.53125h-76.800782c-4.710937 0-8.53125-3.820312-8.53125-8.53125v-102.402344c0-4.710937 3.820313-8.53125 8.53125-8.53125zm0 0" fill="#e8edfc"/><path d="m503.519531 452.265625c-.042969 28.261719-22.941406 51.160156-51.203125 51.199219h-392.53125c-28.269531-.019532-51.179687-22.929688-51.199218-51.199219.039062-28.257813 22.9375-51.15625 51.199218-51.199219h392.53125c28.269532.023438 51.179688 22.933594 51.203125 51.199219zm0 0" fill="#7facfa"/><path d="m477.917969 452.265625c-.042969 28.261719-22.941407 51.160156-51.199219 51.199219h-366.933594c-28.269531-.019532-51.179687-22.929688-51.199218-51.199219.039062-28.257813 22.9375-51.15625 51.199218-51.199219h366.933594c28.265625.023438 51.175781 22.933594 51.199219 51.199219zm0 0" fill="#a4c2f7"/><path d="m213.382812 270.972656v53.292969c0 9.425781-7.640624 17.066406-17.066406 17.066406-9.425781 0-17.066406-7.640625-17.066406-17.066406v-42.664063l-34.21875-34.136718h-51.027344l-34.21875 34.136718v42.664063c0 9.425781-7.640625 17.066406-17.066406 17.066406s-17.066406-7.640625-17.066406-17.066406v-53.292969c0-2.265625.898437-4.4375 2.503906-6.039062l49.183594-49.105469c1.597656-1.597656 3.769531-2.496094 6.027344-2.496094h72.300781c2.257812 0 4.429687.898438 6.027343 2.496094l49.183594 49.105469c1.605469 1.601562 2.503906 3.773437 2.503906 6.039062zm0 0" fill="#e8edfc"/><path d="m17.117188 25.601562h477.867187c4.710937 0 8.535156 3.820313 8.535156 8.53125v34.132813c0 4.714844-3.824219 8.535156-8.535156 8.535156h-477.867187c-4.710938 0-8.53125-3.820312-8.53125-8.535156v-34.132813c0-4.710937 3.820312-8.53125 8.53125-8.53125zm0 0" fill="#cad9fc"/><path d="m17.117188 25.601562h452.265624c4.714844 0 8.535157 3.820313 8.535157 8.53125v34.132813c0 4.714844-3.820313 8.535156-8.535157 8.535156h-452.265624c-4.710938 0-8.53125-3.820312-8.53125-8.535156v-34.132813c0-4.710937 3.820312-8.53125 8.53125-8.53125zm0 0" fill="#e8edfc"/><path d="m443.785156 452.265625c0 9.425781-7.640625 17.066406-17.066406 17.066406s-17.066406-7.640625-17.066406-17.066406 7.640625-17.066406 17.066406-17.066406 17.066406 7.640625 17.066406 17.066406zm0 0" fill="#7facfa"/><path d="m375.519531 452.265625c0 9.425781-7.644531 17.066406-17.070312 17.066406s-17.066407-7.640625-17.066407-17.066406 7.640626-17.066406 17.066407-17.066406 17.070312 7.640625 17.070312 17.066406zm0 0" fill="#7facfa"/><path d="m307.25 452.265625c0 9.425781-7.640625 17.066406-17.066406 17.066406-9.425782 0-17.066406-7.640625-17.066406-17.066406s7.640624-17.066406 17.066406-17.066406c9.425781 0 17.066406 7.640625 17.066406 17.066406zm0 0" fill="#7facfa"/><path d="m238.984375 452.265625c0 9.425781-7.640625 17.066406-17.066406 17.066406s-17.066407-7.640625-17.066407-17.066406 7.640626-17.066406 17.066407-17.066406 17.066406 7.640625 17.066406 17.066406zm0 0" fill="#7facfa"/><path d="m170.71875 452.265625c0 9.425781-7.640625 17.066406-17.066406 17.066406-9.425782 0-17.066406-7.640625-17.066406-17.066406s7.640624-17.066406 17.066406-17.066406c9.425781 0 17.066406 7.640625 17.066406 17.066406zm0 0" fill="#7facfa"/><path d="m102.449219 452.265625c0 9.425781-7.640625 17.066406-17.066407 17.066406-9.425781 0-17.066406-7.640625-17.066406-17.066406s7.640625-17.066406 17.066406-17.066406c9.425782 0 17.066407 7.640625 17.066407 17.066406zm0 0" fill="#7facfa"/><path d="m85.382812 8.535156h68.269532c9.425781 0 17.066406 7.640625 17.066406 17.066406v51.199219c0 9.425781-7.640625 17.066407-17.066406 17.066407h-68.269532c-9.425781 0-17.066406-7.640626-17.066406-17.066407v-51.199219c0-9.425781 7.640625-17.066406 17.066406-17.066406zm0 0" fill="#cad9fc"/><path d="m366.984375 8.535156h68.265625c9.425781 0 17.066406 7.640625 17.066406 17.066406v51.199219c0 9.425781-7.640625 17.066407-17.066406 17.066407h-68.265625c-9.425781 0-17.066406-7.640626-17.066406-17.066407v-51.199219c0-9.425781 7.640625-17.066406 17.066406-17.066406zm0 0" fill="#cad9fc"/><path d="m85.382812 8.535156h42.667969c9.425781 0 17.066407 7.640625 17.066407 17.066406v51.199219c0 9.425781-7.640626 17.066407-17.066407 17.066407h-42.667969c-9.425781 0-17.066406-7.640626-17.066406-17.066407v-51.199219c0-9.425781 7.640625-17.066406 17.066406-17.066406zm0 0" fill="#e8edfc"/><path d="m366.984375 8.535156h42.667969c9.425781 0 17.066406 7.640625 17.066406 17.066406v51.199219c0 9.425781-7.640625 17.066407-17.066406 17.066407h-42.667969c-9.425781 0-17.066406-7.640626-17.066406-17.066407v-51.199219c0-9.425781 7.640625-17.066406 17.066406-17.066406zm0 0" fill="#e8edfc"/><path d="m136.585938 51.199219c0 9.425781-7.644532 17.066406-17.066407 17.066406-9.425781 0-17.070312-7.640625-17.070312-17.066406s7.644531-17.066407 17.070312-17.066407c9.421875 0 17.066407 7.640626 17.066407 17.066407zm0 0" fill="#e8edfc"/><path d="m418.183594 51.199219c0 9.425781-7.640625 17.066406-17.066406 17.066406-9.425782 0-17.066407-7.640625-17.066407-17.066406s7.640625-17.066407 17.066407-17.066407c9.425781 0 17.066406 7.640626 17.066406 17.066407zm0 0" fill="#e8edfc"/><path d="m102.449219 192.339844v-98.472656h34.136719v98.472656" fill="#a4c2f7"/><path d="m153.652344 221.867188c0 9.054687-3.59375 17.738281-9.996094 24.136718-6.402344 6.402344-15.085938 10-24.136719 9.996094-4.398437.035156-8.757812-.835938-12.800781-2.558594-12.890625-5.183594-21.335938-17.683594-21.335938-31.574218 0-13.894532 8.445313-26.390626 21.335938-31.574219 4.042969-1.722657 8.402344-2.59375 12.800781-2.558594 9.050781-.003906 17.734375 3.59375 24.136719 9.992187 6.402344 6.402344 9.996094 15.085938 9.996094 24.140626zm0 0" fill="#cad9fc"/><path d="m443.296875 156.089844c-1.597656-1.59375-3.765625-2.488282-6.023437-2.488282h-72.3125c-2.257813 0-4.421876.894532-6.019532 2.488282l-49.1875 49.109375c-1.601562 1.601562-2.503906 3.773437-2.503906 6.039062v53.296875c0 9.425782 7.640625 17.066406 17.066406 17.066406 9.425782 0 17.066406-7.640624 17.066406-17.066406v-42.667968l34.21875-34.132813h51.03125l34.21875 34.132813v42.667968c0 9.425782 7.640626 17.066406 17.066407 17.066406s17.066406-7.640624 17.066406-17.066406v-53.296875c0-2.265625-.902344-4.4375-2.503906-6.039062zm0 0" fill="#e8edfc"/><path d="m384.050781 93.867188h34.132813v38.742187h-34.132813zm0 0" fill="#a4c2f7"/><path d="m435.25 162.132812c.003906 9.054688-3.59375 17.738282-9.992188 24.140626-6.402343 6.398437-15.085937 9.996093-24.140624 9.992187-4.398438.035156-8.753907-.835937-12.800782-2.558594-12.886718-5.183593-21.332031-17.679687-21.332031-31.574219 0-13.890624 8.445313-26.390624 21.332031-31.574218 4.046875-1.722656 8.402344-2.59375 12.800782-2.558594 9.054687-.003906 17.738281 3.59375 24.140624 9.996094 6.398438 6.398437 9.996094 15.082031 9.992188 24.136718zm0 0" fill="#cad9fc"/><path d="m128.050781 221.867188c0-17.4375-9.550781-31.574219-21.332031-31.574219s-21.335938 14.136719-21.335938 31.574219 9.554688 31.574218 21.335938 31.574218 21.332031-14.136718 21.332031-31.574218zm0 0" fill="#e8edfc"/><path d="m409.652344 162.132812c0-17.4375-9.550782-31.574218-21.335938-31.574218-11.78125 0-21.332031 14.136718-21.332031 31.574218s9.550781 31.574219 21.332031 31.574219c11.785156 0 21.335938-14.136719 21.335938-31.574219zm0 0" fill="#e8edfc"/><path d="m128.050781 221.867188c0 4.710937-3.820312 8.53125-8.53125 8.53125-4.714843 0-8.535156-3.820313-8.535156-8.53125 0-4.714844 3.820313-8.535157 8.535156-8.535157 4.710938 0 8.53125 3.820313 8.53125 8.535157zm0 0" fill="#428dff"/><path d="m204.851562 170.667969c0 4.710937-3.820312 8.53125-8.535156 8.53125-4.710937 0-8.53125-3.820313-8.53125-8.53125 0-4.714844 3.820313-8.535157 8.53125-8.535157 4.714844 0 8.535156 3.820313 8.535156 8.535157zm0 0" fill="#428dff"/><path d="m409.652344 162.132812c0 4.714844-3.820313 8.535157-8.535156 8.535157-4.710938 0-8.53125-3.820313-8.53125-8.535157 0-4.710937 3.820312-8.53125 8.53125-8.53125 4.714843 0 8.535156 3.820313 8.535156 8.53125zm0 0" fill="#428dff"/><path d="m34.183594 452.265625c.042968-28.257813 22.941406-51.15625 51.199218-51.199219h8.535157c-4.707031-.011718-8.519531-3.824218-8.535157-8.53125v-110.933594c0 9.425782-7.640624 0-17.066406 0-3.121094 0-6.011718 58.832032-8.53125 57.363282v53.570312c.011719 4.707032 3.824219 8.519532 8.53125 8.53125h-8.53125c-28.261718.042969-51.160156 22.941406-51.199218 51.199219.019531 28.269531 22.929687 51.179687 51.199218 51.199219h25.597656c-28.265624-.019532-51.175781-22.929688-51.199218-51.199219zm0 0" fill="#fff"/><path d="m93.917969 238.933594-10.550781-25.601563c-2.261719 0-4.429688.898438-6.027344 2.496094l-49.183594 49.105469c-1.605469 1.601562-2.503906 3.773437-2.503906 6.039062v53.292969c-.027344 7.113281 4.378906 13.492187 11.039062 15.988281 6.664063 2.492188 14.175782.574219 18.828125-4.808594-2.738281-3.082031-4.253906-7.058593-4.269531-11.179687v-42.664063c0-2.265624.902344 1.597657 2.503906 0" fill="#fff"/><path d="m42.71875 25.601562h-25.601562c-4.707032.011719-8.519532 3.824219-8.53125 8.53125v34.132813c.011718 4.707031 3.824218 8.519531 8.53125 8.535156h25.601562c-4.707031-.015625-8.519531-3.828125-8.535156-8.535156v-34.132813c.015625-4.707031 3.828125-8.519531 8.535156-8.53125zm0 0" fill="#fff"/><path d="m132.367188 253.457031-.050782-.015625c-3.519531-1.4375-6.773437-3.457031-9.625-5.976562h-3.089844l-7.625 7.609375c2.46875.59375 5 .90625 7.542969.925781 4.40625-.007812 8.769531-.871094 12.847657-2.542969zm0 0" fill="#fff"/><path d="m93.917969 281.601562h-8.535157v8.53125c.015626-4.707031 3.828126-8.519531 8.535157-8.53125zm0 0" fill="#fff"/><path d="m426.71875 477.867188c-14.140625 0-25.601562-11.460938-25.601562-25.601563 0-14.136719 11.460937-25.597656 25.601562-25.597656 14.136719 0 25.597656 11.460937 25.597656 25.597656-.015625 14.132813-11.464844 25.585937-25.597656 25.601563zm0-34.132813c-4.714844 0-8.535156 3.820313-8.535156 8.53125 0 4.714844 3.820312 8.535156 8.535156 8.535156 4.710938 0 8.53125-3.820312 8.53125-8.535156-.003906-4.710937-3.820312-8.527344-8.53125-8.53125zm0 0" fill="#428dff"/><path d="m358.449219 477.867188c-14.136719 0-25.597657-11.460938-25.597657-25.601563 0-14.136719 11.460938-25.597656 25.597657-25.597656 14.140625 0 25.601562 11.460937 25.601562 25.597656-.015625 14.132813-11.46875 25.585937-25.601562 25.601563zm0-34.132813c-4.710938 0-8.53125 3.820313-8.53125 8.53125 0 4.714844 3.820312 8.535156 8.53125 8.535156 4.714843 0 8.535156-3.820312 8.535156-8.535156-.007813-4.710937-3.824219-8.527344-8.535156-8.53125zm0 0" fill="#428dff"/><path d="m290.183594 477.867188c-14.136719 0-25.597656-11.460938-25.597656-25.601563 0-14.136719 11.460937-25.597656 25.597656-25.597656 14.140625 0 25.601562 11.460937 25.601562 25.597656-.015625 14.132813-11.46875 25.585937-25.601562 25.601563zm0-34.132813c-4.710938 0-8.53125 3.820313-8.53125 8.53125 0 4.714844 3.820312 8.535156 8.53125 8.535156 4.714844 0 8.535156-3.820312 8.535156-8.535156-.007812-4.710937-3.824219-8.527344-8.535156-8.53125zm0 0" fill="#428dff"/><path d="m221.917969 477.867188c-14.140625 0-25.601563-11.460938-25.601563-25.601563 0-14.136719 11.460938-25.597656 25.601563-25.597656 14.136719 0 25.601562 11.460937 25.601562 25.597656-.015625 14.132813-11.46875 25.585937-25.601562 25.601563zm0-34.132813c-4.714844 0-8.535157 3.820313-8.535157 8.53125 0 4.714844 3.820313 8.535156 8.535157 8.535156 4.710937 0 8.53125-3.820312 8.53125-8.535156-.003907-4.710937-3.820313-8.527344-8.53125-8.53125zm0 0" fill="#428dff"/><path d="m153.652344 477.867188c-14.140625 0-25.601563-11.460938-25.601563-25.601563 0-14.136719 11.460938-25.597656 25.601563-25.597656 14.136718 0 25.597656 11.460937 25.597656 25.597656-.015625 14.132813-11.46875 25.585937-25.597656 25.601563zm0-34.132813c-4.714844 0-8.535156 3.820313-8.535156 8.53125 0 4.714844 3.820312 8.535156 8.535156 8.535156 4.710937 0 8.53125-3.820312 8.53125-8.535156-.003906-4.710937-3.824219-8.527344-8.53125-8.53125zm0 0" fill="#428dff"/><path d="m85.382812 477.867188c-14.136718 0-25.597656-11.460938-25.597656-25.601563 0-14.136719 11.460938-25.597656 25.597656-25.597656 14.140626 0 25.601563 11.460937 25.601563 25.597656-.015625 14.132813-11.46875 25.585937-25.601563 25.601563zm0-34.132813c-4.710937 0-8.53125 3.820313-8.53125 8.53125 0 4.714844 3.820313 8.535156 8.53125 8.535156 4.714844 0 8.535157-3.820312 8.535157-8.535156-.007813-4.710937-3.824219-8.527344-8.535157-8.53125zm0 0" fill="#428dff"/><path d="m59.785156 494.933594h392.53125v17.066406h-392.53125zm0 0" fill="#fff"/><g fill="#428dff"><path d="m102.449219 503.464844c-.011719-4.707032-3.824219-8.519532-8.53125-8.53125h-34.132813v17.066406h34.132813c4.707031-.011719 8.519531-3.824219 8.53125-8.535156zm0 0"/><path d="m452.316406 512v-17.066406h-290.132812c-4.710938 0-8.53125 3.820312-8.53125 8.53125 0 4.714844 3.820312 8.535156 8.53125 8.535156zm0 0"/><path d="m128.050781 494.933594c-2.257812.035156-4.421875.917968-6.058593 2.472656l-1.023438 1.28125c-.324219.476562-.582031.992188-.769531 1.535156-.246094.484375-.417969 1.003906-.511719 1.539063-.09375.5625-.152344 1.132812-.167969 1.703125.03125 2.261718.914063 4.425781 2.472657 6.058594 1.996093 2.074218 4.910156 2.980468 7.726562 2.410156 2.820312-.570313 5.152344-2.539063 6.183594-5.222656.4375-1.027344.667968-2.128907.683594-3.246094.019531-2.269532-.871094-4.453125-2.476563-6.058594s-3.789063-2.496094-6.058594-2.472656zm0 0"/><path d="m452.316406 512c-4.710937 0-8.53125-3.820312-8.53125-8.535156 0-4.710938 3.820313-8.53125 8.53125-8.53125 23.566406 0 42.667969-19.101563 42.667969-42.667969 0-23.5625-19.101563-42.664063-42.667969-42.664063h-392.53125c-23.566406 0-42.667968 19.101563-42.667968 42.664063 0 23.566406 19.101562 42.667969 42.667968 42.667969 4.710938 0 8.53125 3.820312 8.53125 8.53125 0 4.714844-3.820312 8.535156-8.53125 8.535156-32.992187 0-59.7343748-26.742188-59.7343748-59.734375 0-32.988281 26.7421878-59.730469 59.7343748-59.730469h392.53125c32.992188 0 59.734375 26.742188 59.734375 59.730469 0 32.992187-26.742187 59.734375-59.734375 59.734375zm0 0"/><path d="m68.316406 85.332031h-51.199218c-9.421876-.007812-17.0585942-7.644531-17.0664068-17.066406v-34.132813c.0078126-9.421874 7.6445308-17.058593 17.0664068-17.066406h51.199218c4.714844 0 8.535156 3.820313 8.535156 8.535156 0 4.710938-3.820312 8.53125-8.535156 8.53125h-51.199218v34.132813h51.199218c4.714844 0 8.535156 3.820313 8.535156 8.535156 0 4.710938-3.820312 8.53125-8.535156 8.53125zm0 0"/><path d="m349.917969 34.132812h-179.199219c-4.714844 0-8.535156-3.820312-8.535156-8.53125 0-4.714843 3.820312-8.535156 8.535156-8.535156h179.199219c4.710937 0 8.53125 3.820313 8.53125 8.535156 0 4.710938-3.820313 8.53125-8.53125 8.53125zm0 0"/><path d="m349.917969 85.332031h-179.199219c-4.714844 0-8.535156-3.820312-8.535156-8.53125 0-4.714843 3.820312-8.535156 8.535156-8.535156h179.199219c4.710937 0 8.53125 3.820313 8.53125 8.535156 0 4.710938-3.820313 8.53125-8.53125 8.53125zm0 0"/><path d="m494.984375 85.332031h-42.667969c-4.710937 0-8.53125-3.820312-8.53125-8.53125 0-4.714843 3.820313-8.535156 8.53125-8.535156h42.667969v-34.132813h-42.667969c-4.710937 0-8.53125-3.820312-8.53125-8.53125 0-4.714843 3.820313-8.535156 8.53125-8.535156h42.667969c9.421875.011719 17.054687 7.644532 17.066406 17.066406v34.132813c-.011719 9.421875-7.644531 17.058594-17.066406 17.066406zm0 0"/><path d="m153.652344 102.398438h-68.238282c-14.132812-.015626-25.585937-11.464844-25.601562-25.597657v-51.199219c.015625-14.132812 11.46875-25.585937 25.601562-25.601562h68.238282c14.128906.015625 25.582031 11.46875 25.597656 25.601562v51.199219c-.015625 14.132813-11.46875 25.582031-25.597656 25.597657zm-68.238282-85.332032c-4.710937.007813-8.527343 3.824219-8.535156 8.535156v51.199219c.007813 4.710938 3.824219 8.527344 8.535156 8.53125h68.238282c4.707031-.003906 8.527344-3.820312 8.53125-8.53125v-51.199219c-.003906-4.710937-3.824219-8.527343-8.53125-8.535156zm0 0"/><path d="m435.25 102.398438h-68.238281c-14.128907-.015626-25.582031-11.464844-25.597657-25.597657v-51.199219c.015626-14.132812 11.46875-25.585937 25.597657-25.601562h68.238281c14.132812.015625 25.585938 11.46875 25.601562 25.601562v51.199219c-.015624 14.132813-11.46875 25.582031-25.601562 25.597657zm-68.238281-85.332032c-4.707031.007813-8.527344 3.824219-8.53125 8.535156v51.199219c.003906 4.710938 3.824219 8.527344 8.53125 8.53125h68.238281c4.710938-.003906 8.53125-3.820312 8.535156-8.53125v-51.199219c-.003906-4.710937-3.824218-8.53125-8.535156-8.535156zm0 0"/><path d="m119.519531 76.800781c-14.140625 0-25.601562-11.460937-25.601562-25.601562 0-14.136719 11.460937-25.597657 25.601562-25.597657 14.136719 0 25.597657 11.460938 25.597657 25.597657-.015626 14.132812-11.46875 25.585937-25.597657 25.601562zm0-34.132812c-4.714843 0-8.535156 3.820312-8.535156 8.53125 0 4.714843 3.820313 8.535156 8.535156 8.535156 4.710938 0 8.53125-3.820313 8.53125-8.535156-.007812-4.710938-3.824219-8.527344-8.53125-8.53125zm0 0"/><path d="m401.117188 76.800781c-10.355469 0-19.6875-6.238281-23.652344-15.804687-3.960938-9.566406-1.769532-20.578125 5.550781-27.898438 7.320313-7.320312 18.332031-9.511718 27.898437-5.550781 9.566407 3.964844 15.804688 13.300781 15.804688 23.652344-.015625 14.132812-11.46875 25.585937-25.601562 25.601562zm0-34.132812c-4.710938 0-8.53125 3.820312-8.53125 8.53125 0 4.714843 3.820312 8.535156 8.53125 8.535156 4.714843 0 8.535156-3.820313 8.535156-8.535156-.007813-4.710938-3.824219-8.527344-8.535156-8.53125zm0 0"/><path d="m119.519531 375.464844c-4.714843 0-8.535156-3.820313-8.535156-8.53125v-51.199219c0-4.714844 3.820313-8.535156 8.535156-8.535156 4.710938 0 8.53125 3.820312 8.53125 8.535156v51.199219c0 4.710937-3.820312 8.53125-8.53125 8.53125zm0 0"/><path d="m196.316406 349.867188c-14.128906-.015626-25.582031-11.46875-25.597656-25.601563v-39.125l-31.710938-31.632813c-2.210937-2.140624-3.097656-5.308593-2.320312-8.289062.777344-2.976562 3.101562-5.308594 6.078125-6.09375s6.144531.09375 8.292969 2.300781l34.21875 34.132813c1.605468 1.601562 2.507812 3.773437 2.507812 6.042968v42.664063c0 4.714844 3.820313 8.535156 8.53125 8.535156 4.714844 0 8.535156-3.820312 8.535156-8.535156l-.058593-53.355469-51.621094-51.535156c-2.203125-2.144531-3.085937-5.304688-2.304687-8.28125.777343-2.972656 3.097656-5.296875 6.070312-6.085938 2.96875-.785156 6.136719.085938 8.285156 2.285157l54.195313 54.105469c1.601562 1.601562 2.5 3.773437 2.5 6.035156v56.832031c-.015625 14.132813-11.46875 25.585937-25.601563 25.601563zm0 0"/><path d="m42.71875 349.867188c-14.132812-.015626-25.585938-11.46875-25.601562-25.601563v-56.832031c0-2.261719.898437-4.433594 2.5-6.03125l54.195312-54.109375c3.347656-3.257813 8.695312-3.21875 11.992188.089843 3.296874 3.308594 3.324218 8.652344.058593 11.992188l-51.679687 51.589844v53.300781c0 4.714844 3.820312 8.535156 8.535156 8.535156 4.710938 0 8.53125-3.820312 8.53125-8.535156v-42.664063c0-2.269531.902344-4.441406 2.507812-6.042968l34.21875-34.132813c2.148438-2.207031 5.320313-3.085937 8.296876-2.300781 2.976562.785156 5.300781 3.117188 6.078124 6.09375.777344 2.980469-.109374 6.148438-2.324218 8.289062l-31.710938 31.632813v39.125c-.015625 14.132813-11.464844 25.585937-25.597656 25.601563zm0 0"/><path d="m25.652344 275.96875c-3.453125 0-6.5625-2.082031-7.882813-5.269531-1.320312-3.1875-.589843-6.855469 1.847657-9.296875l2.5625-2.5625c3.34375-3.246094 8.675781-3.203125 11.972656.09375s3.339844 8.628906.089844 11.976562l-2.558594 2.558594c-1.597656 1.601562-3.769532 2.503906-6.03125 2.5zm0 0"/><path d="m213.382812 275.96875c-2.261718.003906-4.433593-.898438-6.03125-2.5l-2.558593-2.558594c-3.246094-3.347656-3.207031-8.679687.089843-11.976562 3.296876-3.296875 8.628907-3.339844 11.972657-.09375l2.5625 2.5625c2.4375 2.441406 3.167969 6.109375 1.847656 9.296875s-4.429687 5.269531-7.882813 5.269531zm0 0"/><path d="m96.988281 256h-2.984375c-4.714844 0-8.535156-3.820312-8.535156-8.535156 0-4.710938 3.820312-8.53125 8.535156-8.53125h2.984375c4.714844 0 8.535157 3.820312 8.535157 8.53125 0 4.714844-3.820313 8.535156-8.535157 8.535156zm0 0"/><path d="m145.03125 256h-2.984375c-4.714844 0-8.535156-3.820312-8.535156-8.535156 0-4.710938 3.820312-8.53125 8.535156-8.53125h2.984375c4.714844 0 8.535156 3.820312 8.535156 8.53125 0 4.714844-3.820312 8.535156-8.535156 8.535156zm0 0"/><path d="m86.492188 221.867188h-6.65625c-4.710938 0-8.53125-3.820313-8.53125-8.535157 0-4.710937 3.820312-8.53125 8.53125-8.53125h6.65625c4.714843 0 8.535156 3.820313 8.535156 8.53125 0 4.714844-3.820313 8.535157-8.535156 8.535157zm0 0"/><path d="m159.199219 221.867188h-6.65625c-4.714844 0-8.535157-3.820313-8.535157-8.535157 0-4.710937 3.820313-8.53125 8.535157-8.53125h6.65625c4.710937 0 8.53125 3.820313 8.53125 8.53125 0 4.714844-3.820313 8.535157-8.53125 8.535157zm0 0"/><path d="m136.585938 200.875c-4.714844 0-8.535157-3.820312-8.535157-8.535156v-89.941406h-17.066406v89.941406c0 4.714844-3.820313 8.535156-8.535156 8.535156-4.710938 0-8.53125-3.820312-8.53125-8.535156v-98.472656c0-4.714844 3.820312-8.535157 8.53125-8.535157h34.136719c4.710937 0 8.53125 3.820313 8.53125 8.535157v98.472656c0 4.714844-3.820313 8.535156-8.53125 8.535156zm0 0"/><path d="m119.519531 264.535156c-23.566406 0-42.667969-19.105468-42.667969-42.667968 0-23.566407 19.101563-42.667969 42.667969-42.667969 23.5625 0 42.664063 19.101562 42.664063 42.667969-.027344 23.550781-19.113282 42.636718-42.664063 42.667968zm0-68.269531c-14.140625 0-25.601562 11.460937-25.601562 25.601563 0 14.136718 11.460937 25.597656 25.601562 25.597656 14.136719 0 25.597657-11.460938 25.597657-25.597656-.015626-14.132813-11.46875-25.585938-25.597657-25.601563zm0 0"/><path d="m452.316406 349.867188h-102.398437c-9.421875-.011719-17.058594-7.644532-17.066407-17.066407v-110.933593c0-4.714844 3.820313-8.535157 8.53125-8.535157h119.46875c4.710938 0 8.53125 3.820313 8.53125 8.535157v110.933593c-.007812 9.421875-7.644531 17.054688-17.066406 17.066407zm-102.398437-119.46875v102.402343h102.410156l-.011719-102.402343zm0 0"/><path d="m418.191406 290.132812c-2.855468.003907-5.523437-1.421874-7.105468-3.800781l-9.96875-14.949219-9.964844 14.949219c-1.679688 2.570313-4.605469 4.039063-7.667969 3.851563s-5.785156-2.007813-7.136719-4.761719c-1.351562-2.75-1.121094-6.019531.605469-8.554687l17.066406-25.601563c1.667969-2.242187 4.300781-3.5625 7.097657-3.5625 2.796874 0 5.429687 1.320313 7.101562 3.5625l17.066406 25.601563c1.742188 2.617187 1.90625 5.980468.425782 8.753906-1.484376 2.777344-4.371094 4.507812-7.519532 4.511718zm0 0"/><path d="m401.117188 315.734375c-4.710938 0-8.53125-3.820313-8.53125-8.535156v-51.199219c0-4.710938 3.820312-8.535156 8.53125-8.535156 4.714843 0 8.535156 3.824218 8.535156 8.535156v51.199219c0 4.714843-3.820313 8.535156-8.535156 8.535156zm0 0"/><path d="m170.71875 409.601562h-102.402344c-9.421875-.011718-17.054687-7.644531-17.066406-17.066406v-110.933594c0-4.714843 3.820312-8.535156 8.535156-8.535156h119.464844c4.714844 0 8.535156 3.820313 8.535156 8.535156v110.933594c-.011718 9.421875-7.644531 17.054688-17.066406 17.066406zm-102.402344-119.46875v102.402344h102.414063l-.011719-102.402344zm0 0"/><path d="m136.59375 349.867188c-2.855469.003906-5.527344-1.421876-7.109375-3.800782l-9.964844-14.949218-9.96875 14.949218c-1.679687 2.566406-4.605469 4.039063-7.667969 3.847656-3.058593-.1875-5.785156-2.003906-7.136718-4.757812-1.351563-2.753906-1.121094-6.019531.605468-8.554688l17.066407-25.601562c1.671875-2.242188 4.304687-3.5625 7.101562-3.5625 2.792969 0 5.425781 1.320312 7.097657 3.5625l17.066406 25.601562c1.746094 2.617188 1.910156 5.980469.425781 8.753907-1.484375 2.773437-4.371094 4.507812-7.515625 4.511719zm0 0"/><path d="m477.917969 290.132812c-14.132813-.015624-25.585938-11.46875-25.601563-25.597656v-39.128906l-31.707031-31.632812c-2.214844-2.140626-3.101563-5.308594-2.324219-8.285157.777344-2.980469 3.101563-5.3125 6.078125-6.097656 2.980469-.785156 6.148438.09375 8.296875 2.300781l34.21875 34.132813c1.605469 1.601562 2.507813 3.777343 2.503906 6.042969v42.667968c0 4.710938 3.820313 8.53125 8.535157 8.53125 4.710937 0 8.53125-3.820312 8.53125-8.53125l-.054688-53.359375-51.617187-51.535156c-3.253906-3.339844-3.21875-8.671875.074218-11.976563 3.289063-3.300781 8.625-3.347656 11.972657-.105468l54.191406 54.109375c1.601563 1.597656 2.503906 3.769531 2.503906 6.035156v56.832031c-.015625 14.128906-11.46875 25.582032-25.601562 25.597656zm0 0"/><path d="m324.316406 290.132812c-14.128906-.015624-25.582031-11.46875-25.597656-25.597656v-56.832031c0-2.265625.898438-4.433594 2.5-6.035156l54.195312-54.109375c2.148438-2.195313 5.3125-3.070313 8.285157-2.28125 2.972656.785156 5.289062 3.113281 6.070312 6.085937.777344 2.972657-.101562 6.136719-2.304687 8.28125l-51.679688 51.589844v53.300781c0 4.710938 3.820313 8.53125 8.53125 8.53125 4.714844 0 8.535156-3.820312 8.535156-8.53125v-42.667968c0-2.269532.902344-4.441407 2.507813-6.042969l34.21875-34.132813c2.148437-2.207031 5.316406-3.085937 8.292969-2.300781 2.980468.785156 5.300781 3.117187 6.078125 6.097656.78125 2.976563-.109375 6.144531-2.320313 8.285157l-31.710937 31.632812v39.128906c-.015625 14.128906-11.46875 25.582032-25.601563 25.597656zm0 0"/><path d="m307.25 216.234375c-3.449219 0-6.5625-2.078125-7.882812-5.269531-1.320313-3.1875-.589844-6.855469 1.851562-9.296875l2.558594-2.558594c3.347656-3.246094 8.679687-3.207031 11.976562.089844s3.335938 8.628906.089844 11.976562l-2.558594 2.558594c-1.597656 1.605469-3.769531 2.503906-6.035156 2.5zm0 0"/><path d="m494.984375 216.234375c-2.261719.003906-4.433594-.894531-6.03125-2.5l-2.5625-2.558594c-3.246094-3.347656-3.207031-8.679687.089844-11.976562s8.628906-3.335938 11.976562-.089844l2.558594 2.558594c2.441406 2.441406 3.171875 6.109375 1.851563 9.296875-1.320313 3.191406-4.433594 5.269531-7.882813 5.269531zm0 0"/><path d="m378.589844 196.265625h-2.988282c-4.710937 0-8.53125-3.820313-8.53125-8.53125 0-4.714844 3.820313-8.535156 8.53125-8.535156h2.988282c4.710937 0 8.53125 3.820312 8.53125 8.535156 0 4.710937-3.820313 8.53125-8.53125 8.53125zm0 0"/><path d="m426.632812 196.265625h-2.988281c-4.710937 0-8.53125-3.820313-8.53125-8.53125 0-4.714844 3.820313-8.535156 8.53125-8.535156h2.988281c4.710938 0 8.53125 3.820312 8.53125 8.535156 0 4.710937-3.820312 8.53125-8.53125 8.53125zm0 0"/><path d="m368.09375 162.132812h-6.65625c-4.710938 0-8.53125-3.820312-8.53125-8.53125 0-4.714843 3.820312-8.535156 8.53125-8.535156h6.65625c4.710938 0 8.535156 3.820313 8.535156 8.535156 0 4.710938-3.824218 8.53125-8.535156 8.53125zm0 0"/><path d="m440.796875 162.132812h-6.65625c-4.710937 0-8.53125-3.820312-8.53125-8.53125 0-4.714843 3.820313-8.535156 8.53125-8.535156h6.65625c4.714844 0 8.535156 3.820313 8.535156 8.535156 0 4.710938-3.820312 8.53125-8.535156 8.53125zm0 0"/><path d="m418.183594 141.140625c-4.710938 0-8.53125-3.820313-8.53125-8.53125v-38.742187c0-4.714844 3.820312-8.535157 8.53125-8.535157 4.714844 0 8.535156 3.820313 8.535156 8.535157v38.742187c0 4.710937-3.820312 8.53125-8.535156 8.53125zm0 0"/><path d="m384.050781 141.140625c-4.710937 0-8.53125-3.820313-8.53125-8.53125v-38.742187c0-4.714844 3.820313-8.535157 8.53125-8.535157 4.714844 0 8.535157 3.820313 8.535157 8.535157v38.742187c0 4.710937-3.820313 8.53125-8.535157 8.53125zm0 0"/><path d="m401.117188 204.800781c-23.5625 0-42.667969-19.101562-42.667969-42.667969 0-23.5625 19.105469-42.667968 42.667969-42.667968 23.566406 0 42.667968 19.105468 42.667968 42.667968-.027344 23.554688-19.113281 42.640626-42.667968 42.667969zm0-68.265625c-10.355469 0-19.6875 6.234375-23.652344 15.800782-3.960938 9.566406-1.769532 20.578124 5.550781 27.898437 7.320313 7.324219 18.332031 9.511719 27.898437 5.550781 9.566407-3.964844 15.804688-13.296875 15.804688-23.652344-.015625-14.132812-11.46875-25.582031-25.601562-25.597656zm0 0"/><path d="m273.117188 213.332031h-68.265626c-4.714843 0-8.535156-3.820312-8.535156-8.53125 0-4.714843 3.820313-8.535156 8.535156-8.535156h68.265626c4.714843 0 8.535156 3.820313 8.535156 8.535156 0 4.710938-3.820313 8.53125-8.535156 8.53125zm0 0"/><path d="m298.71875 179.199219h-68.269531c-4.710938 0-8.53125-3.820313-8.53125-8.53125 0-4.714844 3.820312-8.535157 8.53125-8.535157h68.269531c4.710938 0 8.53125 3.820313 8.53125 8.535157 0 4.710937-3.820312 8.53125-8.53125 8.53125zm0 0"/></g></svg>